<svg width="1503" height="1651" viewBox="0 0 1503 1651" fill="none" xmlns="http://www.w3.org/2000/svg">
<g clip-path="url(#clip0_95_94)">
<path d="M1748 2021L1622.5 1668.5L1557.5 1471.5L1500 1306.5C1494.67 1285.5 1476 1233 1466 1209C1456 1185 1449 1172.5 1440.5 1165.5C1433 1162.33 1408.9 1136.8 1420.5 1120C1432.1 1103.2 1429.83 1098.42 1427 1090.75C1373.67 915.583 1242.1 566.9 1230.5 524.5C1222.02 493.5 1206.5 454 1195 423.5C1183.5 393 1183.54 390.5 1152.5 346C1138.67 326.167 1107.4 278.3 1093 257.5C1081.92 241.5 1078.77 237.5 1066.5 221C1063.5 216.966 1051.5 201 1008.5 172C980.887 153.378 954 163.883 932.5 172C917 179 879.306 196.111 858.5 208C837.5 220 836.093 222 833 238.5C831.5 246.5 832 247.5 830 257.5C825.018 282.409 810 293.667 802 296C800 297.167 788.11 300.5 756.5 300.5C722.5 300.5 716.166 300.5 702 308C693.5 312.5 685.395 319 677.5 331.5C670.425 342.701 657.5 357.564 643.5 366.5C620 381.5 593 399 578.5 408C564.487 416.697 565.167 428.833 567 435C569.676 444 574.317 455.285 558.5 466C543 476.5 519 486 499.5 501C480 516 472.4 529.8 454 559C435.6 588.2 429.667 632.833 429 651.5L416.5 899.5C416.5 911 416.5 920.467 427.5 924.5C441.136 929.5 442 948.5 443.5 967C444.483 979.126 450 981.7 457.5 985C470 990.5 472.5 1000.5 475 1011L493.25 1090.75L511.5 1170.5C514.667 1184.67 519.5 1207.5 519.5 1223.5C519.5 1239.5 515 1244 511.5 1262.5C508 1281 515 1331.5 520 1362C525.132 1393.31 523.5 1395.59 508 1412.5C497 1424.5 486.756 1435.35 473.5 1450C460.244 1464.65 462 1479 462 1507.5C462 1529 472.953 1538.46 490.5 1554C508 1569.5 514.514 1573 517.5 1594.5C519.167 1606.5 522.5 1636.2 522.5 1659C522.5 1681.8 519.291 1698.5 496.5 1718.5C471.5 1740.44 450.5 1758.5 447.5 1779C444.354 1800.5 449.25 1814.5 455.5 1827C459.333 1834.67 469.3 1853.9 478.5 1869.5C487.7 1885.1 516.667 1935 530 1958L599 2084.5" stroke="#F3F3F3" stroke-width="13"/>
<path d="M437.5 933C451 931 452.091 927.5 460 913C475 885.5 459 847.5 476 833C486.5 824.044 495.8 823.5 507 825.5C518.2 827.5 534 839.5 544.5 847.5C561 860.071 583.5 864.5 591.5 840.5C599.5 816.5 623.5 743.833 634.5 710.5C638.625 698 640.5 689.4 628.5 675C616.5 660.6 621.5 647.333 625.5 642.5C625.5 642.5 692.981 563.189 737.5 513.5C782.22 463.587 854 387.5 854 387.5C857.333 383.833 862.5 374.9 856.5 368.5C850.5 362.1 845.333 356.833 843.5 355C840.667 352.5 833.7 349 828.5 355C823.3 361 749.333 435.167 713 471.5C698.667 485.667 663.8 511 639 499C612.5 486.177 626 464 633.5 457.5C639.5 452.3 678 423.333 696.5 409.5C712.333 397.167 744.8 368.4 748 352C752 331.5 743.5 315 727 307" stroke="#F3F3F3" stroke-width="6"/>
</g>
<defs>
<clipPath id="clip0_95_94">
<rect width="1503" height="1651" fill="white"/>
</clipPath>
</defs>
</svg>
