<svg width="1503" height="1651" viewBox="0 0 1503 1651" fill="none" xmlns="http://www.w3.org/2000/svg">
<path d="M556 1277.5L554 1187C553.79 1177.5 561 1176 570 1174C579 1172 587.5 1179.5 587.5 1183.5C587.5 1186.7 591.167 1190.17 593 1191.5C596.833 1193.5 607.7 1194.7 620.5 1183.5C633.3 1172.3 633.5 1184.17 632 1191.5C628.4 1197.5 630.5 1225.33 632 1238.5C637.2 1269.7 631.5 1278.5 628 1279C625 1280.83 619.3 1285.6 620.5 1290C621.7 1294.4 628.667 1299.17 632 1301C645 1315 640.5 1318 636.5 1322C633.3 1325.2 623.5 1317 619 1312.5C608.2 1307.7 604.833 1296.5 604.5 1291.5V1273.5C604.5 1270.33 603.1 1263.6 597.5 1262C583.5 1258 581.5 1253 580 1234.5C578.8 1219.7 591.167 1228.33 597.5 1234.5C604 1238.33 617.4 1242.4 619 1228C621 1210 612.5 1209.5 609 1209.5H583.5C567.1 1209.5 565 1218.83 566 1223.5C566.833 1231.5 568.8 1250.8 570 1264C571.5 1280.5 576 1281 587.5 1289C599 1297 589 1306.5 583.5 1309.5C569.1 1312.7 559.167 1289.5 556 1277.5Z" stroke="#F3F3F3" stroke-width="5"/>
<path d="M623.5 1421L580.5 1350.5C579.833 1349.83 577.1 1348.5 571.5 1348.5C558.7 1351.7 556.5 1356.83 557 1359C557.4 1363 555.667 1366.17 554.5 1369C544 1379.5 548.5 1374.5 546.5 1377.5C546.9 1402.7 541.667 1414 539 1416.5C536.167 1419 531.1 1426.4 533.5 1436C547.9 1455.6 550.833 1449.5 550.5 1444L548.5 1426C544.5 1411.5 564 1398.5 562 1424C561.6 1444.8 572.833 1444 578.5 1441C585 1437.5 599.7 1430.5 606.5 1430.5C625.7 1432.5 625.833 1425 623.5 1421Z" stroke="#F3F3F3" stroke-width="5"/>
<path d="M524 1478L528.5 1513C529.014 1517 544.381 1512.67 552 1510C568.4 1505.6 571.167 1497.83 570.5 1494.5C569 1489 572.5 1478 575 1478C577.5 1478 582 1485 585 1483.5C587.4 1482.3 599 1474.67 604.5 1471C617.5 1464 601 1453.5 596 1462.5C592 1469.7 585 1467.17 582 1465C577.2 1457.4 565.667 1457.5 560.5 1458.5C556.167 1459.5 544.8 1462.2 534 1465C522.8 1466.6 522.667 1474.33 524 1478Z" stroke="#F3F3F3" stroke-width="5"/>
</svg>
