<svg width="1503" height="1651" viewBox="0 0 1503 1651" fill="none" xmlns="http://www.w3.org/2000/svg">
<path d="M470 1013.5V1014.5L463.055 1013.94C459.421 1013.65 455.776 1014.36 452.516 1015.99L448.5 1018L447.914 1023.56C447.639 1026.18 447.57 1028.82 447.71 1031.45L450 1074.5V1086L462.5 1136L469.5 1159.5L473.5 1192.5V1206.5L480 1223L491.5 1229L513 1218" stroke="white"/>
<path opacity="0.25" d="M450 1068L434.727 1099.02C434.243 1100.01 433.841 1101.03 433.524 1102.08L426.794 1124.37C426.267 1126.12 425.981 1127.92 425.945 1129.75L424.5 1201.5L426 1296V1323C426 1325.64 426.523 1328.25 427.538 1330.69L429.528 1335.47C430.489 1337.77 432.092 1339.76 434.147 1341.18V1341.18C436.33 1342.69 438.923 1343.5 441.578 1343.5H443.643C446.474 1343.5 449.231 1342.6 451.514 1340.92V1340.92C454.085 1339.04 455.894 1336.29 456.612 1333.18L461.112 1313.68C461.37 1312.56 461.532 1311.42 461.594 1310.28L463.383 1277.64C463.461 1276.22 463.387 1274.79 463.162 1273.38L461.748 1264.55C461.583 1263.52 461.337 1262.5 461.014 1261.51L454.449 1241.38C454.15 1240.46 453.918 1239.52 453.754 1238.57L449 1211L446 1183V1157M446 1157L447.906 1156.24C449.95 1155.42 452.131 1155 454.332 1155H460.486C461.135 1155 461.758 1155.26 462.217 1155.72V1155.72C463.975 1157.47 466.93 1155.8 466.321 1153.39L460.124 1128.89C458.924 1124.15 454.286 1121.12 449.458 1121.92L448.588 1122.07C446.89 1122.35 445.288 1123.05 443.929 1124.11L443.239 1124.65C439.374 1127.65 437.389 1132.48 438.022 1137.34L438.179 1138.54C438.392 1140.17 438.855 1141.76 439.552 1143.24L446 1157Z" stroke="white"/>
</svg>
