<svg width="1503" height="1651" viewBox="0 0 1503 1651" fill="none" xmlns="http://www.w3.org/2000/svg">
<path d="M506.5 730H515L552.5 690L560.5 673L565 618.5L567 596L570.5 592V581.5L572.5 575L591.5 563.5L595.5 559.5L597 544L595.5 538.5L552.5 534.5L533 541.5L532.5 557.5" stroke="#F3F3F3"/>
<path d="M486.5 513.5C492.582 518.733 501.938 520.74 506.111 528.222C509.145 533.662 514.729 537.691 520.25 540.25C525.551 542.707 528.219 545.15 530.389 551.167C532.024 555.701 531.5 560.821 531.5 565.555C531.5 568.96 533.313 572.521 534.5 575.667C537.534 583.703 545.062 590.166 552.722 593.722C558.304 596.314 564.784 595.5 570.778 595.5C575.183 595.5 578.873 598.252 582.417 600.778C593.027 608.339 593.268 618.079 590.028 630.5C588.561 636.122 590.344 642.657 590.028 648.5C589.813 652.466 589.993 656.42 589.611 660.389C589.226 664.395 587.581 668.091 586.889 672.055C586.168 676.187 586.459 680.421 585.667 684.5C584.209 692.006 582.771 699.561 581 707C579.014 715.34 577.866 723.416 573.944 731.194C569.699 739.615 570.689 733.155 565.5 741C559.928 749.425 565.5 759 559.111 780C557.085 786.661 551.412 800.266 549 803.5C546.928 806.278 545.457 807.957 542.972 810.5C537.495 816.106 518.165 803.5 510.889 803.5C507.08 803.5 502.947 803.019 499.167 803.5C496.88 803.791 494.894 805.792 493.167 807.111C490.805 808.915 488.37 810.568 485.944 812.278C482.971 814.374 482.028 819.204 480.111 822.167C476.941 827.065 472.551 828.341 467.028 828.972C461.767 829.754 424.238 837 419 837" stroke="#F3F3F3" stroke-width="3" stroke-linecap="round"/>
<path d="M509 534.5C503.281 543.283 492.5 556.656 492.5 567.5C492.5 569.343 489.5 578.5 486.5 578C482.931 576.867 483.569 576.539 480 575.778C474.432 574.59 468.593 574.926 462.889 574.611C458.751 574.383 454.643 574 450.5 574" stroke="#F3F3F3" stroke-width="3" stroke-linecap="round"/>
<path d="M510.25 533.25C510.984 533.168 511.971 532.183 512.444 531.694C512.991 531.13 513.213 530.458 513.611 529.805C514.15 528.921 515.03 528.283 515.708 527.514C517.112 525.923 517.691 524.767 519.681 523.569C523.173 521.467 527.172 520.341 530.528 518.028C533.222 516.171 536.011 514.358 538.25 511.944C541.026 508.951 543.229 505.452 545.903 502.361C551.571 495.809 559.583 492.227 565.5 485.944C569.594 481.597 574.739 478.5 579.069 474.458C583.742 470.097 588.387 466.17 593.972 463.028C595.345 462.255 596.701 461.604 597.833 460.444C599.738 458.492 600.694 455.719 602.5 453.639C604.891 450.884 607.972 448.751 610.75 446.444C615.428 442.561 615.182 436.44 615.556 430.889C615.658 429.362 615.946 428.15 616.417 426.722C617.103 424.64 617.511 422.215 619 420.514C619.937 419.443 620.706 418.294 621.722 417.278C622.968 416.032 624.959 415.346 626.611 414.75C628.801 413.96 630.406 412.561 632.153 411.083C633.246 410.158 633.761 408.807 634.597 407.68C635.017 407.115 635.655 406.394 635.944 405.75C636.369 404.807 635.364 403.468 635.056 402.639C633.677 398.93 632.04 395.404 631.111 391.542C630.438 388.741 629.732 385.464 628.5 383" stroke="#F3F3F3" stroke-width="3" stroke-linecap="round"/>
<path d="M428 773.5C428 776.741 431 864.759 431 868C431 877 430.644 875.603 432.222 878.333C434.003 881.413 434.925 885.326 437.389 887.889C439.771 890.366 440.5 896.831 440.5 900.111C440.5 903.295 441.899 906.048 442 909.167C442.078 911.572 442.02 913.914 442.611 916.278C442.813 917.084 442.979 918.075 443.722 918.5C444.805 919.119 444.364 921.009 444.639 921.972C445.448 924.802 446.794 927.763 447.889 930.5C448.42 931.829 448.715 933.152 449.389 934.5C450.498 936.718 451.231 939.43 451.944 941.75C452.742 944.344 450.886 948.608 453 950.722C455.766 953.488 456.565 957.509 459.278 960.222C461.791 962.735 463.634 965.856 466.167 968.389C471.778 974 473.5 984.851 473.5 992.5" stroke="white" stroke-width="3" stroke-linecap="round"/>
<path d="M470 828L477.5 648.5L481.5 644H529L526.5 667.5L515 678.5L512 682L509 707L506.5 723.5L505 771V790L565 723.5L584 692.5" stroke="#F3F3F3"/>
<path d="M533.5 575C533 613.156 529.958 641.231 528.5 649" stroke="white"/>
<path d="M655.5 639L662 641.5L673 631L751.5 538L776.5 499L799.5 475" stroke="white"/>
<path d="M758 528L755.5 512L775 501" stroke="white"/>
</svg>
