<svg width="1503" height="1651" viewBox="0 0 1503 1651" fill="none" xmlns="http://www.w3.org/2000/svg">
<path d="M577.5 1069L527 1080L518 1042.5L577.5 1032.5V1069Z" fill="#A24945" stroke="black" stroke-width="0.5"/>
<mask id="path-2-outside-1_95_94" maskUnits="userSpaceOnUse" x="537.5" y="1053" width="21" height="10" fill="black">
<rect fill="white" x="537.5" y="1053" width="21" height="10"/>
<path d="M541.856 1054.08C542.464 1054.08 542.984 1054.18 543.416 1054.39C543.848 1054.59 544.18 1054.88 544.412 1055.27C544.652 1055.64 544.772 1056.1 544.772 1056.64C544.772 1057.17 544.652 1057.63 544.412 1058.02C544.18 1058.39 543.848 1058.68 543.416 1058.89C542.984 1059.09 542.464 1059.19 541.856 1059.19H540.188V1062H538.532V1054.08H541.856ZM541.604 1057.88C542.1 1057.88 542.472 1057.78 542.72 1057.57C542.968 1057.36 543.092 1057.04 543.092 1056.64C543.092 1056.22 542.968 1055.91 542.72 1055.7C542.472 1055.49 542.1 1055.39 541.604 1055.39H540.188V1057.88H541.604ZM544.478 1054.08H550.754V1055.34C550.09 1056 549.562 1056.69 549.17 1057.39C548.778 1058.1 548.494 1058.83 548.318 1059.59C548.15 1060.35 548.066 1061.15 548.066 1062H546.422C546.422 1061.12 546.53 1060.28 546.746 1059.47C546.97 1058.65 547.31 1057.88 547.766 1057.14C548.23 1056.4 548.818 1055.68 549.53 1055L549.866 1055.44H544.478V1054.08ZM554.04 1054.08C555.28 1054.08 556.24 1054.42 556.92 1055.11C557.6 1055.79 557.94 1056.77 557.94 1058.04C557.94 1059.3 557.6 1060.28 556.92 1060.97C556.24 1061.66 555.28 1062 554.04 1062H550.98V1054.08H554.04ZM553.956 1060.68C554.708 1060.68 555.272 1060.46 555.648 1060.01C556.032 1059.55 556.224 1058.9 556.224 1058.04C556.224 1057.18 556.032 1056.53 555.648 1056.08C555.272 1055.63 554.708 1055.4 553.956 1055.4H552.636V1060.68H553.956Z"/>
</mask>
<path d="M541.856 1054.08C542.464 1054.08 542.984 1054.18 543.416 1054.39C543.848 1054.59 544.18 1054.88 544.412 1055.27C544.652 1055.64 544.772 1056.1 544.772 1056.64C544.772 1057.17 544.652 1057.63 544.412 1058.02C544.18 1058.39 543.848 1058.68 543.416 1058.89C542.984 1059.09 542.464 1059.19 541.856 1059.19H540.188V1062H538.532V1054.08H541.856ZM541.604 1057.88C542.1 1057.88 542.472 1057.78 542.72 1057.57C542.968 1057.36 543.092 1057.04 543.092 1056.64C543.092 1056.22 542.968 1055.91 542.72 1055.7C542.472 1055.49 542.1 1055.39 541.604 1055.39H540.188V1057.88H541.604ZM544.478 1054.08H550.754V1055.34C550.09 1056 549.562 1056.69 549.17 1057.39C548.778 1058.1 548.494 1058.83 548.318 1059.59C548.15 1060.35 548.066 1061.15 548.066 1062H546.422C546.422 1061.12 546.53 1060.28 546.746 1059.47C546.97 1058.65 547.31 1057.88 547.766 1057.14C548.23 1056.4 548.818 1055.68 549.53 1055L549.866 1055.44H544.478V1054.08ZM554.04 1054.08C555.28 1054.08 556.24 1054.42 556.92 1055.11C557.6 1055.79 557.94 1056.77 557.94 1058.04C557.94 1059.3 557.6 1060.28 556.92 1060.97C556.24 1061.66 555.28 1062 554.04 1062H550.98V1054.08H554.04ZM553.956 1060.68C554.708 1060.68 555.272 1060.46 555.648 1060.01C556.032 1059.55 556.224 1058.9 556.224 1058.04C556.224 1057.18 556.032 1056.53 555.648 1056.08C555.272 1055.63 554.708 1055.4 553.956 1055.4H552.636V1060.68H553.956Z" fill="white"/>
<path d="M543.416 1054.39L543.199 1054.84L543.206 1054.85L543.416 1054.39ZM544.412 1055.27L543.984 1055.53L543.991 1055.54L544.412 1055.27ZM544.412 1058.02L543.988 1057.75L543.986 1057.75L544.412 1058.02ZM543.416 1058.89L543.626 1059.35L543.633 1059.34L543.416 1058.89ZM540.188 1059.19V1058.69H539.688V1059.19H540.188ZM540.188 1062V1062.5H540.688V1062H540.188ZM538.532 1062H538.032V1062.5H538.532V1062ZM538.532 1054.08V1053.58H538.032V1054.08H538.532ZM542.72 1057.57L543.041 1057.96L543.048 1057.95L542.72 1057.57ZM542.72 1055.7L543.041 1055.32L543.041 1055.32L542.72 1055.7ZM540.188 1055.39V1054.89H539.688V1055.39H540.188ZM540.188 1057.88H539.688V1058.38H540.188V1057.88ZM541.856 1054.58C542.408 1054.58 542.85 1054.67 543.199 1054.84L543.633 1053.94C543.118 1053.69 542.52 1053.58 541.856 1053.58V1054.58ZM543.206 1054.85C543.553 1055.01 543.807 1055.23 543.984 1055.53L544.84 1055.01C544.553 1054.53 544.143 1054.18 543.626 1053.94L543.206 1054.85ZM543.991 1055.54C544.17 1055.82 544.272 1056.18 544.272 1056.64H545.272C545.272 1056.02 545.134 1055.47 544.833 1055L543.991 1055.54ZM544.272 1056.64C544.272 1057.1 544.17 1057.46 543.988 1057.75L544.836 1058.28C545.134 1057.8 545.272 1057.25 545.272 1056.64H544.272ZM543.986 1057.75C543.809 1058.04 543.553 1058.27 543.199 1058.44L543.633 1059.34C544.143 1059.1 544.551 1058.74 544.838 1058.28L543.986 1057.75ZM543.206 1058.44C542.855 1058.6 542.411 1058.69 541.856 1058.69V1059.69C542.517 1059.69 543.113 1059.58 543.626 1059.35L543.206 1058.44ZM541.856 1058.69H540.188V1059.69H541.856V1058.69ZM539.688 1059.19V1062H540.688V1059.19H539.688ZM540.188 1061.5H538.532V1062.5H540.188V1061.5ZM539.032 1062V1054.08H538.032V1062H539.032ZM538.532 1054.58H541.856V1053.58H538.532V1054.58ZM541.604 1058.38C542.158 1058.38 542.666 1058.27 543.041 1057.96L542.399 1057.19C542.278 1057.29 542.042 1057.38 541.604 1057.38V1058.38ZM543.048 1057.95C543.431 1057.62 543.592 1057.15 543.592 1056.64H542.592C542.592 1056.94 542.505 1057.1 542.392 1057.19L543.048 1057.95ZM543.592 1056.64C543.592 1056.12 543.433 1055.65 543.041 1055.32L542.399 1056.08C542.503 1056.17 542.592 1056.32 542.592 1056.64H543.592ZM543.041 1055.32C542.666 1055 542.158 1054.89 541.604 1054.89V1055.89C542.042 1055.89 542.278 1055.98 542.399 1056.08L543.041 1055.32ZM541.604 1054.89H540.188V1055.89H541.604V1054.89ZM539.688 1055.39V1057.88H540.688V1055.39H539.688ZM540.188 1058.38H541.604V1057.38H540.188V1058.38ZM544.478 1054.08V1053.58H543.978V1054.08H544.478ZM550.754 1054.08H551.254V1053.58H550.754V1054.08ZM550.754 1055.34L551.107 1055.69L551.254 1055.55V1055.34H550.754ZM549.17 1057.39L549.607 1057.64L549.17 1057.39ZM548.318 1059.59L547.831 1059.48L547.83 1059.48L548.318 1059.59ZM548.066 1062V1062.5H548.566V1062H548.066ZM546.422 1062H545.922V1062.5H546.422V1062ZM546.746 1059.47L546.264 1059.34L546.263 1059.34L546.746 1059.47ZM547.766 1057.14L547.342 1056.88L547.341 1056.88L547.766 1057.14ZM549.53 1055L549.924 1054.7L549.585 1054.26L549.184 1054.64L549.53 1055ZM549.866 1055.44V1055.94H550.888L550.26 1055.13L549.866 1055.44ZM544.478 1055.44H543.978V1055.94H544.478V1055.44ZM544.478 1054.58H550.754V1053.58H544.478V1054.58ZM550.254 1054.08V1055.34H551.254V1054.08H550.254ZM550.4 1054.99C549.709 1055.68 549.151 1056.4 548.733 1057.15L549.607 1057.64C549.973 1056.98 550.471 1056.33 551.107 1055.69L550.4 1054.99ZM548.733 1057.15C548.319 1057.89 548.018 1058.67 547.831 1059.48L548.805 1059.7C548.97 1058.99 549.237 1058.3 549.607 1057.64L548.733 1057.15ZM547.83 1059.48C547.653 1060.28 547.566 1061.12 547.566 1062H548.566C548.566 1061.19 548.647 1060.42 548.806 1059.7L547.83 1059.48ZM548.066 1061.5H546.422V1062.5H548.066V1061.5ZM546.922 1062C546.922 1061.16 547.025 1060.36 547.229 1059.6L546.263 1059.34C546.035 1060.19 545.922 1061.08 545.922 1062H546.922ZM547.228 1059.6C547.439 1058.83 547.759 1058.1 548.191 1057.4L547.341 1056.88C546.86 1057.65 546.501 1058.47 546.264 1059.34L547.228 1059.6ZM548.19 1057.4C548.629 1056.7 549.19 1056.02 549.875 1055.37L549.184 1054.64C548.446 1055.35 547.83 1056.09 547.342 1056.88L548.19 1057.4ZM549.135 1055.31L549.471 1055.74L550.26 1055.13L549.924 1054.7L549.135 1055.31ZM549.866 1054.94H544.478V1055.94H549.866V1054.94ZM544.978 1055.44V1054.08H543.978V1055.44H544.978ZM556.92 1055.11L556.564 1055.46L556.566 1055.47L556.92 1055.11ZM556.92 1060.97L557.275 1061.32L556.92 1060.97ZM550.98 1062H550.48V1062.5H550.98V1062ZM550.98 1054.08V1053.58H550.48V1054.08H550.98ZM555.648 1060.01L555.265 1059.69L555.265 1059.69L555.648 1060.01ZM555.648 1056.08L555.262 1056.4L555.268 1056.41L555.648 1056.08ZM552.636 1055.4V1054.9H552.136V1055.4H552.636ZM552.636 1060.68H552.136V1061.18H552.636V1060.68ZM554.04 1054.58C555.186 1054.58 556.003 1054.9 556.564 1055.46L557.275 1054.76C556.477 1053.95 555.374 1053.58 554.04 1053.58V1054.58ZM556.566 1055.47C557.125 1056.02 557.44 1056.86 557.44 1058.04H558.44C558.44 1056.68 558.074 1055.56 557.273 1054.76L556.566 1055.47ZM557.44 1058.04C557.44 1059.21 557.126 1060.05 556.564 1060.62L557.275 1061.32C558.074 1060.51 558.44 1059.39 558.44 1058.04H557.44ZM556.564 1060.62C556.003 1061.18 555.186 1061.5 554.04 1061.5V1062.5C555.374 1062.5 556.477 1062.13 557.275 1061.32L556.564 1060.62ZM554.04 1061.5H550.98V1062.5H554.04V1061.5ZM551.48 1062V1054.08H550.48V1062H551.48ZM550.98 1054.58H554.04V1053.58H550.98V1054.58ZM553.956 1061.18C554.81 1061.18 555.534 1060.92 556.031 1060.33L555.265 1059.69C555.009 1059.99 554.605 1060.18 553.956 1060.18V1061.18ZM556.03 1060.33C556.517 1059.75 556.724 1058.96 556.724 1058.04H555.724C555.724 1058.83 555.546 1059.35 555.265 1059.69L556.03 1060.33ZM556.724 1058.04C556.724 1057.12 556.517 1056.33 556.027 1055.76L555.268 1056.41C555.546 1056.73 555.724 1057.25 555.724 1058.04H556.724ZM556.033 1055.77C555.538 1055.16 554.813 1054.9 553.956 1054.9V1055.9C554.602 1055.9 555.006 1056.09 555.262 1056.4L556.033 1055.77ZM553.956 1054.9H552.636V1055.9H553.956V1054.9ZM552.136 1055.4V1060.68H553.136V1055.4H552.136ZM552.636 1061.18H553.956V1060.18H552.636V1061.18Z" fill="black" mask="url(#path-2-outside-1_95_94)"/>
<path d="M527 1017L521 1023.5L524 1039.5L620.5 1023.5L617 1009.5L612 1005L527 1017Z" fill="#A24945" stroke="black" stroke-width="0.5"/>
<mask id="path-5-outside-2_95_94" maskUnits="userSpaceOnUse" x="551.5" y="1018" width="21" height="10" fill="black">
<rect fill="white" x="551.5" y="1018" width="21" height="10"/>
<path d="M555.856 1019.08C556.464 1019.08 556.984 1019.18 557.416 1019.39C557.848 1019.59 558.18 1019.88 558.412 1020.27C558.652 1020.64 558.772 1021.1 558.772 1021.64C558.772 1022.17 558.652 1022.63 558.412 1023.02C558.18 1023.39 557.848 1023.68 557.416 1023.89C556.984 1024.09 556.464 1024.19 555.856 1024.19H554.188V1027H552.532V1019.08H555.856ZM555.604 1022.88C556.1 1022.88 556.472 1022.78 556.72 1022.57C556.968 1022.36 557.092 1022.04 557.092 1021.64C557.092 1021.22 556.968 1020.91 556.72 1020.7C556.472 1020.49 556.1 1020.39 555.604 1020.39H554.188V1022.88H555.604ZM558.478 1019.08H564.754V1020.34C564.09 1021 563.562 1021.69 563.17 1022.39C562.778 1023.1 562.494 1023.83 562.318 1024.59C562.15 1025.35 562.066 1026.15 562.066 1027H560.422C560.422 1026.12 560.53 1025.28 560.746 1024.47C560.97 1023.65 561.31 1022.88 561.766 1022.14C562.23 1021.4 562.818 1020.68 563.53 1020L563.866 1020.44H558.478V1019.08ZM564.98 1027V1019.08H570.92V1020.41H566.636V1022.38H570.008V1023.65H566.636V1025.67H571.088V1027H564.98Z"/>
</mask>
<path d="M555.856 1019.08C556.464 1019.08 556.984 1019.18 557.416 1019.39C557.848 1019.59 558.18 1019.88 558.412 1020.27C558.652 1020.64 558.772 1021.1 558.772 1021.64C558.772 1022.17 558.652 1022.63 558.412 1023.02C558.18 1023.39 557.848 1023.68 557.416 1023.89C556.984 1024.09 556.464 1024.19 555.856 1024.19H554.188V1027H552.532V1019.08H555.856ZM555.604 1022.88C556.1 1022.88 556.472 1022.78 556.72 1022.57C556.968 1022.36 557.092 1022.04 557.092 1021.64C557.092 1021.22 556.968 1020.91 556.72 1020.7C556.472 1020.49 556.1 1020.39 555.604 1020.39H554.188V1022.88H555.604ZM558.478 1019.08H564.754V1020.34C564.09 1021 563.562 1021.69 563.17 1022.39C562.778 1023.1 562.494 1023.83 562.318 1024.59C562.15 1025.35 562.066 1026.15 562.066 1027H560.422C560.422 1026.12 560.53 1025.28 560.746 1024.47C560.97 1023.65 561.31 1022.88 561.766 1022.14C562.23 1021.4 562.818 1020.68 563.53 1020L563.866 1020.44H558.478V1019.08ZM564.98 1027V1019.08H570.92V1020.41H566.636V1022.38H570.008V1023.65H566.636V1025.67H571.088V1027H564.98Z" fill="white"/>
<path d="M557.416 1019.39L557.199 1019.84L557.206 1019.85L557.416 1019.39ZM558.412 1020.27L557.984 1020.53L557.991 1020.54L558.412 1020.27ZM558.412 1023.02L557.988 1022.75L557.986 1022.75L558.412 1023.02ZM557.416 1023.89L557.626 1024.35L557.633 1024.34L557.416 1023.89ZM554.188 1024.19V1023.69H553.688V1024.19H554.188ZM554.188 1027V1027.5H554.688V1027H554.188ZM552.532 1027H552.032V1027.5H552.532V1027ZM552.532 1019.08V1018.58H552.032V1019.08H552.532ZM556.72 1022.57L557.041 1022.96L557.048 1022.95L556.72 1022.57ZM556.72 1020.7L557.041 1020.32L557.041 1020.32L556.72 1020.7ZM554.188 1020.39V1019.89H553.688V1020.39H554.188ZM554.188 1022.88H553.688V1023.38H554.188V1022.88ZM555.856 1019.58C556.408 1019.58 556.85 1019.67 557.199 1019.84L557.633 1018.94C557.118 1018.69 556.52 1018.58 555.856 1018.58V1019.58ZM557.206 1019.85C557.553 1020.01 557.807 1020.23 557.984 1020.53L558.84 1020.01C558.553 1019.53 558.143 1019.18 557.626 1018.94L557.206 1019.85ZM557.991 1020.54C558.17 1020.82 558.272 1021.18 558.272 1021.64H559.272C559.272 1021.02 559.134 1020.47 558.833 1020L557.991 1020.54ZM558.272 1021.64C558.272 1022.1 558.17 1022.46 557.988 1022.75L558.836 1023.28C559.134 1022.8 559.272 1022.25 559.272 1021.64H558.272ZM557.986 1022.75C557.809 1023.04 557.553 1023.27 557.199 1023.44L557.633 1024.34C558.143 1024.1 558.551 1023.74 558.838 1023.28L557.986 1022.75ZM557.206 1023.44C556.855 1023.6 556.411 1023.69 555.856 1023.69V1024.69C556.517 1024.69 557.113 1024.58 557.626 1024.35L557.206 1023.44ZM555.856 1023.69H554.188V1024.69H555.856V1023.69ZM553.688 1024.19V1027H554.688V1024.19H553.688ZM554.188 1026.5H552.532V1027.5H554.188V1026.5ZM553.032 1027V1019.08H552.032V1027H553.032ZM552.532 1019.58H555.856V1018.58H552.532V1019.58ZM555.604 1023.38C556.158 1023.38 556.666 1023.27 557.041 1022.96L556.399 1022.19C556.278 1022.29 556.042 1022.38 555.604 1022.38V1023.38ZM557.048 1022.95C557.431 1022.62 557.592 1022.15 557.592 1021.64H556.592C556.592 1021.94 556.505 1022.1 556.392 1022.19L557.048 1022.95ZM557.592 1021.64C557.592 1021.12 557.433 1020.65 557.041 1020.32L556.399 1021.08C556.503 1021.17 556.592 1021.32 556.592 1021.64H557.592ZM557.041 1020.32C556.666 1020 556.158 1019.89 555.604 1019.89V1020.89C556.042 1020.89 556.278 1020.98 556.399 1021.08L557.041 1020.32ZM555.604 1019.89H554.188V1020.89H555.604V1019.89ZM553.688 1020.39V1022.88H554.688V1020.39H553.688ZM554.188 1023.38H555.604V1022.38H554.188V1023.38ZM558.478 1019.08V1018.58H557.978V1019.08H558.478ZM564.754 1019.08H565.254V1018.58H564.754V1019.08ZM564.754 1020.34L565.107 1020.69L565.254 1020.55V1020.34H564.754ZM563.17 1022.39L563.607 1022.64L563.17 1022.39ZM562.318 1024.59L561.831 1024.48L561.83 1024.48L562.318 1024.59ZM562.066 1027V1027.5H562.566V1027H562.066ZM560.422 1027H559.922V1027.5H560.422V1027ZM560.746 1024.47L560.264 1024.34L560.263 1024.34L560.746 1024.47ZM561.766 1022.14L561.342 1021.88L561.341 1021.88L561.766 1022.14ZM563.53 1020L563.924 1019.7L563.585 1019.26L563.184 1019.64L563.53 1020ZM563.866 1020.44V1020.94H564.888L564.26 1020.13L563.866 1020.44ZM558.478 1020.44H557.978V1020.94H558.478V1020.44ZM558.478 1019.58H564.754V1018.58H558.478V1019.58ZM564.254 1019.08V1020.34H565.254V1019.08H564.254ZM564.4 1019.99C563.709 1020.68 563.151 1021.4 562.733 1022.15L563.607 1022.64C563.973 1021.98 564.471 1021.33 565.107 1020.69L564.4 1019.99ZM562.733 1022.15C562.319 1022.89 562.018 1023.67 561.831 1024.48L562.805 1024.7C562.97 1023.99 563.237 1023.3 563.607 1022.64L562.733 1022.15ZM561.83 1024.48C561.653 1025.28 561.566 1026.12 561.566 1027H562.566C562.566 1026.19 562.647 1025.42 562.806 1024.7L561.83 1024.48ZM562.066 1026.5H560.422V1027.5H562.066V1026.5ZM560.922 1027C560.922 1026.16 561.025 1025.36 561.229 1024.6L560.263 1024.34C560.035 1025.19 559.922 1026.08 559.922 1027H560.922ZM561.228 1024.6C561.439 1023.83 561.759 1023.1 562.191 1022.4L561.341 1021.88C560.86 1022.65 560.501 1023.47 560.264 1024.34L561.228 1024.6ZM562.19 1022.4C562.629 1021.7 563.19 1021.02 563.875 1020.37L563.184 1019.64C562.446 1020.35 561.83 1021.09 561.342 1021.88L562.19 1022.4ZM563.135 1020.31L563.471 1020.74L564.26 1020.13L563.924 1019.7L563.135 1020.31ZM563.866 1019.94H558.478V1020.94H563.866V1019.94ZM558.978 1020.44V1019.08H557.978V1020.44H558.978ZM564.98 1027H564.48V1027.5H564.98V1027ZM564.98 1019.08V1018.58H564.48V1019.08H564.98ZM570.92 1019.08H571.42V1018.58H570.92V1019.08ZM570.92 1020.41V1020.91H571.42V1020.41H570.92ZM566.636 1020.41V1019.91H566.136V1020.41H566.636ZM566.636 1022.38H566.136V1022.88H566.636V1022.38ZM570.008 1022.38H570.508V1021.88H570.008V1022.38ZM570.008 1023.65V1024.15H570.508V1023.65H570.008ZM566.636 1023.65V1023.15H566.136V1023.65H566.636ZM566.636 1025.67H566.136V1026.17H566.636V1025.67ZM571.088 1025.67H571.588V1025.17H571.088V1025.67ZM571.088 1027V1027.5H571.588V1027H571.088ZM565.48 1027V1019.08H564.48V1027H565.48ZM564.98 1019.58H570.92V1018.58H564.98V1019.58ZM570.42 1019.08V1020.41H571.42V1019.08H570.42ZM570.92 1019.91H566.636V1020.91H570.92V1019.91ZM566.136 1020.41V1022.38H567.136V1020.41H566.136ZM566.636 1022.88H570.008V1021.88H566.636V1022.88ZM569.508 1022.38V1023.65H570.508V1022.38H569.508ZM570.008 1023.15H566.636V1024.15H570.008V1023.15ZM566.136 1023.65V1025.67H567.136V1023.65H566.136ZM566.636 1026.17H571.088V1025.17H566.636V1026.17ZM570.588 1025.67V1027H571.588V1025.67H570.588ZM571.088 1026.5H564.98V1027.5H571.088V1026.5Z" fill="black" mask="url(#path-5-outside-2_95_94)"/>
<path d="M514 1066L500 1069.5L485.5 1017C490.7 1020.6 500.333 1019.5 504.5 1018.5L514 1066Z" fill="#A24945" stroke="black" stroke-width="0.5"/>
<mask id="path-8-outside-3_95_94" maskUnits="userSpaceOnUse" x="488.5" y="1035" width="21" height="10" fill="black">
<rect fill="white" x="488.5" y="1035" width="21" height="10"/>
<path d="M492.856 1036.08C493.464 1036.08 493.984 1036.18 494.416 1036.39C494.848 1036.59 495.18 1036.88 495.412 1037.27C495.652 1037.64 495.772 1038.1 495.772 1038.64C495.772 1039.17 495.652 1039.63 495.412 1040.02C495.18 1040.39 494.848 1040.68 494.416 1040.89C493.984 1041.09 493.464 1041.19 492.856 1041.19H491.188V1044H489.532V1036.08H492.856ZM492.604 1039.88C493.1 1039.88 493.472 1039.78 493.72 1039.57C493.968 1039.36 494.092 1039.04 494.092 1038.64C494.092 1038.22 493.968 1037.91 493.72 1037.7C493.472 1037.49 493.1 1037.39 492.604 1037.39H491.188V1039.88H492.604ZM495.478 1036.08H501.754V1037.34C501.09 1038 500.562 1038.69 500.17 1039.39C499.778 1040.1 499.494 1040.83 499.318 1041.59C499.15 1042.35 499.066 1043.15 499.066 1044H497.422C497.422 1043.12 497.53 1042.28 497.746 1041.47C497.97 1040.65 498.31 1039.88 498.766 1039.14C499.23 1038.4 499.818 1037.68 500.53 1037L500.866 1037.44H495.478V1036.08ZM508.678 1041.82C508.526 1042.33 508.286 1042.76 507.958 1043.1C507.63 1043.44 507.242 1043.7 506.794 1043.87C506.346 1044.04 505.854 1044.12 505.318 1044.12C504.534 1044.12 503.854 1043.96 503.278 1043.63C502.71 1043.3 502.27 1042.83 501.958 1042.22C501.654 1041.62 501.502 1040.89 501.502 1040.04C501.502 1039.19 501.654 1038.46 501.958 1037.86C502.27 1037.25 502.71 1036.78 503.278 1036.45C503.854 1036.12 504.526 1035.96 505.294 1035.96C505.838 1035.96 506.33 1036.04 506.77 1036.19C507.21 1036.33 507.582 1036.56 507.886 1036.86C508.198 1037.16 508.426 1037.55 508.57 1038.01L507.07 1038.65C506.934 1038.17 506.726 1037.83 506.446 1037.63C506.166 1037.42 505.806 1037.32 505.366 1037.32C504.934 1037.32 504.554 1037.42 504.226 1037.63C503.906 1037.84 503.658 1038.14 503.482 1038.55C503.306 1038.95 503.218 1039.45 503.218 1040.04C503.218 1040.62 503.298 1041.12 503.458 1041.53C503.626 1041.94 503.87 1042.24 504.19 1042.45C504.51 1042.66 504.902 1042.76 505.366 1042.76C505.798 1042.76 506.17 1042.65 506.482 1042.42C506.802 1042.18 507.026 1041.83 507.154 1041.36L508.678 1041.82Z"/>
</mask>
<path d="M492.856 1036.08C493.464 1036.08 493.984 1036.18 494.416 1036.39C494.848 1036.59 495.18 1036.88 495.412 1037.27C495.652 1037.64 495.772 1038.1 495.772 1038.64C495.772 1039.17 495.652 1039.63 495.412 1040.02C495.18 1040.39 494.848 1040.68 494.416 1040.89C493.984 1041.09 493.464 1041.19 492.856 1041.19H491.188V1044H489.532V1036.08H492.856ZM492.604 1039.88C493.1 1039.88 493.472 1039.78 493.72 1039.57C493.968 1039.36 494.092 1039.04 494.092 1038.64C494.092 1038.22 493.968 1037.91 493.72 1037.7C493.472 1037.49 493.1 1037.39 492.604 1037.39H491.188V1039.88H492.604ZM495.478 1036.08H501.754V1037.34C501.09 1038 500.562 1038.69 500.17 1039.39C499.778 1040.1 499.494 1040.83 499.318 1041.59C499.15 1042.35 499.066 1043.15 499.066 1044H497.422C497.422 1043.12 497.53 1042.28 497.746 1041.47C497.97 1040.65 498.31 1039.88 498.766 1039.14C499.23 1038.4 499.818 1037.68 500.53 1037L500.866 1037.44H495.478V1036.08ZM508.678 1041.82C508.526 1042.33 508.286 1042.76 507.958 1043.1C507.63 1043.44 507.242 1043.7 506.794 1043.87C506.346 1044.04 505.854 1044.12 505.318 1044.12C504.534 1044.12 503.854 1043.96 503.278 1043.63C502.71 1043.3 502.27 1042.83 501.958 1042.22C501.654 1041.62 501.502 1040.89 501.502 1040.04C501.502 1039.19 501.654 1038.46 501.958 1037.86C502.27 1037.25 502.71 1036.78 503.278 1036.45C503.854 1036.12 504.526 1035.96 505.294 1035.96C505.838 1035.96 506.33 1036.04 506.77 1036.19C507.21 1036.33 507.582 1036.56 507.886 1036.86C508.198 1037.16 508.426 1037.55 508.57 1038.01L507.07 1038.65C506.934 1038.17 506.726 1037.83 506.446 1037.63C506.166 1037.42 505.806 1037.32 505.366 1037.32C504.934 1037.32 504.554 1037.42 504.226 1037.63C503.906 1037.84 503.658 1038.14 503.482 1038.55C503.306 1038.95 503.218 1039.45 503.218 1040.04C503.218 1040.62 503.298 1041.12 503.458 1041.53C503.626 1041.94 503.87 1042.24 504.19 1042.45C504.51 1042.66 504.902 1042.76 505.366 1042.76C505.798 1042.76 506.17 1042.65 506.482 1042.42C506.802 1042.18 507.026 1041.83 507.154 1041.36L508.678 1041.82Z" fill="white"/>
<path d="M494.416 1036.39L494.199 1036.84L494.206 1036.85L494.416 1036.39ZM495.412 1037.27L494.984 1037.53L494.991 1037.54L495.412 1037.27ZM495.412 1040.02L494.988 1039.75L494.986 1039.75L495.412 1040.02ZM494.416 1040.89L494.626 1041.35L494.633 1041.34L494.416 1040.89ZM491.188 1041.19V1040.69H490.688V1041.19H491.188ZM491.188 1044V1044.5H491.688V1044H491.188ZM489.532 1044H489.032V1044.5H489.532V1044ZM489.532 1036.08V1035.58H489.032V1036.08H489.532ZM493.72 1039.57L494.041 1039.96L494.048 1039.95L493.72 1039.57ZM493.72 1037.7L494.041 1037.32L494.041 1037.32L493.72 1037.7ZM491.188 1037.39V1036.89H490.688V1037.39H491.188ZM491.188 1039.88H490.688V1040.38H491.188V1039.88ZM492.856 1036.58C493.408 1036.58 493.85 1036.67 494.199 1036.84L494.633 1035.94C494.118 1035.69 493.52 1035.58 492.856 1035.58V1036.58ZM494.206 1036.85C494.553 1037.01 494.807 1037.23 494.984 1037.53L495.84 1037.01C495.553 1036.53 495.143 1036.18 494.626 1035.94L494.206 1036.85ZM494.991 1037.54C495.17 1037.82 495.272 1038.18 495.272 1038.64H496.272C496.272 1038.02 496.134 1037.47 495.833 1037L494.991 1037.54ZM495.272 1038.64C495.272 1039.1 495.17 1039.46 494.988 1039.75L495.836 1040.28C496.134 1039.8 496.272 1039.25 496.272 1038.64H495.272ZM494.986 1039.75C494.809 1040.04 494.553 1040.27 494.199 1040.44L494.633 1041.34C495.143 1041.1 495.551 1040.74 495.838 1040.28L494.986 1039.75ZM494.206 1040.44C493.855 1040.6 493.411 1040.69 492.856 1040.69V1041.69C493.517 1041.69 494.113 1041.58 494.626 1041.35L494.206 1040.44ZM492.856 1040.69H491.188V1041.69H492.856V1040.69ZM490.688 1041.19V1044H491.688V1041.19H490.688ZM491.188 1043.5H489.532V1044.5H491.188V1043.5ZM490.032 1044V1036.08H489.032V1044H490.032ZM489.532 1036.58H492.856V1035.58H489.532V1036.58ZM492.604 1040.38C493.158 1040.38 493.666 1040.27 494.041 1039.96L493.399 1039.19C493.278 1039.29 493.042 1039.38 492.604 1039.38V1040.38ZM494.048 1039.95C494.431 1039.62 494.592 1039.15 494.592 1038.64H493.592C493.592 1038.94 493.505 1039.1 493.392 1039.19L494.048 1039.95ZM494.592 1038.64C494.592 1038.12 494.433 1037.65 494.041 1037.32L493.399 1038.08C493.503 1038.17 493.592 1038.32 493.592 1038.64H494.592ZM494.041 1037.32C493.666 1037 493.158 1036.89 492.604 1036.89V1037.89C493.042 1037.89 493.278 1037.98 493.399 1038.08L494.041 1037.32ZM492.604 1036.89H491.188V1037.89H492.604V1036.89ZM490.688 1037.39V1039.88H491.688V1037.39H490.688ZM491.188 1040.38H492.604V1039.38H491.188V1040.38ZM495.478 1036.08V1035.58H494.978V1036.08H495.478ZM501.754 1036.08H502.254V1035.58H501.754V1036.08ZM501.754 1037.34L502.107 1037.69L502.254 1037.55V1037.34H501.754ZM500.17 1039.39L500.607 1039.64L500.17 1039.39ZM499.318 1041.59L498.831 1041.48L498.83 1041.48L499.318 1041.59ZM499.066 1044V1044.5H499.566V1044H499.066ZM497.422 1044H496.922V1044.5H497.422V1044ZM497.746 1041.47L497.264 1041.34L497.263 1041.34L497.746 1041.47ZM498.766 1039.14L498.342 1038.88L498.341 1038.88L498.766 1039.14ZM500.53 1037L500.924 1036.7L500.585 1036.26L500.184 1036.64L500.53 1037ZM500.866 1037.44V1037.94H501.888L501.26 1037.13L500.866 1037.44ZM495.478 1037.44H494.978V1037.94H495.478V1037.44ZM495.478 1036.58H501.754V1035.58H495.478V1036.58ZM501.254 1036.08V1037.34H502.254V1036.08H501.254ZM501.4 1036.99C500.709 1037.68 500.151 1038.4 499.733 1039.15L500.607 1039.64C500.973 1038.98 501.471 1038.33 502.107 1037.69L501.4 1036.99ZM499.733 1039.15C499.319 1039.89 499.018 1040.67 498.831 1041.48L499.805 1041.7C499.97 1040.99 500.237 1040.3 500.607 1039.64L499.733 1039.15ZM498.83 1041.48C498.653 1042.28 498.566 1043.12 498.566 1044H499.566C499.566 1043.19 499.647 1042.42 499.806 1041.7L498.83 1041.48ZM499.066 1043.5H497.422V1044.5H499.066V1043.5ZM497.922 1044C497.922 1043.16 498.025 1042.36 498.229 1041.6L497.263 1041.34C497.035 1042.19 496.922 1043.08 496.922 1044H497.922ZM498.228 1041.6C498.439 1040.83 498.759 1040.1 499.191 1039.4L498.341 1038.88C497.86 1039.65 497.501 1040.47 497.264 1041.34L498.228 1041.6ZM499.19 1039.4C499.629 1038.7 500.19 1038.02 500.875 1037.37L500.184 1036.64C499.446 1037.35 498.83 1038.09 498.342 1038.88L499.19 1039.4ZM500.135 1037.31L500.471 1037.74L501.26 1037.13L500.924 1036.7L500.135 1037.31ZM500.866 1036.94H495.478V1037.94H500.866V1036.94ZM495.978 1037.44V1036.08H494.978V1037.44H495.978ZM508.678 1041.82L509.157 1041.96L509.299 1041.48L508.821 1041.34L508.678 1041.82ZM507.958 1043.1L508.319 1043.45L507.958 1043.1ZM506.794 1043.87L506.618 1043.4L506.794 1043.87ZM503.278 1043.63L503.028 1044.06L503.03 1044.06L503.278 1043.63ZM501.958 1042.22L501.51 1042.45L501.513 1042.45L501.958 1042.22ZM501.958 1037.86L501.513 1037.63L501.51 1037.63L501.958 1037.86ZM503.278 1036.45L503.03 1036.02L503.028 1036.02L503.278 1036.45ZM506.77 1036.19L506.606 1036.66L506.614 1036.66L506.77 1036.19ZM507.886 1036.86L507.532 1037.21L507.537 1037.22L507.886 1036.86ZM508.57 1038.01L508.765 1038.47L509.181 1038.3L509.047 1037.86L508.57 1038.01ZM507.07 1038.65L506.589 1038.78L506.743 1039.33L507.265 1039.11L507.07 1038.65ZM506.446 1037.63L506.147 1038.03L506.155 1038.03L506.446 1037.63ZM504.226 1037.63L503.958 1037.21L503.953 1037.21L504.226 1037.63ZM503.482 1038.55L503.939 1038.75L503.941 1038.75L503.482 1038.55ZM503.458 1041.53L502.992 1041.71L502.995 1041.72L503.458 1041.53ZM504.19 1042.45L504.462 1042.03L504.19 1042.45ZM506.482 1042.42L506.188 1042.01L506.183 1042.01L506.482 1042.42ZM507.154 1041.36L507.297 1040.88L506.805 1040.73L506.671 1041.23L507.154 1041.36ZM508.198 1041.67C508.066 1042.12 507.863 1042.48 507.596 1042.75L508.319 1043.45C508.709 1043.04 508.985 1042.54 509.157 1041.96L508.198 1041.67ZM507.596 1042.75C507.32 1043.04 506.996 1043.26 506.618 1043.4L506.969 1044.34C507.487 1044.14 507.939 1043.84 508.319 1043.45L507.596 1042.75ZM506.618 1043.4C506.233 1043.54 505.801 1043.62 505.318 1043.62V1044.62C505.906 1044.62 506.459 1044.53 506.969 1044.34L506.618 1043.4ZM505.318 1043.62C504.604 1043.62 504.013 1043.47 503.525 1043.19L503.03 1044.06C503.694 1044.44 504.463 1044.62 505.318 1044.62V1043.62ZM503.528 1043.2C503.047 1042.92 502.673 1042.52 502.402 1042L501.513 1042.45C501.867 1043.14 502.373 1043.68 503.028 1044.06L503.528 1043.2ZM502.405 1042C502.143 1041.48 502.002 1040.83 502.002 1040.04H501.002C501.002 1040.95 501.164 1041.76 501.51 1042.45L502.405 1042ZM502.002 1040.04C502.002 1039.25 502.143 1038.6 502.405 1038.08L501.51 1037.63C501.164 1038.32 501.002 1039.13 501.002 1040.04H502.002ZM502.402 1038.08C502.673 1037.56 503.047 1037.16 503.528 1036.88L503.028 1036.02C502.373 1036.4 501.867 1036.94 501.513 1037.63L502.402 1038.08ZM503.525 1036.89C504.014 1036.61 504.598 1036.46 505.294 1036.46V1035.46C504.453 1035.46 503.693 1035.64 503.03 1036.02L503.525 1036.89ZM505.294 1036.46C505.791 1036.46 506.227 1036.53 506.606 1036.66L506.933 1035.72C506.432 1035.54 505.884 1035.46 505.294 1035.46V1036.46ZM506.614 1036.66C506.985 1036.78 507.288 1036.97 507.532 1037.21L508.239 1036.51C507.875 1036.14 507.434 1035.88 506.925 1035.71L506.614 1036.66ZM507.537 1037.22C507.782 1037.46 507.97 1037.77 508.092 1038.16L509.047 1037.86C508.881 1037.33 508.613 1036.87 508.235 1036.5L507.537 1037.22ZM508.374 1037.55L506.874 1038.19L507.265 1039.11L508.765 1038.47L508.374 1037.55ZM507.551 1038.51C507.397 1037.97 507.142 1037.51 506.736 1037.22L506.155 1038.03C506.309 1038.14 506.47 1038.37 506.589 1038.78L507.551 1038.51ZM506.744 1037.23C506.357 1036.94 505.885 1036.82 505.366 1036.82V1037.82C505.727 1037.82 505.974 1037.9 506.147 1038.03L506.744 1037.23ZM505.366 1036.82C504.85 1036.82 504.375 1036.94 503.958 1037.21L504.493 1038.05C504.733 1037.9 505.017 1037.82 505.366 1037.82V1036.82ZM503.953 1037.21C503.538 1037.48 503.231 1037.87 503.023 1038.35L503.941 1038.75C504.084 1038.42 504.274 1038.19 504.498 1038.05L503.953 1037.21ZM503.024 1038.35C502.812 1038.83 502.718 1039.4 502.718 1040.04H503.718C503.718 1039.49 503.799 1039.07 503.939 1038.75L503.024 1038.35ZM502.718 1040.04C502.718 1040.67 502.803 1041.23 502.992 1041.71L503.923 1041.35C503.792 1041.01 503.718 1040.58 503.718 1040.04H502.718ZM502.995 1041.72C503.196 1042.21 503.499 1042.6 503.917 1042.87L504.462 1042.03C504.24 1041.89 504.056 1041.67 503.92 1041.34L502.995 1041.72ZM503.917 1042.87C504.334 1043.14 504.826 1043.26 505.366 1043.26V1042.26C504.977 1042.26 504.685 1042.18 504.462 1042.03L503.917 1042.87ZM505.366 1043.26C505.893 1043.26 506.372 1043.12 506.78 1042.82L506.183 1042.01C505.967 1042.18 505.703 1042.26 505.366 1042.26V1043.26ZM506.775 1042.82C507.208 1042.51 507.486 1042.05 507.636 1041.49L506.671 1041.23C506.566 1041.62 506.395 1041.86 506.188 1042.01L506.775 1042.82ZM507.01 1041.84L508.534 1042.3L508.821 1041.34L507.297 1040.88L507.01 1041.84Z" fill="black" mask="url(#path-8-outside-3_95_94)"/>
<path d="M502 1014.5C488.8 1016.1 482.833 1006.17 481.5 1001L472 960.5L490.5 954.5L502 1014.5Z" fill="#A24945" stroke="black" stroke-width="0.5"/>
<mask id="path-11-outside-4_95_94" maskUnits="userSpaceOnUse" x="475.5" y="974" width="20" height="10" fill="black">
<rect fill="white" x="475.5" y="974" width="20" height="10"/>
<path d="M479.856 975.08C480.464 975.08 480.984 975.184 481.416 975.392C481.848 975.592 482.18 975.884 482.412 976.268C482.652 976.644 482.772 977.1 482.772 977.636C482.772 978.172 482.652 978.632 482.412 979.016C482.18 979.392 481.848 979.684 481.416 979.892C480.984 980.092 480.464 980.192 479.856 980.192H478.188V983H476.532V975.08H479.856ZM479.604 978.884C480.1 978.884 480.472 978.78 480.72 978.572C480.968 978.356 481.092 978.044 481.092 977.636C481.092 977.22 480.968 976.908 480.72 976.7C480.472 976.492 480.1 976.388 479.604 976.388H478.188V978.884H479.604ZM482.478 975.08H488.754V976.34C488.09 977.004 487.562 977.688 487.17 978.392C486.778 979.096 486.494 979.828 486.318 980.588C486.15 981.348 486.066 982.152 486.066 983H484.422C484.422 982.12 484.53 981.276 484.746 980.468C484.97 979.652 485.31 978.876 485.766 978.14C486.23 977.396 486.818 976.684 487.53 976.004L487.866 976.436H482.478V975.08ZM494.908 976.412H490.636V978.428H494.008V979.76H490.636V983H488.98V975.08H494.908V976.412Z"/>
</mask>
<path d="M479.856 975.08C480.464 975.08 480.984 975.184 481.416 975.392C481.848 975.592 482.18 975.884 482.412 976.268C482.652 976.644 482.772 977.1 482.772 977.636C482.772 978.172 482.652 978.632 482.412 979.016C482.18 979.392 481.848 979.684 481.416 979.892C480.984 980.092 480.464 980.192 479.856 980.192H478.188V983H476.532V975.08H479.856ZM479.604 978.884C480.1 978.884 480.472 978.78 480.72 978.572C480.968 978.356 481.092 978.044 481.092 977.636C481.092 977.22 480.968 976.908 480.72 976.7C480.472 976.492 480.1 976.388 479.604 976.388H478.188V978.884H479.604ZM482.478 975.08H488.754V976.34C488.09 977.004 487.562 977.688 487.17 978.392C486.778 979.096 486.494 979.828 486.318 980.588C486.15 981.348 486.066 982.152 486.066 983H484.422C484.422 982.12 484.53 981.276 484.746 980.468C484.97 979.652 485.31 978.876 485.766 978.14C486.23 977.396 486.818 976.684 487.53 976.004L487.866 976.436H482.478V975.08ZM494.908 976.412H490.636V978.428H494.008V979.76H490.636V983H488.98V975.08H494.908V976.412Z" fill="white"/>
<path d="M481.416 975.392L481.199 975.843L481.206 975.846L481.416 975.392ZM482.412 976.268L481.984 976.527L481.991 976.537L482.412 976.268ZM482.412 979.016L481.988 978.751L481.986 978.753L482.412 979.016ZM481.416 979.892L481.626 980.346L481.633 980.343L481.416 979.892ZM478.188 980.192V979.692H477.688V980.192H478.188ZM478.188 983V983.5H478.688V983H478.188ZM476.532 983H476.032V983.5H476.532V983ZM476.532 975.08V974.58H476.032V975.08H476.532ZM480.72 978.572L481.041 978.955L481.048 978.949L480.72 978.572ZM480.72 976.7L481.041 976.317L481.041 976.317L480.72 976.7ZM478.188 976.388V975.888H477.688V976.388H478.188ZM478.188 978.884H477.688V979.384H478.188V978.884ZM479.856 975.58C480.408 975.58 480.85 975.675 481.199 975.843L481.633 974.941C481.118 974.693 480.52 974.58 479.856 974.58V975.58ZM481.206 975.846C481.553 976.007 481.807 976.233 481.984 976.527L482.84 976.009C482.553 975.535 482.143 975.177 481.626 974.938L481.206 975.846ZM481.991 976.537C482.17 976.818 482.272 977.176 482.272 977.636H483.272C483.272 977.024 483.134 976.47 482.833 975.999L481.991 976.537ZM482.272 977.636C482.272 978.096 482.17 978.46 481.988 978.751L482.836 979.281C483.134 978.804 483.272 978.248 483.272 977.636H482.272ZM481.986 978.753C481.809 979.041 481.553 979.271 481.199 979.441L481.633 980.343C482.143 980.097 482.551 979.743 482.838 979.279L481.986 978.753ZM481.206 979.438C480.855 979.601 480.411 979.692 479.856 979.692V980.692C480.517 980.692 481.113 980.583 481.626 980.346L481.206 979.438ZM479.856 979.692H478.188V980.692H479.856V979.692ZM477.688 980.192V983H478.688V980.192H477.688ZM478.188 982.5H476.532V983.5H478.188V982.5ZM477.032 983V975.08H476.032V983H477.032ZM476.532 975.58H479.856V974.58H476.532V975.58ZM479.604 979.384C480.158 979.384 480.666 979.27 481.041 978.955L480.399 978.189C480.278 978.29 480.042 978.384 479.604 978.384V979.384ZM481.048 978.949C481.431 978.616 481.592 978.151 481.592 977.636H480.592C480.592 977.937 480.505 978.096 480.392 978.195L481.048 978.949ZM481.592 977.636C481.592 977.118 481.433 976.646 481.041 976.317L480.399 977.083C480.503 977.17 480.592 977.322 480.592 977.636H481.592ZM481.041 976.317C480.666 976.002 480.158 975.888 479.604 975.888V976.888C480.042 976.888 480.278 976.982 480.399 977.083L481.041 976.317ZM479.604 975.888H478.188V976.888H479.604V975.888ZM477.688 976.388V978.884H478.688V976.388H477.688ZM478.188 979.384H479.604V978.384H478.188V979.384ZM482.478 975.08V974.58H481.978V975.08H482.478ZM488.754 975.08H489.254V974.58H488.754V975.08ZM488.754 976.34L489.107 976.694L489.254 976.547V976.34H488.754ZM487.17 978.392L487.607 978.635L487.17 978.392ZM486.318 980.588L485.831 980.475L485.83 980.48L486.318 980.588ZM486.066 983V983.5H486.566V983H486.066ZM484.422 983H483.922V983.5H484.422V983ZM484.746 980.468L484.264 980.336L484.263 980.339L484.746 980.468ZM485.766 978.14L485.342 977.875L485.341 977.877L485.766 978.14ZM487.53 976.004L487.924 975.697L487.585 975.26L487.184 975.642L487.53 976.004ZM487.866 976.436V976.936H488.888L488.26 976.129L487.866 976.436ZM482.478 976.436H481.978V976.936H482.478V976.436ZM482.478 975.58H488.754V974.58H482.478V975.58ZM488.254 975.08V976.34H489.254V975.08H488.254ZM488.4 975.986C487.709 976.678 487.151 977.398 486.733 978.149L487.607 978.635C487.973 977.978 488.471 977.33 489.107 976.694L488.4 975.986ZM486.733 978.149C486.319 978.892 486.018 979.668 485.831 980.475L486.805 980.701C486.97 979.988 487.237 979.3 487.607 978.635L486.733 978.149ZM485.83 980.48C485.653 981.279 485.566 982.119 485.566 983H486.566C486.566 982.185 486.647 981.417 486.806 980.696L485.83 980.48ZM486.066 982.5H484.422V983.5H486.066V982.5ZM484.922 983C484.922 982.161 485.025 981.361 485.229 980.597L484.263 980.339C484.035 981.191 483.922 982.079 483.922 983H484.922ZM485.228 980.6C485.439 979.832 485.759 979.1 486.191 978.403L485.341 977.877C484.86 978.652 484.501 979.472 484.264 980.336L485.228 980.6ZM486.19 978.405C486.629 977.7 487.19 977.02 487.875 976.366L487.184 975.642C486.446 976.348 485.83 977.092 485.342 977.875L486.19 978.405ZM487.135 976.311L487.471 976.743L488.26 976.129L487.924 975.697L487.135 976.311ZM487.866 975.936H482.478V976.936H487.866V975.936ZM482.978 976.436V975.08H481.978V976.436H482.978ZM494.908 976.412V976.912H495.408V976.412H494.908ZM490.636 976.412V975.912H490.136V976.412H490.636ZM490.636 978.428H490.136V978.928H490.636V978.428ZM494.008 978.428H494.508V977.928H494.008V978.428ZM494.008 979.76V980.26H494.508V979.76H494.008ZM490.636 979.76V979.26H490.136V979.76H490.636ZM490.636 983V983.5H491.136V983H490.636ZM488.98 983H488.48V983.5H488.98V983ZM488.98 975.08V974.58H488.48V975.08H488.98ZM494.908 975.08H495.408V974.58H494.908V975.08ZM494.908 975.912H490.636V976.912H494.908V975.912ZM490.136 976.412V978.428H491.136V976.412H490.136ZM490.636 978.928H494.008V977.928H490.636V978.928ZM493.508 978.428V979.76H494.508V978.428H493.508ZM494.008 979.26H490.636V980.26H494.008V979.26ZM490.136 979.76V983H491.136V979.76H490.136ZM490.636 982.5H488.98V983.5H490.636V982.5ZM489.48 983V975.08H488.48V983H489.48ZM488.98 975.58H494.908V974.58H488.98V975.58ZM494.408 975.08V976.412H495.408V975.08H494.408Z" fill="black" mask="url(#path-11-outside-4_95_94)"/>
<path d="M497 947.5C493.4 952.3 478.167 956.167 471 957.5L467.5 934L476 920.5H486.5L498 880.5C499.6 872.9 505.667 872.333 508.5 873L497 947.5Z" fill="#A24945" stroke="black" stroke-width="0.5"/>
<mask id="path-14-outside-5_95_94" maskUnits="userSpaceOnUse" x="473.5" y="931" width="21" height="10" fill="black">
<rect fill="white" x="473.5" y="931" width="21" height="10"/>
<path d="M477.856 932.08C478.464 932.08 478.984 932.184 479.416 932.392C479.848 932.592 480.18 932.884 480.412 933.268C480.652 933.644 480.772 934.1 480.772 934.636C480.772 935.172 480.652 935.632 480.412 936.016C480.18 936.392 479.848 936.684 479.416 936.892C478.984 937.092 478.464 937.192 477.856 937.192H476.188V940H474.532V932.08H477.856ZM477.604 935.884C478.1 935.884 478.472 935.78 478.72 935.572C478.968 935.356 479.092 935.044 479.092 934.636C479.092 934.22 478.968 933.908 478.72 933.7C478.472 933.492 478.1 933.388 477.604 933.388H476.188V935.884H477.604ZM480.478 932.08H486.754V933.34C486.09 934.004 485.562 934.688 485.17 935.392C484.778 936.096 484.494 936.828 484.318 937.588C484.15 938.348 484.066 939.152 484.066 940H482.422C482.422 939.12 482.53 938.276 482.746 937.468C482.97 936.652 483.31 935.876 483.766 935.14C484.23 934.396 484.818 933.684 485.53 933.004L485.866 933.436H480.478V932.08ZM490.15 940.12C489.422 940.12 488.782 939.96 488.23 939.64C487.686 939.32 487.262 938.856 486.958 938.248C486.654 937.64 486.502 936.908 486.502 936.052C486.502 935.204 486.662 934.476 486.982 933.868C487.302 933.252 487.754 932.78 488.338 932.452C488.93 932.124 489.614 931.96 490.39 931.96C491.246 931.96 491.938 932.12 492.466 932.44C492.994 932.752 493.414 933.24 493.726 933.904L492.19 934.564C492.062 934.14 491.842 933.828 491.53 933.628C491.226 933.42 490.85 933.316 490.402 933.316C489.954 933.316 489.566 933.424 489.238 933.64C488.91 933.848 488.658 934.156 488.482 934.564C488.306 934.964 488.218 935.456 488.218 936.04C488.218 936.64 488.302 937.148 488.47 937.564C488.638 937.972 488.886 938.28 489.214 938.488C489.55 938.688 489.962 938.788 490.45 938.788C490.714 938.788 490.958 938.756 491.182 938.692C491.414 938.628 491.614 938.532 491.782 938.404C491.95 938.276 492.082 938.112 492.178 937.912C492.274 937.712 492.322 937.48 492.322 937.216V937.036H490.246V935.824H493.75V940H492.586L492.466 938.272L492.754 938.476C492.578 939.004 492.266 939.412 491.818 939.7C491.378 939.98 490.822 940.12 490.15 940.12Z"/>
</mask>
<path d="M477.856 932.08C478.464 932.08 478.984 932.184 479.416 932.392C479.848 932.592 480.18 932.884 480.412 933.268C480.652 933.644 480.772 934.1 480.772 934.636C480.772 935.172 480.652 935.632 480.412 936.016C480.18 936.392 479.848 936.684 479.416 936.892C478.984 937.092 478.464 937.192 477.856 937.192H476.188V940H474.532V932.08H477.856ZM477.604 935.884C478.1 935.884 478.472 935.78 478.72 935.572C478.968 935.356 479.092 935.044 479.092 934.636C479.092 934.22 478.968 933.908 478.72 933.7C478.472 933.492 478.1 933.388 477.604 933.388H476.188V935.884H477.604ZM480.478 932.08H486.754V933.34C486.09 934.004 485.562 934.688 485.17 935.392C484.778 936.096 484.494 936.828 484.318 937.588C484.15 938.348 484.066 939.152 484.066 940H482.422C482.422 939.12 482.53 938.276 482.746 937.468C482.97 936.652 483.31 935.876 483.766 935.14C484.23 934.396 484.818 933.684 485.53 933.004L485.866 933.436H480.478V932.08ZM490.15 940.12C489.422 940.12 488.782 939.96 488.23 939.64C487.686 939.32 487.262 938.856 486.958 938.248C486.654 937.64 486.502 936.908 486.502 936.052C486.502 935.204 486.662 934.476 486.982 933.868C487.302 933.252 487.754 932.78 488.338 932.452C488.93 932.124 489.614 931.96 490.39 931.96C491.246 931.96 491.938 932.12 492.466 932.44C492.994 932.752 493.414 933.24 493.726 933.904L492.19 934.564C492.062 934.14 491.842 933.828 491.53 933.628C491.226 933.42 490.85 933.316 490.402 933.316C489.954 933.316 489.566 933.424 489.238 933.64C488.91 933.848 488.658 934.156 488.482 934.564C488.306 934.964 488.218 935.456 488.218 936.04C488.218 936.64 488.302 937.148 488.47 937.564C488.638 937.972 488.886 938.28 489.214 938.488C489.55 938.688 489.962 938.788 490.45 938.788C490.714 938.788 490.958 938.756 491.182 938.692C491.414 938.628 491.614 938.532 491.782 938.404C491.95 938.276 492.082 938.112 492.178 937.912C492.274 937.712 492.322 937.48 492.322 937.216V937.036H490.246V935.824H493.75V940H492.586L492.466 938.272L492.754 938.476C492.578 939.004 492.266 939.412 491.818 939.7C491.378 939.98 490.822 940.12 490.15 940.12Z" fill="white"/>
<path d="M479.416 932.392L479.199 932.843L479.206 932.846L479.416 932.392ZM480.412 933.268L479.984 933.527L479.991 933.537L480.412 933.268ZM480.412 936.016L479.988 935.751L479.986 935.753L480.412 936.016ZM479.416 936.892L479.626 937.346L479.633 937.343L479.416 936.892ZM476.188 937.192V936.692H475.688V937.192H476.188ZM476.188 940V940.5H476.688V940H476.188ZM474.532 940H474.032V940.5H474.532V940ZM474.532 932.08V931.58H474.032V932.08H474.532ZM478.72 935.572L479.041 935.955L479.048 935.949L478.72 935.572ZM478.72 933.7L479.041 933.317L479.041 933.317L478.72 933.7ZM476.188 933.388V932.888H475.688V933.388H476.188ZM476.188 935.884H475.688V936.384H476.188V935.884ZM477.856 932.58C478.408 932.58 478.85 932.675 479.199 932.843L479.633 931.941C479.118 931.693 478.52 931.58 477.856 931.58V932.58ZM479.206 932.846C479.553 933.007 479.807 933.233 479.984 933.527L480.84 933.009C480.553 932.535 480.143 932.177 479.626 931.938L479.206 932.846ZM479.991 933.537C480.17 933.818 480.272 934.176 480.272 934.636H481.272C481.272 934.024 481.134 933.47 480.833 932.999L479.991 933.537ZM480.272 934.636C480.272 935.096 480.17 935.46 479.988 935.751L480.836 936.281C481.134 935.804 481.272 935.248 481.272 934.636H480.272ZM479.986 935.753C479.809 936.041 479.553 936.271 479.199 936.441L479.633 937.343C480.143 937.097 480.551 936.743 480.838 936.279L479.986 935.753ZM479.206 936.438C478.855 936.601 478.411 936.692 477.856 936.692V937.692C478.517 937.692 479.113 937.583 479.626 937.346L479.206 936.438ZM477.856 936.692H476.188V937.692H477.856V936.692ZM475.688 937.192V940H476.688V937.192H475.688ZM476.188 939.5H474.532V940.5H476.188V939.5ZM475.032 940V932.08H474.032V940H475.032ZM474.532 932.58H477.856V931.58H474.532V932.58ZM477.604 936.384C478.158 936.384 478.666 936.27 479.041 935.955L478.399 935.189C478.278 935.29 478.042 935.384 477.604 935.384V936.384ZM479.048 935.949C479.431 935.616 479.592 935.151 479.592 934.636H478.592C478.592 934.937 478.505 935.096 478.392 935.195L479.048 935.949ZM479.592 934.636C479.592 934.118 479.433 933.646 479.041 933.317L478.399 934.083C478.503 934.17 478.592 934.322 478.592 934.636H479.592ZM479.041 933.317C478.666 933.002 478.158 932.888 477.604 932.888V933.888C478.042 933.888 478.278 933.982 478.399 934.083L479.041 933.317ZM477.604 932.888H476.188V933.888H477.604V932.888ZM475.688 933.388V935.884H476.688V933.388H475.688ZM476.188 936.384H477.604V935.384H476.188V936.384ZM480.478 932.08V931.58H479.978V932.08H480.478ZM486.754 932.08H487.254V931.58H486.754V932.08ZM486.754 933.34L487.107 933.694L487.254 933.547V933.34H486.754ZM485.17 935.392L485.607 935.635L485.17 935.392ZM484.318 937.588L483.831 937.475L483.83 937.48L484.318 937.588ZM484.066 940V940.5H484.566V940H484.066ZM482.422 940H481.922V940.5H482.422V940ZM482.746 937.468L482.264 937.336L482.263 937.339L482.746 937.468ZM483.766 935.14L483.342 934.875L483.341 934.877L483.766 935.14ZM485.53 933.004L485.924 932.697L485.585 932.26L485.184 932.642L485.53 933.004ZM485.866 933.436V933.936H486.888L486.26 933.129L485.866 933.436ZM480.478 933.436H479.978V933.936H480.478V933.436ZM480.478 932.58H486.754V931.58H480.478V932.58ZM486.254 932.08V933.34H487.254V932.08H486.254ZM486.4 932.986C485.709 933.678 485.151 934.398 484.733 935.149L485.607 935.635C485.973 934.978 486.471 934.33 487.107 933.694L486.4 932.986ZM484.733 935.149C484.319 935.892 484.018 936.668 483.831 937.475L484.805 937.701C484.97 936.988 485.237 936.3 485.607 935.635L484.733 935.149ZM483.83 937.48C483.653 938.279 483.566 939.119 483.566 940H484.566C484.566 939.185 484.647 938.417 484.806 937.696L483.83 937.48ZM484.066 939.5H482.422V940.5H484.066V939.5ZM482.922 940C482.922 939.161 483.025 938.361 483.229 937.597L482.263 937.339C482.035 938.191 481.922 939.079 481.922 940H482.922ZM483.228 937.6C483.439 936.832 483.759 936.1 484.191 935.403L483.341 934.877C482.86 935.652 482.501 936.472 482.264 937.336L483.228 937.6ZM484.19 935.405C484.629 934.7 485.19 934.02 485.875 933.366L485.184 932.642C484.446 933.348 483.83 934.092 483.342 934.875L484.19 935.405ZM485.135 933.311L485.471 933.743L486.26 933.129L485.924 932.697L485.135 933.311ZM485.866 932.936H480.478V933.936H485.866V932.936ZM480.978 933.436V932.08H479.978V933.436H480.978ZM488.23 939.64L487.976 940.071L487.979 940.073L488.23 939.64ZM486.958 938.248L487.405 938.024L486.958 938.248ZM486.982 933.868L487.424 934.101L487.425 934.098L486.982 933.868ZM488.338 932.452L488.095 932.015L488.093 932.016L488.338 932.452ZM492.466 932.44L492.206 932.868L492.211 932.87L492.466 932.44ZM493.726 933.904L493.923 934.363L494.398 934.159L494.178 933.691L493.726 933.904ZM492.19 934.564L491.711 934.709L491.873 935.244L492.387 935.023L492.19 934.564ZM491.53 933.628L491.247 934.041L491.253 934.045L491.26 934.049L491.53 933.628ZM489.238 933.64L489.505 934.062L489.513 934.058L489.238 933.64ZM488.482 934.564L488.939 934.765L488.941 934.762L488.482 934.564ZM488.47 937.564L488.006 937.751L488.007 937.754L488.47 937.564ZM489.214 938.488L488.946 938.91L488.958 938.918L489.214 938.488ZM491.182 938.692L491.049 938.21L491.044 938.211L491.182 938.692ZM491.782 938.404L492.085 938.802L491.782 938.404ZM492.322 937.036H492.822V936.536H492.322V937.036ZM490.246 937.036H489.746V937.536H490.246V937.036ZM490.246 935.824V935.324H489.746V935.824H490.246ZM493.75 935.824H494.25V935.324H493.75V935.824ZM493.75 940V940.5H494.25V940H493.75ZM492.586 940L492.087 940.035L492.119 940.5H492.586V940ZM492.466 938.272L492.755 937.864L491.894 937.254L491.967 938.307L492.466 938.272ZM492.754 938.476L493.228 938.634L493.345 938.282L493.043 938.068L492.754 938.476ZM491.818 939.7L492.086 940.122L492.088 940.121L491.818 939.7ZM490.15 939.62C489.497 939.62 488.946 939.477 488.48 939.207L487.979 940.073C488.617 940.443 489.346 940.62 490.15 940.62V939.62ZM488.483 939.209C488.029 938.942 487.669 938.553 487.405 938.024L486.51 938.472C486.854 939.159 487.342 939.698 487.976 940.071L488.483 939.209ZM487.405 938.024C487.143 937.501 487.002 936.85 487.002 936.052H486.002C486.002 936.966 486.164 937.779 486.51 938.472L487.405 938.024ZM487.002 936.052C487.002 935.266 487.15 934.622 487.424 934.101L486.539 933.635C486.174 934.33 486.002 935.142 486.002 936.052H487.002ZM487.425 934.098C487.702 933.566 488.087 933.166 488.582 932.888L488.093 932.016C487.421 932.394 486.901 932.938 486.538 933.638L487.425 934.098ZM488.58 932.889C489.088 932.608 489.686 932.46 490.39 932.46V931.46C489.541 931.46 488.772 931.64 488.095 932.015L488.58 932.889ZM490.39 932.46C491.188 932.46 491.781 932.61 492.206 932.868L492.725 932.012C492.094 931.63 491.303 931.46 490.39 931.46V932.46ZM492.211 932.87C492.637 933.122 492.995 933.525 493.273 934.117L494.178 933.691C493.832 932.955 493.35 932.382 492.72 932.01L492.211 932.87ZM493.528 933.445L491.992 934.105L492.387 935.023L493.923 934.363L493.528 933.445ZM492.668 934.419C492.513 933.905 492.231 933.483 491.799 933.207L491.26 934.049C491.453 934.173 491.61 934.375 491.711 934.709L492.668 934.419ZM491.812 933.215C491.408 932.939 490.928 932.816 490.402 932.816V933.816C490.771 933.816 491.043 933.901 491.247 934.041L491.812 933.215ZM490.402 932.816C489.87 932.816 489.383 932.945 488.963 933.222L489.513 934.058C489.748 933.903 490.037 933.816 490.402 933.816V932.816ZM488.97 933.218C488.545 933.487 488.232 933.879 488.023 934.366L488.941 934.762C489.083 934.433 489.274 934.209 489.505 934.062L488.97 933.218ZM488.024 934.363C487.812 934.844 487.718 935.409 487.718 936.04H488.718C488.718 935.503 488.799 935.084 488.939 934.765L488.024 934.363ZM487.718 936.04C487.718 936.684 487.807 937.259 488.006 937.751L488.933 937.377C488.796 937.037 488.718 936.596 488.718 936.04H487.718ZM488.007 937.754C488.209 938.244 488.519 938.64 488.946 938.91L489.481 938.066C489.252 937.92 489.066 937.7 488.932 937.374L488.007 937.754ZM488.958 938.918C489.388 939.174 489.894 939.288 490.45 939.288V938.288C490.03 938.288 489.711 938.202 489.469 938.058L488.958 938.918ZM490.45 939.288C490.754 939.288 491.045 939.251 491.319 939.173L491.044 938.211C490.87 938.261 490.673 938.288 490.45 938.288V939.288ZM491.315 939.174C491.6 939.095 491.859 938.973 492.085 938.802L491.479 938.006C491.368 938.091 491.228 938.161 491.049 938.21L491.315 939.174ZM492.085 938.802C492.319 938.623 492.5 938.396 492.628 938.128L491.727 937.696C491.663 937.828 491.581 937.929 491.479 938.006L492.085 938.802ZM492.628 938.128C492.762 937.849 492.822 937.541 492.822 937.216H491.822C491.822 937.419 491.785 937.575 491.727 937.696L492.628 938.128ZM492.822 937.216V937.036H491.822V937.216H492.822ZM492.322 936.536H490.246V937.536H492.322V936.536ZM490.746 937.036V935.824H489.746V937.036H490.746ZM490.246 936.324H493.75V935.324H490.246V936.324ZM493.25 935.824V940H494.25V935.824H493.25ZM493.75 939.5H492.586V940.5H493.75V939.5ZM493.084 939.965L492.964 938.237L491.967 938.307L492.087 940.035L493.084 939.965ZM492.177 938.68L492.465 938.884L493.043 938.068L492.755 937.864L492.177 938.68ZM492.279 938.318C492.138 938.743 491.895 939.056 491.547 939.279L492.088 940.121C492.636 939.768 493.018 939.265 493.228 938.634L492.279 938.318ZM491.549 939.278C491.21 939.494 490.754 939.62 490.15 939.62V940.62C490.89 940.62 491.546 940.466 492.086 940.122L491.549 939.278Z" fill="black" mask="url(#path-14-outside-5_95_94)"/>
</svg>
