<svg width="1503" height="1651" viewBox="0 0 1503 1651" fill="none" xmlns="http://www.w3.org/2000/svg">
<path d="M459 295.5L468 240L478 242.5C544 252.5 596.833 231.667 615 220C629 214.4 728.167 152.333 776 122L790.5 159C742 178 698 205 678 215.5C662 223.9 555.333 311.667 504 354.5C503 354.667 501.2 354.9 502 354.5C502.8 354.1 503 325 503 310.5C502.5 307.167 501 300.2 499 299C496.5 297.5 496 297 489 296C483.4 295.2 466.667 295.333 459 295.5Z" fill="#C30101" stroke="black" stroke-width="0.5"/>
<mask id="path-2-outside-1_95_94" maskUnits="userSpaceOnUse" x="523.5" y="280" width="38" height="10" fill="black">
<rect fill="white" x="523.5" y="280" width="38" height="10"/>
<path d="M528.024 281.08C528.92 281.08 529.624 281.296 530.136 281.728C530.648 282.16 530.904 282.74 530.904 283.468C530.904 284.244 530.648 284.84 530.136 285.256C529.624 285.664 528.924 285.868 528.036 285.868L527.868 285.964H526.164V289H524.532V281.08H528.024ZM527.832 284.704C528.296 284.704 528.64 284.612 528.864 284.428C529.096 284.236 529.212 283.944 529.212 283.552C529.212 283.16 529.096 282.872 528.864 282.688C528.64 282.496 528.296 282.4 527.832 282.4H526.164V284.704H527.832ZM528.804 285.052L531.372 289H529.512L527.388 285.532L528.804 285.052ZM534.838 280.96C535.622 280.96 536.298 281.124 536.866 281.452C537.434 281.78 537.87 282.248 538.174 282.856C538.486 283.464 538.642 284.192 538.642 285.04C538.642 285.888 538.486 286.616 538.174 287.224C537.87 287.832 537.434 288.3 536.866 288.628C536.298 288.956 535.622 289.12 534.838 289.12C534.054 289.12 533.374 288.956 532.798 288.628C532.23 288.3 531.79 287.832 531.478 287.224C531.174 286.616 531.022 285.888 531.022 285.04C531.022 284.192 531.174 283.464 531.478 282.856C531.79 282.248 532.23 281.78 532.798 281.452C533.374 281.124 534.054 280.96 534.838 280.96ZM534.838 282.316C534.39 282.316 534.01 282.42 533.698 282.628C533.386 282.836 533.146 283.144 532.978 283.552C532.818 283.952 532.738 284.448 532.738 285.04C532.738 285.624 532.818 286.12 532.978 286.528C533.146 286.936 533.386 287.244 533.698 287.452C534.01 287.66 534.39 287.764 534.838 287.764C535.278 287.764 535.654 287.66 535.966 287.452C536.278 287.244 536.514 286.936 536.674 286.528C536.842 286.12 536.926 285.624 536.926 285.04C536.926 284.448 536.842 283.952 536.674 283.552C536.514 283.144 536.278 282.836 535.966 282.628C535.654 282.42 535.278 282.316 534.838 282.316ZM545.724 281.08V285.88C545.724 286.96 545.436 287.772 544.86 288.316C544.284 288.852 543.444 289.12 542.34 289.12C541.236 289.12 540.396 288.852 539.82 288.316C539.244 287.772 538.956 286.96 538.956 285.88V281.08H540.612V285.808C540.612 286.472 540.752 286.964 541.032 287.284C541.32 287.604 541.756 287.764 542.34 287.764C542.924 287.764 543.356 287.604 543.636 287.284C543.916 286.964 544.056 286.472 544.056 285.808V281.08H545.724ZM549.684 289.12C548.956 289.12 548.316 288.96 547.764 288.64C547.22 288.32 546.796 287.856 546.492 287.248C546.188 286.64 546.036 285.908 546.036 285.052C546.036 284.204 546.196 283.476 546.516 282.868C546.836 282.252 547.288 281.78 547.872 281.452C548.464 281.124 549.148 280.96 549.924 280.96C550.78 280.96 551.472 281.12 552 281.44C552.528 281.752 552.948 282.24 553.26 282.904L551.724 283.564C551.596 283.14 551.376 282.828 551.064 282.628C550.76 282.42 550.384 282.316 549.936 282.316C549.488 282.316 549.1 282.424 548.772 282.64C548.444 282.848 548.192 283.156 548.016 283.564C547.84 283.964 547.752 284.456 547.752 285.04C547.752 285.64 547.836 286.148 548.004 286.564C548.172 286.972 548.42 287.28 548.748 287.488C549.084 287.688 549.496 287.788 549.984 287.788C550.248 287.788 550.492 287.756 550.716 287.692C550.948 287.628 551.148 287.532 551.316 287.404C551.484 287.276 551.616 287.112 551.712 286.912C551.808 286.712 551.856 286.48 551.856 286.216V286.036H549.78V284.824H553.284V289H552.12L552 287.272L552.288 287.476C552.112 288.004 551.8 288.412 551.352 288.7C550.912 288.98 550.356 289.12 549.684 289.12ZM553.904 289V281.08H559.844V282.412H555.56V284.38H558.932V285.652H555.56V287.668H560.012V289H553.904Z"/>
</mask>
<path d="M528.024 281.08C528.92 281.08 529.624 281.296 530.136 281.728C530.648 282.16 530.904 282.74 530.904 283.468C530.904 284.244 530.648 284.84 530.136 285.256C529.624 285.664 528.924 285.868 528.036 285.868L527.868 285.964H526.164V289H524.532V281.08H528.024ZM527.832 284.704C528.296 284.704 528.64 284.612 528.864 284.428C529.096 284.236 529.212 283.944 529.212 283.552C529.212 283.16 529.096 282.872 528.864 282.688C528.64 282.496 528.296 282.4 527.832 282.4H526.164V284.704H527.832ZM528.804 285.052L531.372 289H529.512L527.388 285.532L528.804 285.052ZM534.838 280.96C535.622 280.96 536.298 281.124 536.866 281.452C537.434 281.78 537.87 282.248 538.174 282.856C538.486 283.464 538.642 284.192 538.642 285.04C538.642 285.888 538.486 286.616 538.174 287.224C537.87 287.832 537.434 288.3 536.866 288.628C536.298 288.956 535.622 289.12 534.838 289.12C534.054 289.12 533.374 288.956 532.798 288.628C532.23 288.3 531.79 287.832 531.478 287.224C531.174 286.616 531.022 285.888 531.022 285.04C531.022 284.192 531.174 283.464 531.478 282.856C531.79 282.248 532.23 281.78 532.798 281.452C533.374 281.124 534.054 280.96 534.838 280.96ZM534.838 282.316C534.39 282.316 534.01 282.42 533.698 282.628C533.386 282.836 533.146 283.144 532.978 283.552C532.818 283.952 532.738 284.448 532.738 285.04C532.738 285.624 532.818 286.12 532.978 286.528C533.146 286.936 533.386 287.244 533.698 287.452C534.01 287.66 534.39 287.764 534.838 287.764C535.278 287.764 535.654 287.66 535.966 287.452C536.278 287.244 536.514 286.936 536.674 286.528C536.842 286.12 536.926 285.624 536.926 285.04C536.926 284.448 536.842 283.952 536.674 283.552C536.514 283.144 536.278 282.836 535.966 282.628C535.654 282.42 535.278 282.316 534.838 282.316ZM545.724 281.08V285.88C545.724 286.96 545.436 287.772 544.86 288.316C544.284 288.852 543.444 289.12 542.34 289.12C541.236 289.12 540.396 288.852 539.82 288.316C539.244 287.772 538.956 286.96 538.956 285.88V281.08H540.612V285.808C540.612 286.472 540.752 286.964 541.032 287.284C541.32 287.604 541.756 287.764 542.34 287.764C542.924 287.764 543.356 287.604 543.636 287.284C543.916 286.964 544.056 286.472 544.056 285.808V281.08H545.724ZM549.684 289.12C548.956 289.12 548.316 288.96 547.764 288.64C547.22 288.32 546.796 287.856 546.492 287.248C546.188 286.64 546.036 285.908 546.036 285.052C546.036 284.204 546.196 283.476 546.516 282.868C546.836 282.252 547.288 281.78 547.872 281.452C548.464 281.124 549.148 280.96 549.924 280.96C550.78 280.96 551.472 281.12 552 281.44C552.528 281.752 552.948 282.24 553.26 282.904L551.724 283.564C551.596 283.14 551.376 282.828 551.064 282.628C550.76 282.42 550.384 282.316 549.936 282.316C549.488 282.316 549.1 282.424 548.772 282.64C548.444 282.848 548.192 283.156 548.016 283.564C547.84 283.964 547.752 284.456 547.752 285.04C547.752 285.64 547.836 286.148 548.004 286.564C548.172 286.972 548.42 287.28 548.748 287.488C549.084 287.688 549.496 287.788 549.984 287.788C550.248 287.788 550.492 287.756 550.716 287.692C550.948 287.628 551.148 287.532 551.316 287.404C551.484 287.276 551.616 287.112 551.712 286.912C551.808 286.712 551.856 286.48 551.856 286.216V286.036H549.78V284.824H553.284V289H552.12L552 287.272L552.288 287.476C552.112 288.004 551.8 288.412 551.352 288.7C550.912 288.98 550.356 289.12 549.684 289.12ZM553.904 289V281.08H559.844V282.412H555.56V284.38H558.932V285.652H555.56V287.668H560.012V289H553.904Z" fill="white"/>
<path d="M530.136 281.728L529.814 282.11L529.814 282.11L530.136 281.728ZM530.136 285.256L530.448 285.647L530.451 285.644L530.136 285.256ZM528.036 285.868V285.368H527.903L527.788 285.434L528.036 285.868ZM527.868 285.964V286.464H528.001L528.116 286.398L527.868 285.964ZM526.164 285.964V285.464H525.664V285.964H526.164ZM526.164 289V289.5H526.664V289H526.164ZM524.532 289H524.032V289.5H524.532V289ZM524.532 281.08V280.58H524.032V281.08H524.532ZM528.864 284.428L529.181 284.814L529.183 284.813L528.864 284.428ZM528.864 282.688L528.539 283.068L528.546 283.074L528.553 283.08L528.864 282.688ZM526.164 282.4V281.9H525.664V282.4H526.164ZM526.164 284.704H525.664V285.204H526.164V284.704ZM528.804 285.052L529.223 284.779L529.011 284.454L528.643 284.578L528.804 285.052ZM531.372 289V289.5H532.294L531.791 288.727L531.372 289ZM529.512 289L529.086 289.261L529.232 289.5H529.512V289ZM527.388 285.532L527.227 285.058L526.635 285.259L526.962 285.793L527.388 285.532ZM528.024 281.58C528.842 281.58 529.418 281.777 529.814 282.11L530.458 281.346C529.83 280.815 528.998 280.58 528.024 280.58V281.58ZM529.814 282.11C530.202 282.438 530.404 282.873 530.404 283.468H531.404C531.404 282.607 531.094 281.882 530.458 281.346L529.814 282.11ZM530.404 283.468C530.404 284.123 530.195 284.564 529.821 284.868L530.451 285.644C531.101 285.116 531.404 284.365 531.404 283.468H530.404ZM529.824 284.865C529.428 285.181 528.851 285.368 528.036 285.368V286.368C528.997 286.368 529.82 286.147 530.448 285.647L529.824 284.865ZM527.788 285.434L527.62 285.53L528.116 286.398L528.284 286.302L527.788 285.434ZM527.868 285.464H526.164V286.464H527.868V285.464ZM525.664 285.964V289H526.664V285.964H525.664ZM526.164 288.5H524.532V289.5H526.164V288.5ZM525.032 289V281.08H524.032V289H525.032ZM524.532 281.58H528.024V280.58H524.532V281.58ZM527.832 285.204C528.347 285.204 528.828 285.105 529.181 284.814L528.547 284.042C528.452 284.119 528.245 284.204 527.832 284.204V285.204ZM529.183 284.813C529.562 284.499 529.712 284.045 529.712 283.552H528.712C528.712 283.843 528.63 283.973 528.545 284.043L529.183 284.813ZM529.712 283.552C529.712 283.061 529.563 282.604 529.175 282.296L528.553 283.08C528.629 283.14 528.712 283.259 528.712 283.552H529.712ZM529.189 282.308C528.835 282.005 528.351 281.9 527.832 281.9V282.9C528.241 282.9 528.445 282.987 528.539 283.068L529.189 282.308ZM527.832 281.9H526.164V282.9H527.832V281.9ZM525.664 282.4V284.704H526.664V282.4H525.664ZM526.164 285.204H527.832V284.204H526.164V285.204ZM528.385 285.325L530.953 289.273L531.791 288.727L529.223 284.779L528.385 285.325ZM531.372 288.5H529.512V289.5H531.372V288.5ZM529.938 288.739L527.814 285.271L526.962 285.793L529.086 289.261L529.938 288.739ZM527.549 286.006L528.965 285.526L528.643 284.578L527.227 285.058L527.549 286.006ZM536.866 281.452L537.116 281.019L536.866 281.452ZM538.174 282.856L537.727 283.08L537.729 283.084L538.174 282.856ZM538.174 287.224L537.729 286.996L537.727 287L538.174 287.224ZM536.866 288.628L537.116 289.061L536.866 288.628ZM532.798 288.628L532.548 289.061L532.551 289.062L532.798 288.628ZM531.478 287.224L531.031 287.448L531.033 287.452L531.478 287.224ZM531.478 282.856L531.033 282.628L531.031 282.632L531.478 282.856ZM532.798 281.452L532.551 281.017L532.548 281.019L532.798 281.452ZM532.978 283.552L532.516 283.362L532.514 283.366L532.978 283.552ZM532.978 286.528L532.512 286.711L532.516 286.718L532.978 286.528ZM533.698 287.452L533.975 287.036L533.698 287.452ZM535.966 287.452L536.243 287.868L535.966 287.452ZM536.674 286.528L536.212 286.338L536.208 286.345L536.674 286.528ZM536.674 283.552L536.208 283.735L536.213 283.746L536.674 283.552ZM535.966 282.628L536.243 282.212L535.966 282.628ZM534.838 281.46C535.551 281.46 536.138 281.609 536.616 281.885L537.116 281.019C536.458 280.639 535.693 280.46 534.838 280.46V281.46ZM536.616 281.885C537.096 282.162 537.465 282.556 537.727 283.08L538.621 282.632C538.275 281.94 537.772 281.398 537.116 281.019L536.616 281.885ZM537.729 283.084C537.997 283.607 538.142 284.253 538.142 285.04H539.142C539.142 284.131 538.975 283.321 538.619 282.628L537.729 283.084ZM538.142 285.04C538.142 285.827 537.997 286.473 537.729 286.996L538.619 287.452C538.975 286.759 539.142 285.949 539.142 285.04H538.142ZM537.727 287C537.465 287.524 537.096 287.918 536.616 288.195L537.116 289.061C537.772 288.682 538.275 288.14 538.621 287.448L537.727 287ZM536.616 288.195C536.138 288.471 535.551 288.62 534.838 288.62V289.62C535.693 289.62 536.458 289.441 537.116 289.061L536.616 288.195ZM534.838 288.62C534.125 288.62 533.533 288.471 533.045 288.194L532.551 289.062C533.215 289.441 533.983 289.62 534.838 289.62V288.62ZM533.048 288.195C532.567 287.917 532.193 287.522 531.923 286.996L531.033 287.452C531.387 288.142 531.893 288.683 532.548 289.061L533.048 288.195ZM531.925 287C531.663 286.477 531.522 285.829 531.522 285.04H530.522C530.522 285.947 530.684 286.755 531.031 287.448L531.925 287ZM531.522 285.04C531.522 284.251 531.663 283.603 531.925 283.08L531.031 282.632C530.684 283.325 530.522 284.133 530.522 285.04H531.522ZM531.923 283.084C532.193 282.558 532.567 282.163 533.048 281.885L532.548 281.019C531.893 281.397 531.387 281.938 531.033 282.628L531.923 283.084ZM533.045 281.886C533.533 281.609 534.125 281.46 534.838 281.46V280.46C533.983 280.46 533.215 280.639 532.551 281.018L533.045 281.886ZM534.838 281.816C534.311 281.816 533.83 281.939 533.421 282.212L533.975 283.044C534.19 282.901 534.469 282.816 534.838 282.816V281.816ZM533.421 282.212C533.012 282.484 532.715 282.878 532.516 283.362L533.44 283.742C533.577 283.41 533.76 283.188 533.975 283.044L533.421 282.212ZM532.514 283.366C532.323 283.843 532.238 284.407 532.238 285.04H533.238C533.238 284.489 533.313 284.061 533.442 283.738L532.514 283.366ZM532.238 285.04C532.238 285.667 532.323 286.229 532.512 286.711L533.443 286.345C533.312 286.011 533.238 285.581 533.238 285.04H532.238ZM532.516 286.718C532.715 287.202 533.012 287.596 533.421 287.868L533.975 287.036C533.76 286.892 533.577 286.67 533.44 286.338L532.516 286.718ZM533.421 287.868C533.83 288.141 534.311 288.264 534.838 288.264V287.264C534.469 287.264 534.19 287.179 533.975 287.036L533.421 287.868ZM534.838 288.264C535.359 288.264 535.836 288.14 536.243 287.868L535.689 287.036C535.472 287.18 535.197 287.264 534.838 287.264V288.264ZM536.243 287.868C536.654 287.594 536.949 287.197 537.139 286.711L536.208 286.345C536.079 286.675 535.902 286.894 535.689 287.036L536.243 287.868ZM537.136 286.718C537.336 286.234 537.426 285.669 537.426 285.04H536.426C536.426 285.579 536.348 286.006 536.212 286.338L537.136 286.718ZM537.426 285.04C537.426 284.404 537.336 283.838 537.135 283.358L536.213 283.746C536.348 284.066 536.426 284.492 536.426 285.04H537.426ZM537.139 283.369C536.949 282.883 536.654 282.486 536.243 282.212L535.689 283.044C535.902 283.186 536.079 283.405 536.208 283.735L537.139 283.369ZM536.243 282.212C535.836 281.94 535.359 281.816 534.838 281.816V282.816C535.197 282.816 535.472 282.9 535.689 283.044L536.243 282.212ZM545.724 281.08H546.224V280.58H545.724V281.08ZM544.86 288.316L545.201 288.682L545.204 288.68L544.86 288.316ZM539.82 288.316L539.477 288.68L539.48 288.682L539.82 288.316ZM538.956 281.08V280.58H538.456V281.08H538.956ZM540.612 281.08H541.112V280.58H540.612V281.08ZM541.032 287.284L540.656 287.613L540.661 287.618L541.032 287.284ZM543.636 287.284L544.013 287.613L543.636 287.284ZM544.056 281.08V280.58H543.556V281.08H544.056ZM545.224 281.08V285.88H546.224V281.08H545.224ZM545.224 285.88C545.224 286.874 544.961 287.533 544.517 287.952L545.204 288.68C545.912 288.011 546.224 287.046 546.224 285.88H545.224ZM544.52 287.95C544.068 288.37 543.369 288.62 542.34 288.62V289.62C543.52 289.62 544.501 289.334 545.201 288.682L544.52 287.95ZM542.34 288.62C541.312 288.62 540.613 288.37 540.161 287.95L539.48 288.682C540.18 289.334 541.161 289.62 542.34 289.62V288.62ZM540.164 287.952C539.72 287.533 539.456 286.874 539.456 285.88H538.456C538.456 287.046 538.769 288.011 539.477 288.68L540.164 287.952ZM539.456 285.88V281.08H538.456V285.88H539.456ZM538.956 281.58H540.612V280.58H538.956V281.58ZM540.112 281.08V285.808H541.112V281.08H540.112ZM540.112 285.808C540.112 286.528 540.262 287.163 540.656 287.613L541.409 286.955C541.243 286.765 541.112 286.416 541.112 285.808H540.112ZM540.661 287.618C541.074 288.078 541.667 288.264 542.34 288.264V287.264C541.845 287.264 541.567 287.13 541.404 286.95L540.661 287.618ZM542.34 288.264C543.012 288.264 543.606 288.078 544.013 287.613L543.26 286.955C543.107 287.13 542.837 287.264 542.34 287.264V288.264ZM544.013 287.613C544.407 287.163 544.556 286.528 544.556 285.808H543.556C543.556 286.416 543.426 286.765 543.26 286.955L544.013 287.613ZM544.556 285.808V281.08H543.556V285.808H544.556ZM544.056 281.58H545.724V280.58H544.056V281.58ZM547.764 288.64L547.51 289.071L547.513 289.073L547.764 288.64ZM546.492 287.248L546.939 287.024L546.492 287.248ZM546.516 282.868L546.958 283.101L546.96 283.098L546.516 282.868ZM547.872 281.452L547.63 281.015L547.627 281.016L547.872 281.452ZM552 281.44L551.741 281.868L551.746 281.87L552 281.44ZM553.26 282.904L553.457 283.363L553.932 283.159L553.713 282.691L553.26 282.904ZM551.724 283.564L551.245 283.709L551.407 284.244L551.921 284.023L551.724 283.564ZM551.064 282.628L550.782 283.041L550.788 283.045L550.794 283.049L551.064 282.628ZM548.772 282.64L549.04 283.062L549.047 283.058L548.772 282.64ZM548.016 283.564L548.474 283.765L548.475 283.762L548.016 283.564ZM548.004 286.564L547.54 286.751L547.542 286.754L548.004 286.564ZM548.748 287.488L548.48 287.91L548.492 287.918L548.748 287.488ZM550.716 287.692L550.583 287.21L550.579 287.211L550.716 287.692ZM551.316 287.404L551.619 287.802L551.316 287.404ZM551.856 286.036H552.356V285.536H551.856V286.036ZM549.78 286.036H549.28V286.536H549.78V286.036ZM549.78 284.824V284.324H549.28V284.824H549.78ZM553.284 284.824H553.784V284.324H553.284V284.824ZM553.284 289V289.5H553.784V289H553.284ZM552.12 289L551.621 289.035L551.654 289.5H552.12V289ZM552 287.272L552.289 286.864L551.428 286.254L551.501 287.307L552 287.272ZM552.288 287.476L552.762 287.634L552.88 287.282L552.577 287.068L552.288 287.476ZM551.352 288.7L551.62 289.122L551.622 289.121L551.352 288.7ZM549.684 288.62C549.031 288.62 548.48 288.477 548.015 288.207L547.513 289.073C548.152 289.443 548.881 289.62 549.684 289.62V288.62ZM548.018 288.209C547.563 287.942 547.204 287.553 546.939 287.024L546.045 287.472C546.388 288.159 546.877 288.698 547.51 289.071L548.018 288.209ZM546.939 287.024C546.678 286.501 546.536 285.85 546.536 285.052H545.536C545.536 285.966 545.698 286.779 546.045 287.472L546.939 287.024ZM546.536 285.052C546.536 284.266 546.684 283.622 546.958 283.101L546.074 282.635C545.708 283.33 545.536 284.142 545.536 285.052H546.536ZM546.96 283.098C547.237 282.566 547.621 282.166 548.117 281.888L547.627 281.016C546.955 281.394 546.435 281.938 546.072 282.638L546.96 283.098ZM548.114 281.889C548.622 281.608 549.22 281.46 549.924 281.46V280.46C549.076 280.46 548.306 280.64 547.63 281.015L548.114 281.889ZM549.924 281.46C550.722 281.46 551.316 281.61 551.741 281.868L552.259 281.012C551.628 280.63 550.838 280.46 549.924 280.46V281.46ZM551.746 281.87C552.171 282.122 552.53 282.525 552.807 283.117L553.713 282.691C553.366 281.955 552.885 281.382 552.254 281.01L551.746 281.87ZM553.063 282.445L551.527 283.105L551.921 284.023L553.457 283.363L553.063 282.445ZM552.203 283.419C552.047 282.905 551.765 282.483 551.334 282.207L550.794 283.049C550.987 283.173 551.145 283.375 551.245 283.709L552.203 283.419ZM551.346 282.215C550.943 281.939 550.463 281.816 549.936 281.816V282.816C550.305 282.816 550.577 282.901 550.782 283.041L551.346 282.215ZM549.936 281.816C549.404 281.816 548.918 281.945 548.497 282.222L549.047 283.058C549.282 282.903 549.572 282.816 549.936 282.816V281.816ZM548.504 282.218C548.08 282.487 547.767 282.879 547.557 283.366L548.475 283.762C548.617 283.433 548.808 283.209 549.04 283.062L548.504 282.218ZM547.558 283.363C547.347 283.844 547.252 284.409 547.252 285.04H548.252C548.252 284.503 548.333 284.084 548.474 283.765L547.558 283.363ZM547.252 285.04C547.252 285.684 547.342 286.259 547.54 286.751L548.468 286.377C548.33 286.037 548.252 285.596 548.252 285.04H547.252ZM547.542 286.754C547.743 287.244 548.053 287.64 548.48 287.91L549.016 287.066C548.787 286.92 548.601 286.7 548.466 286.374L547.542 286.754ZM548.492 287.918C548.923 288.174 549.428 288.288 549.984 288.288V287.288C549.564 287.288 549.245 287.202 549.004 287.058L548.492 287.918ZM549.984 288.288C550.288 288.288 550.579 288.251 550.853 288.173L550.579 287.211C550.405 287.261 550.208 287.288 549.984 287.288V288.288ZM550.849 288.174C551.134 288.095 551.394 287.973 551.619 287.802L551.013 287.006C550.902 287.091 550.762 287.161 550.583 287.21L550.849 288.174ZM551.619 287.802C551.853 287.623 552.034 287.396 552.163 287.128L551.261 286.696C551.198 286.828 551.115 286.929 551.013 287.006L551.619 287.802ZM552.163 287.128C552.297 286.849 552.356 286.541 552.356 286.216H551.356C551.356 286.419 551.319 286.575 551.261 286.696L552.163 287.128ZM552.356 286.216V286.036H551.356V286.216H552.356ZM551.856 285.536H549.78V286.536H551.856V285.536ZM550.28 286.036V284.824H549.28V286.036H550.28ZM549.78 285.324H553.284V284.324H549.78V285.324ZM552.784 284.824V289H553.784V284.824H552.784ZM553.284 288.5H552.12V289.5H553.284V288.5ZM552.619 288.965L552.499 287.237L551.501 287.307L551.621 289.035L552.619 288.965ZM551.711 287.68L551.999 287.884L552.577 287.068L552.289 286.864L551.711 287.68ZM551.814 287.318C551.672 287.743 551.429 288.056 551.082 288.279L551.622 289.121C552.171 288.768 552.552 288.265 552.762 287.634L551.814 287.318ZM551.084 288.278C550.744 288.494 550.288 288.62 549.684 288.62V289.62C550.424 289.62 551.08 289.466 551.62 289.122L551.084 288.278ZM553.904 289H553.404V289.5H553.904V289ZM553.904 281.08V280.58H553.404V281.08H553.904ZM559.844 281.08H560.344V280.58H559.844V281.08ZM559.844 282.412V282.912H560.344V282.412H559.844ZM555.56 282.412V281.912H555.06V282.412H555.56ZM555.56 284.38H555.06V284.88H555.56V284.38ZM558.932 284.38H559.432V283.88H558.932V284.38ZM558.932 285.652V286.152H559.432V285.652H558.932ZM555.56 285.652V285.152H555.06V285.652H555.56ZM555.56 287.668H555.06V288.168H555.56V287.668ZM560.012 287.668H560.512V287.168H560.012V287.668ZM560.012 289V289.5H560.512V289H560.012ZM554.404 289V281.08H553.404V289H554.404ZM553.904 281.58H559.844V280.58H553.904V281.58ZM559.344 281.08V282.412H560.344V281.08H559.344ZM559.844 281.912H555.56V282.912H559.844V281.912ZM555.06 282.412V284.38H556.06V282.412H555.06ZM555.56 284.88H558.932V283.88H555.56V284.88ZM558.432 284.38V285.652H559.432V284.38H558.432ZM558.932 285.152H555.56V286.152H558.932V285.152ZM555.06 285.652V287.668H556.06V285.652H555.06ZM555.56 288.168H560.012V287.168H555.56V288.168ZM559.512 287.668V289H560.512V287.668H559.512ZM560.012 288.5H553.904V289.5H560.012V288.5Z" fill="black" mask="url(#path-2-outside-1_95_94)"/>
<path d="M345.5 415.5L356.5 368H434.5C431.3 400 373.833 413 345.5 415.5Z" fill="#C30101" stroke="black" stroke-width="0.5"/>
<mask id="path-5-outside-2_95_94" maskUnits="userSpaceOnUse" x="370.5" y="385" width="29" height="10" fill="black">
<rect fill="white" x="370.5" y="385" width="29" height="10"/>
<path d="M371.532 394V386.08H377.472V387.412H373.188V389.38H376.56V390.652H373.188V392.668H377.64V394H371.532ZM384.382 394H382.414L380.686 391.192L378.982 394H377.086L379.81 390.004L377.278 386.08H379.222L380.818 388.744L382.438 386.08H384.238L381.694 389.944L384.382 394ZM387.726 386.08C388.334 386.08 388.854 386.184 389.286 386.392C389.718 386.592 390.05 386.884 390.282 387.268C390.522 387.644 390.642 388.1 390.642 388.636C390.642 389.172 390.522 389.632 390.282 390.016C390.05 390.392 389.718 390.684 389.286 390.892C388.854 391.092 388.334 391.192 387.726 391.192H386.058V394H384.402V386.08H387.726ZM387.474 389.884C387.97 389.884 388.342 389.78 388.59 389.572C388.838 389.356 388.962 389.044 388.962 388.636C388.962 388.22 388.838 387.908 388.59 387.7C388.342 387.492 387.97 387.388 387.474 387.388H386.058V389.884H387.474ZM394.379 385.96C395.163 385.96 395.839 386.124 396.407 386.452C396.975 386.78 397.411 387.248 397.715 387.856C398.027 388.464 398.183 389.192 398.183 390.04C398.183 390.888 398.027 391.616 397.715 392.224C397.411 392.832 396.975 393.3 396.407 393.628C395.839 393.956 395.163 394.12 394.379 394.12C393.595 394.12 392.915 393.956 392.339 393.628C391.771 393.3 391.331 392.832 391.019 392.224C390.715 391.616 390.563 390.888 390.563 390.04C390.563 389.192 390.715 388.464 391.019 387.856C391.331 387.248 391.771 386.78 392.339 386.452C392.915 386.124 393.595 385.96 394.379 385.96ZM394.379 387.316C393.931 387.316 393.551 387.42 393.239 387.628C392.927 387.836 392.687 388.144 392.519 388.552C392.359 388.952 392.279 389.448 392.279 390.04C392.279 390.624 392.359 391.12 392.519 391.528C392.687 391.936 392.927 392.244 393.239 392.452C393.551 392.66 393.931 392.764 394.379 392.764C394.819 392.764 395.195 392.66 395.507 392.452C395.819 392.244 396.055 391.936 396.215 391.528C396.383 391.12 396.467 390.624 396.467 390.04C396.467 389.448 396.383 388.952 396.215 388.552C396.055 388.144 395.819 387.836 395.507 387.628C395.195 387.42 394.819 387.316 394.379 387.316Z"/>
</mask>
<path d="M371.532 394V386.08H377.472V387.412H373.188V389.38H376.56V390.652H373.188V392.668H377.64V394H371.532ZM384.382 394H382.414L380.686 391.192L378.982 394H377.086L379.81 390.004L377.278 386.08H379.222L380.818 388.744L382.438 386.08H384.238L381.694 389.944L384.382 394ZM387.726 386.08C388.334 386.08 388.854 386.184 389.286 386.392C389.718 386.592 390.05 386.884 390.282 387.268C390.522 387.644 390.642 388.1 390.642 388.636C390.642 389.172 390.522 389.632 390.282 390.016C390.05 390.392 389.718 390.684 389.286 390.892C388.854 391.092 388.334 391.192 387.726 391.192H386.058V394H384.402V386.08H387.726ZM387.474 389.884C387.97 389.884 388.342 389.78 388.59 389.572C388.838 389.356 388.962 389.044 388.962 388.636C388.962 388.22 388.838 387.908 388.59 387.7C388.342 387.492 387.97 387.388 387.474 387.388H386.058V389.884H387.474ZM394.379 385.96C395.163 385.96 395.839 386.124 396.407 386.452C396.975 386.78 397.411 387.248 397.715 387.856C398.027 388.464 398.183 389.192 398.183 390.04C398.183 390.888 398.027 391.616 397.715 392.224C397.411 392.832 396.975 393.3 396.407 393.628C395.839 393.956 395.163 394.12 394.379 394.12C393.595 394.12 392.915 393.956 392.339 393.628C391.771 393.3 391.331 392.832 391.019 392.224C390.715 391.616 390.563 390.888 390.563 390.04C390.563 389.192 390.715 388.464 391.019 387.856C391.331 387.248 391.771 386.78 392.339 386.452C392.915 386.124 393.595 385.96 394.379 385.96ZM394.379 387.316C393.931 387.316 393.551 387.42 393.239 387.628C392.927 387.836 392.687 388.144 392.519 388.552C392.359 388.952 392.279 389.448 392.279 390.04C392.279 390.624 392.359 391.12 392.519 391.528C392.687 391.936 392.927 392.244 393.239 392.452C393.551 392.66 393.931 392.764 394.379 392.764C394.819 392.764 395.195 392.66 395.507 392.452C395.819 392.244 396.055 391.936 396.215 391.528C396.383 391.12 396.467 390.624 396.467 390.04C396.467 389.448 396.383 388.952 396.215 388.552C396.055 388.144 395.819 387.836 395.507 387.628C395.195 387.42 394.819 387.316 394.379 387.316Z" fill="white"/>
<path d="M371.532 394H371.032V394.5H371.532V394ZM371.532 386.08V385.58H371.032V386.08H371.532ZM377.472 386.08H377.972V385.58H377.472V386.08ZM377.472 387.412V387.912H377.972V387.412H377.472ZM373.188 387.412V386.912H372.688V387.412H373.188ZM373.188 389.38H372.688V389.88H373.188V389.38ZM376.56 389.38H377.06V388.88H376.56V389.38ZM376.56 390.652V391.152H377.06V390.652H376.56ZM373.188 390.652V390.152H372.688V390.652H373.188ZM373.188 392.668H372.688V393.168H373.188V392.668ZM377.64 392.668H378.14V392.168H377.64V392.668ZM377.64 394V394.5H378.14V394H377.64ZM372.032 394V386.08H371.032V394H372.032ZM371.532 386.58H377.472V385.58H371.532V386.58ZM376.972 386.08V387.412H377.972V386.08H376.972ZM377.472 386.912H373.188V387.912H377.472V386.912ZM372.688 387.412V389.38H373.688V387.412H372.688ZM373.188 389.88H376.56V388.88H373.188V389.88ZM376.06 389.38V390.652H377.06V389.38H376.06ZM376.56 390.152H373.188V391.152H376.56V390.152ZM372.688 390.652V392.668H373.688V390.652H372.688ZM373.188 393.168H377.64V392.168H373.188V393.168ZM377.14 392.668V394H378.14V392.668H377.14ZM377.64 393.5H371.532V394.5H377.64V393.5ZM384.382 394V394.5H385.313L384.799 393.724L384.382 394ZM382.414 394L381.988 394.262L382.134 394.5H382.414V394ZM380.686 391.192L381.112 390.93L380.683 390.233L380.258 390.933L380.686 391.192ZM378.982 394V394.5H379.263L379.409 394.259L378.982 394ZM377.086 394L376.673 393.718L376.14 394.5H377.086V394ZM379.81 390.004L380.223 390.286L380.41 390.012L380.23 389.733L379.81 390.004ZM377.278 386.08V385.58H376.36L376.858 386.351L377.278 386.08ZM379.222 386.08L379.651 385.823L379.505 385.58H379.222V386.08ZM380.818 388.744L380.389 389.001L380.815 389.712L381.245 389.004L380.818 388.744ZM382.438 386.08V385.58H382.157L382.011 385.82L382.438 386.08ZM384.238 386.08L384.655 386.355L385.166 385.58H384.238V386.08ZM381.694 389.944L381.276 389.669L381.095 389.945L381.277 390.22L381.694 389.944ZM384.382 393.5H382.414V394.5H384.382V393.5ZM382.84 393.738L381.112 390.93L380.26 391.454L381.988 394.262L382.84 393.738ZM380.258 390.933L378.554 393.741L379.409 394.259L381.113 391.451L380.258 390.933ZM378.982 393.5H377.086V394.5H378.982V393.5ZM377.499 394.282L380.223 390.286L379.397 389.722L376.673 393.718L377.499 394.282ZM380.23 389.733L377.698 385.809L376.858 386.351L379.39 390.275L380.23 389.733ZM377.278 386.58H379.222V385.58H377.278V386.58ZM378.793 386.337L380.389 389.001L381.247 388.487L379.651 385.823L378.793 386.337ZM381.245 389.004L382.865 386.34L382.011 385.82L380.391 388.484L381.245 389.004ZM382.438 386.58H384.238V385.58H382.438V386.58ZM383.82 385.805L381.276 389.669L382.111 390.219L384.655 386.355L383.82 385.805ZM381.277 390.22L383.965 394.276L384.799 393.724L382.111 389.668L381.277 390.22ZM389.286 386.392L389.069 386.843L389.075 386.846L389.286 386.392ZM390.282 387.268L389.853 387.527L389.86 387.537L390.282 387.268ZM390.282 390.016L389.858 389.751L389.856 389.753L390.282 390.016ZM389.286 390.892L389.496 391.346L389.502 391.343L389.286 390.892ZM386.058 391.192V390.692H385.558V391.192H386.058ZM386.058 394V394.5H386.558V394H386.058ZM384.402 394H383.902V394.5H384.402V394ZM384.402 386.08V385.58H383.902V386.08H384.402ZM388.59 389.572L388.911 389.955L388.918 389.949L388.59 389.572ZM388.59 387.7L388.911 387.317L388.911 387.317L388.59 387.7ZM386.058 387.388V386.888H385.558V387.388H386.058ZM386.058 389.884H385.558V390.384H386.058V389.884ZM387.726 386.58C388.278 386.58 388.72 386.675 389.069 386.843L389.502 385.941C388.987 385.693 388.389 385.58 387.726 385.58V386.58ZM389.075 386.846C389.423 387.007 389.676 387.233 389.854 387.527L390.709 387.009C390.423 386.535 390.012 386.177 389.496 385.938L389.075 386.846ZM389.86 387.537C390.039 387.818 390.142 388.176 390.142 388.636H391.142C391.142 388.024 391.004 387.47 390.703 386.999L389.86 387.537ZM390.142 388.636C390.142 389.096 390.039 389.46 389.858 389.751L390.706 390.281C391.004 389.804 391.142 389.248 391.142 388.636H390.142ZM389.856 389.753C389.678 390.041 389.422 390.271 389.069 390.441L389.502 391.343C390.013 391.097 390.421 390.743 390.707 390.279L389.856 389.753ZM389.075 390.438C388.725 390.601 388.28 390.692 387.726 390.692V391.692C388.387 391.692 388.982 391.583 389.496 391.346L389.075 390.438ZM387.726 390.692H386.058V391.692H387.726V390.692ZM385.558 391.192V394H386.558V391.192H385.558ZM386.058 393.5H384.402V394.5H386.058V393.5ZM384.902 394V386.08H383.902V394H384.902ZM384.402 386.58H387.726V385.58H384.402V386.58ZM387.474 390.384C388.027 390.384 388.536 390.27 388.911 389.955L388.268 389.189C388.147 389.29 387.912 389.384 387.474 389.384V390.384ZM388.918 389.949C389.3 389.616 389.462 389.151 389.462 388.636H388.462C388.462 388.937 388.375 389.096 388.261 389.195L388.918 389.949ZM389.462 388.636C389.462 388.118 389.303 387.646 388.911 387.317L388.268 388.083C388.372 388.17 388.462 388.322 388.462 388.636H389.462ZM388.911 387.317C388.536 387.002 388.027 386.888 387.474 386.888V387.888C387.912 387.888 388.147 387.982 388.268 388.083L388.911 387.317ZM387.474 386.888H386.058V387.888H387.474V386.888ZM385.558 387.388V389.884H386.558V387.388H385.558ZM386.058 390.384H387.474V389.384H386.058V390.384ZM396.407 386.452L396.657 386.019L396.407 386.452ZM397.715 387.856L397.268 388.08L397.27 388.084L397.715 387.856ZM397.715 392.224L397.27 391.996L397.268 392L397.715 392.224ZM396.407 393.628L396.657 394.061L396.407 393.628ZM392.339 393.628L392.089 394.061L392.092 394.062L392.339 393.628ZM391.019 392.224L390.572 392.448L390.574 392.452L391.019 392.224ZM391.019 387.856L390.574 387.628L390.572 387.632L391.019 387.856ZM392.339 386.452L392.092 386.017L392.089 386.019L392.339 386.452ZM392.519 388.552L392.057 388.362L392.055 388.366L392.519 388.552ZM392.519 391.528L392.054 391.711L392.057 391.718L392.519 391.528ZM393.239 392.452L393.517 392.036L393.239 392.452ZM395.507 392.452L395.785 392.868L395.507 392.452ZM396.215 391.528L395.753 391.338L395.75 391.345L396.215 391.528ZM396.215 388.552L395.75 388.735L395.754 388.746L396.215 388.552ZM395.507 387.628L395.785 387.212L395.507 387.628ZM394.379 386.46C395.093 386.46 395.679 386.609 396.157 386.885L396.657 386.019C396 385.639 395.234 385.46 394.379 385.46V386.46ZM396.157 386.885C396.637 387.162 397.006 387.556 397.268 388.08L398.163 387.632C397.816 386.94 397.313 386.398 396.657 386.019L396.157 386.885ZM397.27 388.084C397.539 388.607 397.683 389.253 397.683 390.04H398.683C398.683 389.131 398.516 388.321 398.16 387.628L397.27 388.084ZM397.683 390.04C397.683 390.827 397.539 391.473 397.27 391.996L398.16 392.452C398.516 391.759 398.683 390.949 398.683 390.04H397.683ZM397.268 392C397.006 392.524 396.637 392.918 396.157 393.195L396.657 394.061C397.313 393.682 397.816 393.14 398.163 392.448L397.268 392ZM396.157 393.195C395.679 393.471 395.093 393.62 394.379 393.62V394.62C395.234 394.62 396 394.441 396.657 394.061L396.157 393.195ZM394.379 393.62C393.666 393.62 393.075 393.471 392.587 393.194L392.092 394.062C392.756 394.441 393.525 394.62 394.379 394.62V393.62ZM392.589 393.195C392.108 392.917 391.734 392.522 391.464 391.996L390.574 392.452C390.928 393.142 391.434 393.683 392.089 394.061L392.589 393.195ZM391.467 392C391.205 391.477 391.063 390.829 391.063 390.04H390.063C390.063 390.947 390.226 391.755 390.572 392.448L391.467 392ZM391.063 390.04C391.063 389.251 391.205 388.603 391.467 388.08L390.572 387.632C390.226 388.325 390.063 389.133 390.063 390.04H391.063ZM391.464 388.084C391.734 387.558 392.108 387.163 392.589 386.885L392.089 386.019C391.434 386.397 390.928 386.938 390.574 387.628L391.464 388.084ZM392.587 386.886C393.075 386.609 393.666 386.46 394.379 386.46V385.46C393.525 385.46 392.756 385.639 392.092 386.018L392.587 386.886ZM394.379 386.816C393.852 386.816 393.371 386.939 392.962 387.212L393.517 388.044C393.732 387.901 394.011 387.816 394.379 387.816V386.816ZM392.962 387.212C392.553 387.484 392.256 387.878 392.057 388.362L392.982 388.742C393.119 388.41 393.301 388.188 393.517 388.044L392.962 387.212ZM392.055 388.366C391.864 388.843 391.779 389.407 391.779 390.04H392.779C392.779 389.489 392.854 389.061 392.984 388.738L392.055 388.366ZM391.779 390.04C391.779 390.667 391.865 391.229 392.054 391.711L392.985 391.345C392.854 391.011 392.779 390.581 392.779 390.04H391.779ZM392.057 391.718C392.256 392.202 392.553 392.596 392.962 392.868L393.517 392.036C393.301 391.892 393.119 391.67 392.982 391.338L392.057 391.718ZM392.962 392.868C393.371 393.141 393.852 393.264 394.379 393.264V392.264C394.011 392.264 393.732 392.179 393.517 392.036L392.962 392.868ZM394.379 393.264C394.901 393.264 395.377 393.14 395.785 392.868L395.23 392.036C395.014 392.18 394.738 392.264 394.379 392.264V393.264ZM395.785 392.868C396.195 392.594 396.49 392.197 396.681 391.711L395.75 391.345C395.621 391.675 395.443 391.894 395.23 392.036L395.785 392.868ZM396.678 391.718C396.877 391.234 396.967 390.669 396.967 390.04H395.967C395.967 390.579 395.89 391.006 395.753 391.338L396.678 391.718ZM396.967 390.04C396.967 389.404 396.878 388.838 396.676 388.358L395.754 388.746C395.889 389.066 395.967 389.492 395.967 390.04H396.967ZM396.681 388.369C396.49 387.883 396.195 387.486 395.785 387.212L395.23 388.044C395.443 388.186 395.621 388.405 395.75 388.735L396.681 388.369ZM395.785 387.212C395.377 386.94 394.901 386.816 394.379 386.816V387.816C394.738 387.816 395.014 387.9 395.23 388.044L395.785 387.212Z" fill="black" mask="url(#path-5-outside-2_95_94)"/>
</svg>
