<svg width="1503" height="1651" viewBox="0 0 1503 1651" fill="none" xmlns="http://www.w3.org/2000/svg">
<path d="M917.693 326.205L934.193 308.205C936.359 305.205 941.093 299.205 942.693 299.205C951.893 298.005 959.859 302.371 962.693 304.705C970.693 325.505 976.026 339.705 977.693 344.205C983.293 352.205 970.693 391.871 963.693 410.705L920.693 403.205C927.893 390.005 917.693 358.371 911.693 344.205C910.493 335.005 915.193 328.371 917.693 326.205Z" fill="#870E77" stroke="black" stroke-width="0.5"/>
<path d="M881 215L931 200C968.6 188 991 190.667 997.5 193.5C1001.33 195.667 1011.3 200 1020.5 200C1027.5 196.5 1022.5 191.5 1016 187.5C1009.5 183.5 993 174.5 976 172.5C962.4 170.9 924.333 185.833 907 193.5C897 197.667 875 207.8 867 215C859 222.2 873 218 881 215Z" fill="#870E77" stroke="black" stroke-width="0.5"/>
<mask id="path-3-outside-1_95_94" maskUnits="userSpaceOnUse" x="930.5" y="184" width="67" height="10" fill="black">
<rect fill="white" x="930.5" y="184" width="67" height="10"/>
<path d="M938.336 185.08V193H936.68V185.08H938.336ZM933.188 185.08V193H931.532V185.08H933.188ZM937.544 188.332V189.664H932.36V188.332H937.544ZM946.079 193H944.363L943.703 191.068H940.667L940.007 193H938.315L941.207 185.08H943.187L946.079 193ZM941.039 189.844H943.331L942.179 186.388L941.039 189.844ZM952.858 185.08V193H950.962L948.19 188.344L947.506 187.048H947.494L947.542 188.416V193H946.054V185.08H947.938L950.71 189.724L951.394 191.032H951.418L951.37 189.664V185.08H952.858ZM956.785 185.08C958.025 185.08 958.985 185.424 959.665 186.112C960.345 186.792 960.685 187.768 960.685 189.04C960.685 190.304 960.345 191.28 959.665 191.968C958.985 192.656 958.025 193 956.785 193H953.725V185.08H956.785ZM956.701 191.68C957.453 191.68 958.017 191.456 958.393 191.008C958.777 190.552 958.969 189.896 958.969 189.04C958.969 188.184 958.777 187.532 958.393 187.084C958.017 186.628 957.453 186.4 956.701 186.4H955.381V191.68H956.701ZM962.806 185.08V193H961.15V185.08H962.806ZM970.445 190.816C970.293 191.328 970.053 191.756 969.725 192.1C969.397 192.444 969.009 192.7 968.561 192.868C968.113 193.036 967.621 193.12 967.085 193.12C966.301 193.12 965.621 192.956 965.045 192.628C964.477 192.3 964.037 191.832 963.725 191.224C963.421 190.616 963.269 189.888 963.269 189.04C963.269 188.192 963.421 187.464 963.725 186.856C964.037 186.248 964.477 185.78 965.045 185.452C965.621 185.124 966.293 184.96 967.061 184.96C967.605 184.96 968.097 185.036 968.537 185.188C968.977 185.332 969.349 185.556 969.653 185.86C969.965 186.164 970.193 186.548 970.337 187.012L968.837 187.648C968.701 187.168 968.493 186.828 968.213 186.628C967.933 186.42 967.573 186.316 967.133 186.316C966.701 186.316 966.321 186.42 965.993 186.628C965.673 186.836 965.425 187.144 965.249 187.552C965.073 187.952 964.985 188.448 964.985 189.04C964.985 189.624 965.065 190.12 965.225 190.528C965.393 190.936 965.637 191.244 965.957 191.452C966.277 191.66 966.669 191.764 967.133 191.764C967.565 191.764 967.937 191.648 968.249 191.416C968.569 191.184 968.793 190.832 968.921 190.36L970.445 190.816ZM977.532 193H975.816L975.156 191.068H972.12L971.46 193H969.768L972.66 185.08H974.64L977.532 193ZM972.492 189.844H974.784L973.632 186.388L972.492 189.844ZM980.831 185.08C981.439 185.08 981.959 185.184 982.391 185.392C982.823 185.592 983.155 185.884 983.387 186.268C983.627 186.644 983.747 187.1 983.747 187.636C983.747 188.172 983.627 188.632 983.387 189.016C983.155 189.392 982.823 189.684 982.391 189.892C981.959 190.092 981.439 190.192 980.831 190.192H979.163V193H977.507V185.08H980.831ZM980.579 188.884C981.075 188.884 981.447 188.78 981.695 188.572C981.943 188.356 982.067 188.044 982.067 187.636C982.067 187.22 981.943 186.908 981.695 186.7C981.447 186.492 981.075 186.388 980.579 186.388H979.163V188.884H980.579ZM984.065 193V185.08H990.005V186.412H985.721V188.38H989.093V189.652H985.721V191.668H990.173V193H984.065ZM993.351 184.96C994.071 184.96 994.703 185.084 995.247 185.332C995.791 185.58 996.255 185.948 996.639 186.436L995.715 187.504C995.387 187.088 995.027 186.784 994.635 186.592C994.251 186.392 993.803 186.292 993.291 186.292C992.955 186.292 992.675 186.336 992.451 186.424C992.235 186.512 992.075 186.628 991.971 186.772C991.875 186.916 991.827 187.076 991.827 187.252C991.827 187.468 991.911 187.652 992.079 187.804C992.247 187.948 992.535 188.068 992.943 188.164L994.419 188.5C995.203 188.676 995.763 188.94 996.099 189.292C996.443 189.636 996.615 190.084 996.615 190.636C996.615 191.156 996.479 191.604 996.207 191.98C995.935 192.348 995.555 192.632 995.067 192.832C994.579 193.024 994.019 193.12 993.387 193.12C992.835 193.12 992.327 193.056 991.863 192.928C991.407 192.792 990.999 192.608 990.639 192.376C990.279 192.144 989.979 191.876 989.739 191.572L990.675 190.456C990.859 190.712 991.087 190.94 991.359 191.14C991.631 191.34 991.939 191.5 992.283 191.62C992.635 191.732 993.003 191.788 993.387 191.788C993.715 191.788 993.991 191.752 994.215 191.68C994.447 191.6 994.619 191.492 994.731 191.356C994.851 191.212 994.911 191.04 994.911 190.84C994.911 190.632 994.839 190.456 994.695 190.312C994.559 190.16 994.303 190.044 993.927 189.964L992.319 189.604C991.855 189.492 991.455 189.348 991.119 189.172C990.791 188.988 990.539 188.756 990.363 188.476C990.195 188.188 990.111 187.848 990.111 187.456C990.111 186.984 990.239 186.56 990.495 186.184C990.751 185.808 991.119 185.512 991.599 185.296C992.087 185.072 992.671 184.96 993.351 184.96Z"/>
</mask>
<path d="M938.336 185.08V193H936.68V185.08H938.336ZM933.188 185.08V193H931.532V185.08H933.188ZM937.544 188.332V189.664H932.36V188.332H937.544ZM946.079 193H944.363L943.703 191.068H940.667L940.007 193H938.315L941.207 185.08H943.187L946.079 193ZM941.039 189.844H943.331L942.179 186.388L941.039 189.844ZM952.858 185.08V193H950.962L948.19 188.344L947.506 187.048H947.494L947.542 188.416V193H946.054V185.08H947.938L950.71 189.724L951.394 191.032H951.418L951.37 189.664V185.08H952.858ZM956.785 185.08C958.025 185.08 958.985 185.424 959.665 186.112C960.345 186.792 960.685 187.768 960.685 189.04C960.685 190.304 960.345 191.28 959.665 191.968C958.985 192.656 958.025 193 956.785 193H953.725V185.08H956.785ZM956.701 191.68C957.453 191.68 958.017 191.456 958.393 191.008C958.777 190.552 958.969 189.896 958.969 189.04C958.969 188.184 958.777 187.532 958.393 187.084C958.017 186.628 957.453 186.4 956.701 186.4H955.381V191.68H956.701ZM962.806 185.08V193H961.15V185.08H962.806ZM970.445 190.816C970.293 191.328 970.053 191.756 969.725 192.1C969.397 192.444 969.009 192.7 968.561 192.868C968.113 193.036 967.621 193.12 967.085 193.12C966.301 193.12 965.621 192.956 965.045 192.628C964.477 192.3 964.037 191.832 963.725 191.224C963.421 190.616 963.269 189.888 963.269 189.04C963.269 188.192 963.421 187.464 963.725 186.856C964.037 186.248 964.477 185.78 965.045 185.452C965.621 185.124 966.293 184.96 967.061 184.96C967.605 184.96 968.097 185.036 968.537 185.188C968.977 185.332 969.349 185.556 969.653 185.86C969.965 186.164 970.193 186.548 970.337 187.012L968.837 187.648C968.701 187.168 968.493 186.828 968.213 186.628C967.933 186.42 967.573 186.316 967.133 186.316C966.701 186.316 966.321 186.42 965.993 186.628C965.673 186.836 965.425 187.144 965.249 187.552C965.073 187.952 964.985 188.448 964.985 189.04C964.985 189.624 965.065 190.12 965.225 190.528C965.393 190.936 965.637 191.244 965.957 191.452C966.277 191.66 966.669 191.764 967.133 191.764C967.565 191.764 967.937 191.648 968.249 191.416C968.569 191.184 968.793 190.832 968.921 190.36L970.445 190.816ZM977.532 193H975.816L975.156 191.068H972.12L971.46 193H969.768L972.66 185.08H974.64L977.532 193ZM972.492 189.844H974.784L973.632 186.388L972.492 189.844ZM980.831 185.08C981.439 185.08 981.959 185.184 982.391 185.392C982.823 185.592 983.155 185.884 983.387 186.268C983.627 186.644 983.747 187.1 983.747 187.636C983.747 188.172 983.627 188.632 983.387 189.016C983.155 189.392 982.823 189.684 982.391 189.892C981.959 190.092 981.439 190.192 980.831 190.192H979.163V193H977.507V185.08H980.831ZM980.579 188.884C981.075 188.884 981.447 188.78 981.695 188.572C981.943 188.356 982.067 188.044 982.067 187.636C982.067 187.22 981.943 186.908 981.695 186.7C981.447 186.492 981.075 186.388 980.579 186.388H979.163V188.884H980.579ZM984.065 193V185.08H990.005V186.412H985.721V188.38H989.093V189.652H985.721V191.668H990.173V193H984.065ZM993.351 184.96C994.071 184.96 994.703 185.084 995.247 185.332C995.791 185.58 996.255 185.948 996.639 186.436L995.715 187.504C995.387 187.088 995.027 186.784 994.635 186.592C994.251 186.392 993.803 186.292 993.291 186.292C992.955 186.292 992.675 186.336 992.451 186.424C992.235 186.512 992.075 186.628 991.971 186.772C991.875 186.916 991.827 187.076 991.827 187.252C991.827 187.468 991.911 187.652 992.079 187.804C992.247 187.948 992.535 188.068 992.943 188.164L994.419 188.5C995.203 188.676 995.763 188.94 996.099 189.292C996.443 189.636 996.615 190.084 996.615 190.636C996.615 191.156 996.479 191.604 996.207 191.98C995.935 192.348 995.555 192.632 995.067 192.832C994.579 193.024 994.019 193.12 993.387 193.12C992.835 193.12 992.327 193.056 991.863 192.928C991.407 192.792 990.999 192.608 990.639 192.376C990.279 192.144 989.979 191.876 989.739 191.572L990.675 190.456C990.859 190.712 991.087 190.94 991.359 191.14C991.631 191.34 991.939 191.5 992.283 191.62C992.635 191.732 993.003 191.788 993.387 191.788C993.715 191.788 993.991 191.752 994.215 191.68C994.447 191.6 994.619 191.492 994.731 191.356C994.851 191.212 994.911 191.04 994.911 190.84C994.911 190.632 994.839 190.456 994.695 190.312C994.559 190.16 994.303 190.044 993.927 189.964L992.319 189.604C991.855 189.492 991.455 189.348 991.119 189.172C990.791 188.988 990.539 188.756 990.363 188.476C990.195 188.188 990.111 187.848 990.111 187.456C990.111 186.984 990.239 186.56 990.495 186.184C990.751 185.808 991.119 185.512 991.599 185.296C992.087 185.072 992.671 184.96 993.351 184.96Z" fill="white"/>
<path d="M938.336 185.08H938.836V184.58H938.336V185.08ZM938.336 193V193.5H938.836V193H938.336ZM936.68 193H936.18V193.5H936.68V193ZM936.68 185.08V184.58H936.18V185.08H936.68ZM933.188 185.08H933.688V184.58H933.188V185.08ZM933.188 193V193.5H933.688V193H933.188ZM931.532 193H931.032V193.5H931.532V193ZM931.532 185.08V184.58H931.032V185.08H931.532ZM937.544 188.332H938.044V187.832H937.544V188.332ZM937.544 189.664V190.164H938.044V189.664H937.544ZM932.36 189.664H931.86V190.164H932.36V189.664ZM932.36 188.332V187.832H931.86V188.332H932.36ZM937.836 185.08V193H938.836V185.08H937.836ZM938.336 192.5H936.68V193.5H938.336V192.5ZM937.18 193V185.08H936.18V193H937.18ZM936.68 185.58H938.336V184.58H936.68V185.58ZM932.688 185.08V193H933.688V185.08H932.688ZM933.188 192.5H931.532V193.5H933.188V192.5ZM932.032 193V185.08H931.032V193H932.032ZM931.532 185.58H933.188V184.58H931.532V185.58ZM937.044 188.332V189.664H938.044V188.332H937.044ZM937.544 189.164H932.36V190.164H937.544V189.164ZM932.86 189.664V188.332H931.86V189.664H932.86ZM932.36 188.832H937.544V187.832H932.36V188.832ZM946.079 193V193.5H946.794L946.549 192.828L946.079 193ZM944.363 193L943.89 193.162L944.006 193.5H944.363V193ZM943.703 191.068L944.176 190.906L944.061 190.568H943.703V191.068ZM940.667 191.068V190.568H940.31L940.194 190.906L940.667 191.068ZM940.007 193V193.5H940.365L940.48 193.162L940.007 193ZM938.315 193L937.845 192.828L937.6 193.5H938.315V193ZM941.207 185.08V184.58H940.857L940.737 184.908L941.207 185.08ZM943.187 185.08L943.657 184.908L943.537 184.58H943.187V185.08ZM941.039 189.844L940.564 189.687L940.348 190.344H941.039V189.844ZM943.331 189.844V190.344H944.025L943.805 189.686L943.331 189.844ZM942.179 186.388L942.653 186.23L942.177 184.799L941.704 186.231L942.179 186.388ZM946.079 192.5H944.363V193.5H946.079V192.5ZM944.836 192.838L944.176 190.906L943.23 191.23L943.89 193.162L944.836 192.838ZM943.703 190.568H940.667V191.568H943.703V190.568ZM940.194 190.906L939.534 192.838L940.48 193.162L941.14 191.23L940.194 190.906ZM940.007 192.5H938.315V193.5H940.007V192.5ZM938.785 193.172L941.677 185.251L940.737 184.908L937.845 192.828L938.785 193.172ZM941.207 185.58H943.187V184.58H941.207V185.58ZM942.717 185.251L945.609 193.172L946.549 192.828L943.657 184.908L942.717 185.251ZM941.039 190.344H943.331V189.344H941.039V190.344ZM943.805 189.686L942.653 186.23L941.705 186.546L942.857 190.002L943.805 189.686ZM941.704 186.231L940.564 189.687L941.514 190.001L942.654 186.545L941.704 186.231ZM952.858 185.08H953.358V184.58H952.858V185.08ZM952.858 193V193.5H953.358V193H952.858ZM950.962 193L950.532 193.256L950.678 193.5H950.962V193ZM948.19 188.344L947.748 188.577L947.754 188.589L947.76 188.6L948.19 188.344ZM947.506 187.048L947.948 186.815L947.807 186.548H947.506V187.048ZM947.494 187.048V186.548H946.976L946.994 187.066L947.494 187.048ZM947.542 188.416H948.042V188.407L948.042 188.398L947.542 188.416ZM947.542 193V193.5H948.042V193H947.542ZM946.054 193H945.554V193.5H946.054V193ZM946.054 185.08V184.58H945.554V185.08H946.054ZM947.938 185.08L948.367 184.824L948.222 184.58H947.938V185.08ZM950.71 189.724L951.153 189.492L951.146 189.48L951.139 189.468L950.71 189.724ZM951.394 191.032L950.951 191.264L951.091 191.532H951.394V191.032ZM951.418 191.032V191.532H951.936L951.918 191.014L951.418 191.032ZM951.37 189.664H950.87V189.673L950.87 189.682L951.37 189.664ZM951.37 185.08V184.58H950.87V185.08H951.37ZM952.358 185.08V193H953.358V185.08H952.358ZM952.858 192.5H950.962V193.5H952.858V192.5ZM951.391 192.744L948.619 188.088L947.76 188.6L950.532 193.256L951.391 192.744ZM948.632 188.111L947.948 186.815L947.064 187.281L947.748 188.577L948.632 188.111ZM947.506 186.548H947.494V187.548H947.506V186.548ZM946.994 187.066L947.042 188.434L948.042 188.398L947.994 187.03L946.994 187.066ZM947.042 188.416V193H948.042V188.416H947.042ZM947.542 192.5H946.054V193.5H947.542V192.5ZM946.554 193V185.08H945.554V193H946.554ZM946.054 185.58H947.938V184.58H946.054V185.58ZM947.509 185.336L950.281 189.98L951.139 189.468L948.367 184.824L947.509 185.336ZM950.267 189.956L950.951 191.264L951.837 190.8L951.153 189.492L950.267 189.956ZM951.394 191.532H951.418V190.532H951.394V191.532ZM951.918 191.014L951.87 189.646L950.87 189.682L950.918 191.05L951.918 191.014ZM951.87 189.664V185.08H950.87V189.664H951.87ZM951.37 185.58H952.858V184.58H951.37V185.58ZM959.665 186.112L959.309 186.463L959.311 186.466L959.665 186.112ZM959.665 191.968L960.021 192.319L959.665 191.968ZM953.725 193H953.225V193.5H953.725V193ZM953.725 185.08V184.58H953.225V185.08H953.725ZM958.393 191.008L958.011 190.686L958.01 190.687L958.393 191.008ZM958.393 187.084L958.007 187.402L958.013 187.409L958.393 187.084ZM955.381 186.4V185.9H954.881V186.4H955.381ZM955.381 191.68H954.881V192.18H955.381V191.68ZM956.785 185.58C957.931 185.58 958.748 185.895 959.309 186.463L960.021 185.761C959.222 184.953 958.119 184.58 956.785 184.58V185.58ZM959.311 186.466C959.87 187.025 960.185 187.856 960.185 189.04H961.185C961.185 187.68 960.82 186.559 960.019 185.758L959.311 186.466ZM960.185 189.04C960.185 190.214 959.871 191.048 959.309 191.617L960.021 192.319C960.819 191.512 961.185 190.394 961.185 189.04H960.185ZM959.309 191.617C958.748 192.185 957.931 192.5 956.785 192.5V193.5C958.119 193.5 959.222 193.127 960.021 192.319L959.309 191.617ZM956.785 192.5H953.725V193.5H956.785V192.5ZM954.225 193V185.08H953.225V193H954.225ZM953.725 185.58H956.785V184.58H953.725V185.58ZM956.701 192.18C957.555 192.18 958.279 191.921 958.776 191.329L958.01 190.687C957.755 190.991 957.351 191.18 956.701 191.18V192.18ZM958.775 191.33C959.262 190.752 959.469 189.963 959.469 189.04H958.469C958.469 189.829 958.291 190.352 958.011 190.686L958.775 191.33ZM959.469 189.04C959.469 188.117 959.263 187.33 958.773 186.759L958.013 187.409C958.291 187.734 958.469 188.251 958.469 189.04H959.469ZM958.779 186.766C958.283 186.165 957.558 185.9 956.701 185.9V186.9C957.348 186.9 957.751 187.091 958.007 187.402L958.779 186.766ZM956.701 185.9H955.381V186.9H956.701V185.9ZM954.881 186.4V191.68H955.881V186.4H954.881ZM955.381 192.18H956.701V191.18H955.381V192.18ZM962.806 185.08H963.306V184.58H962.806V185.08ZM962.806 193V193.5H963.306V193H962.806ZM961.15 193H960.65V193.5H961.15V193ZM961.15 185.08V184.58H960.65V185.08H961.15ZM962.306 185.08V193H963.306V185.08H962.306ZM962.806 192.5H961.15V193.5H962.806V192.5ZM961.65 193V185.08H960.65V193H961.65ZM961.15 185.58H962.806V184.58H961.15V185.58ZM970.445 190.816L970.924 190.958L971.066 190.48L970.588 190.337L970.445 190.816ZM969.725 192.1L970.087 192.445L969.725 192.1ZM968.561 192.868L968.385 192.4L968.561 192.868ZM965.045 192.628L964.795 193.061L964.797 193.062L965.045 192.628ZM963.725 191.224L963.278 191.448L963.28 191.452L963.725 191.224ZM963.725 186.856L963.28 186.628L963.278 186.632L963.725 186.856ZM965.045 185.452L964.797 185.017L964.795 185.019L965.045 185.452ZM968.537 185.188L968.374 185.661L968.381 185.663L968.537 185.188ZM969.653 185.86L969.299 186.214L969.304 186.218L969.653 185.86ZM970.337 187.012L970.532 187.472L970.948 187.296L970.814 186.864L970.337 187.012ZM968.837 187.648L968.356 187.784L968.51 188.33L969.032 188.108L968.837 187.648ZM968.213 186.628L967.915 187.029L967.922 187.035L968.213 186.628ZM965.993 186.628L965.725 186.206L965.72 186.209L965.993 186.628ZM965.249 187.552L965.706 187.753L965.708 187.75L965.249 187.552ZM965.225 190.528L964.759 190.711L964.762 190.718L965.225 190.528ZM965.957 191.452L966.229 191.033L965.957 191.452ZM968.249 191.416L967.955 191.011L967.95 191.015L968.249 191.416ZM968.921 190.36L969.064 189.881L968.573 189.734L968.438 190.229L968.921 190.36ZM969.965 190.674C969.833 191.119 969.63 191.475 969.363 191.755L970.087 192.445C970.476 192.037 970.752 191.537 970.924 190.958L969.965 190.674ZM969.363 191.755C969.087 192.044 968.763 192.258 968.385 192.4L968.736 193.336C969.254 193.142 969.706 192.844 970.087 192.445L969.363 191.755ZM968.385 192.4C968 192.544 967.568 192.62 967.085 192.62V193.62C967.674 193.62 968.226 193.528 968.736 193.336L968.385 192.4ZM967.085 192.62C966.372 192.62 965.78 192.471 965.292 192.194L964.797 193.062C965.462 193.441 966.23 193.62 967.085 193.62V192.62ZM965.295 192.195C964.814 191.917 964.44 191.522 964.17 190.996L963.28 191.452C963.634 192.142 964.14 192.683 964.795 193.061L965.295 192.195ZM964.172 191C963.91 190.477 963.769 189.829 963.769 189.04H962.769C962.769 189.947 962.931 190.755 963.278 191.448L964.172 191ZM963.769 189.04C963.769 188.251 963.91 187.603 964.172 187.08L963.278 186.632C962.931 187.325 962.769 188.133 962.769 189.04H963.769ZM964.17 187.084C964.44 186.558 964.814 186.163 965.295 185.885L964.795 185.019C964.14 185.397 963.634 185.938 963.28 186.628L964.17 187.084ZM965.292 185.886C965.782 185.608 966.366 185.46 967.061 185.46V184.46C966.22 184.46 965.46 184.64 964.797 185.018L965.292 185.886ZM967.061 185.46C967.558 185.46 967.994 185.53 968.374 185.661L968.7 184.715C968.2 184.542 967.651 184.46 967.061 184.46V185.46ZM968.381 185.663C968.753 185.785 969.055 185.969 969.299 186.214L970.006 185.506C969.643 185.143 969.201 184.879 968.692 184.713L968.381 185.663ZM969.304 186.218C969.55 186.457 969.737 186.766 969.859 187.16L970.814 186.864C970.649 186.33 970.38 185.871 970.002 185.502L969.304 186.218ZM970.142 186.552L968.642 187.188L969.032 188.108L970.532 187.472L970.142 186.552ZM969.318 187.512C969.164 186.97 968.909 186.511 968.503 186.221L967.922 187.035C968.076 187.145 968.237 187.366 968.356 187.784L969.318 187.512ZM968.511 186.227C968.124 185.94 967.652 185.816 967.133 185.816V186.816C967.494 186.816 967.741 186.9 967.915 187.029L968.511 186.227ZM967.133 185.816C966.617 185.816 966.142 185.941 965.725 186.206L966.261 187.05C966.5 186.899 966.785 186.816 967.133 186.816V185.816ZM965.72 186.209C965.305 186.479 964.998 186.871 964.79 187.354L965.708 187.75C965.851 187.417 966.041 187.193 966.265 187.047L965.72 186.209ZM964.791 187.351C964.579 187.832 964.485 188.402 964.485 189.04H965.485C965.485 188.494 965.566 188.072 965.706 187.753L964.791 187.351ZM964.485 189.04C964.485 189.667 964.57 190.229 964.759 190.711L965.69 190.345C965.559 190.011 965.485 189.581 965.485 189.04H964.485ZM964.762 190.718C964.963 191.205 965.267 191.6 965.684 191.871L966.229 191.033C966.007 190.888 965.823 190.667 965.687 190.338L964.762 190.718ZM965.684 191.871C966.101 192.142 966.593 192.264 967.133 192.264V191.264C966.745 191.264 966.452 191.178 966.229 191.033L965.684 191.871ZM967.133 192.264C967.66 192.264 968.139 192.12 968.547 191.817L967.95 191.015C967.734 191.176 967.47 191.264 967.133 191.264V192.264ZM968.542 191.821C968.975 191.507 969.253 191.046 969.403 190.491L968.438 190.229C968.333 190.618 968.163 190.861 967.955 191.011L968.542 191.821ZM968.777 190.839L970.301 191.295L970.588 190.337L969.064 189.881L968.777 190.839ZM977.532 193V193.5H978.247L978.002 192.828L977.532 193ZM975.816 193L975.343 193.162L975.459 193.5H975.816V193ZM975.156 191.068L975.629 190.906L975.514 190.568H975.156V191.068ZM972.12 191.068V190.568H971.763L971.647 190.906L972.12 191.068ZM971.46 193V193.5H971.818L971.933 193.162L971.46 193ZM969.768 193L969.299 192.828L969.053 193.5H969.768V193ZM972.66 185.08V184.58H972.311L972.191 184.908L972.66 185.08ZM974.64 185.08L975.11 184.908L974.99 184.58H974.64V185.08ZM972.492 189.844L972.017 189.687L971.801 190.344H972.492V189.844ZM974.784 189.844V190.344H975.478L975.259 189.686L974.784 189.844ZM973.632 186.388L974.107 186.23L973.63 184.799L973.157 186.231L973.632 186.388ZM977.532 192.5H975.816V193.5H977.532V192.5ZM976.289 192.838L975.629 190.906L974.683 191.23L975.343 193.162L976.289 192.838ZM975.156 190.568H972.12V191.568H975.156V190.568ZM971.647 190.906L970.987 192.838L971.933 193.162L972.593 191.23L971.647 190.906ZM971.46 192.5H969.768V193.5H971.46V192.5ZM970.238 193.172L973.13 185.251L972.191 184.908L969.299 192.828L970.238 193.172ZM972.66 185.58H974.64V184.58H972.66V185.58ZM974.171 185.251L977.063 193.172L978.002 192.828L975.11 184.908L974.171 185.251ZM972.492 190.344H974.784V189.344H972.492V190.344ZM975.259 189.686L974.107 186.23L973.158 186.546L974.31 190.002L975.259 189.686ZM973.157 186.231L972.017 189.687L972.967 190.001L974.107 186.545L973.157 186.231ZM982.391 185.392L982.174 185.843L982.181 185.846L982.391 185.392ZM983.387 186.268L982.959 186.527L982.966 186.537L983.387 186.268ZM983.387 189.016L982.963 188.751L982.961 188.753L983.387 189.016ZM982.391 189.892L982.601 190.346L982.608 190.343L982.391 189.892ZM979.163 190.192V189.692H978.663V190.192H979.163ZM979.163 193V193.5H979.663V193H979.163ZM977.507 193H977.007V193.5H977.507V193ZM977.507 185.08V184.58H977.007V185.08H977.507ZM981.695 188.572L982.016 188.955L982.023 188.949L981.695 188.572ZM981.695 186.7L982.016 186.317V186.317L981.695 186.7ZM979.163 186.388V185.888H978.663V186.388H979.163ZM979.163 188.884H978.663V189.384H979.163V188.884ZM980.831 185.58C981.383 185.58 981.825 185.675 982.174 185.843L982.608 184.941C982.093 184.693 981.495 184.58 980.831 184.58V185.58ZM982.181 185.846C982.528 186.007 982.782 186.233 982.959 186.527L983.815 186.009C983.528 185.535 983.118 185.177 982.601 184.938L982.181 185.846ZM982.966 186.537C983.145 186.818 983.247 187.176 983.247 187.636H984.247C984.247 187.024 984.109 186.47 983.808 185.999L982.966 186.537ZM983.247 187.636C983.247 188.096 983.145 188.46 982.963 188.751L983.811 189.281C984.109 188.804 984.247 188.248 984.247 187.636H983.247ZM982.961 188.753C982.784 189.041 982.528 189.271 982.174 189.441L982.608 190.343C983.118 190.097 983.526 189.743 983.813 189.279L982.961 188.753ZM982.181 189.438C981.83 189.601 981.386 189.692 980.831 189.692V190.692C981.492 190.692 982.088 190.583 982.601 190.346L982.181 189.438ZM980.831 189.692H979.163V190.692H980.831V189.692ZM978.663 190.192V193H979.663V190.192H978.663ZM979.163 192.5H977.507V193.5H979.163V192.5ZM978.007 193V185.08H977.007V193H978.007ZM977.507 185.58H980.831V184.58H977.507V185.58ZM980.579 189.384C981.133 189.384 981.641 189.27 982.016 188.955L981.374 188.189C981.253 188.29 981.017 188.384 980.579 188.384V189.384ZM982.023 188.949C982.406 188.616 982.567 188.151 982.567 187.636H981.567C981.567 187.937 981.48 188.096 981.367 188.195L982.023 188.949ZM982.567 187.636C982.567 187.118 982.408 186.646 982.016 186.317L981.374 187.083C981.478 187.17 981.567 187.322 981.567 187.636H982.567ZM982.016 186.317C981.641 186.002 981.133 185.888 980.579 185.888V186.888C981.017 186.888 981.253 186.982 981.374 187.083L982.016 186.317ZM980.579 185.888H979.163V186.888H980.579V185.888ZM978.663 186.388V188.884H979.663V186.388H978.663ZM979.163 189.384H980.579V188.384H979.163V189.384ZM984.065 193H983.565V193.5H984.065V193ZM984.065 185.08V184.58H983.565V185.08H984.065ZM990.005 185.08H990.505V184.58H990.005V185.08ZM990.005 186.412V186.912H990.505V186.412H990.005ZM985.721 186.412V185.912H985.221V186.412H985.721ZM985.721 188.38H985.221V188.88H985.721V188.38ZM989.093 188.38H989.593V187.88H989.093V188.38ZM989.093 189.652V190.152H989.593V189.652H989.093ZM985.721 189.652V189.152H985.221V189.652H985.721ZM985.721 191.668H985.221V192.168H985.721V191.668ZM990.173 191.668H990.673V191.168H990.173V191.668ZM990.173 193V193.5H990.673V193H990.173ZM984.565 193V185.08H983.565V193H984.565ZM984.065 185.58H990.005V184.58H984.065V185.58ZM989.505 185.08V186.412H990.505V185.08H989.505ZM990.005 185.912H985.721V186.912H990.005V185.912ZM985.221 186.412V188.38H986.221V186.412H985.221ZM985.721 188.88H989.093V187.88H985.721V188.88ZM988.593 188.38V189.652H989.593V188.38H988.593ZM989.093 189.152H985.721V190.152H989.093V189.152ZM985.221 189.652V191.668H986.221V189.652H985.221ZM985.721 192.168H990.173V191.168H985.721V192.168ZM989.673 191.668V193H990.673V191.668H989.673ZM990.173 192.5H984.065V193.5H990.173V192.5ZM995.247 185.332L995.454 184.877L995.247 185.332ZM996.639 186.436L997.017 186.763L997.287 186.451L997.032 186.127L996.639 186.436ZM995.715 187.504L995.322 187.814L995.697 188.289L996.093 187.831L995.715 187.504ZM994.635 186.592L994.404 187.036L994.415 187.041L994.635 186.592ZM992.451 186.424L992.268 185.959L992.262 185.961L992.451 186.424ZM991.971 186.772L991.565 186.479L991.56 186.487L991.555 186.495L991.971 186.772ZM992.079 187.804L991.743 188.175L991.753 188.184L992.079 187.804ZM992.943 188.164L992.828 188.651L992.832 188.652L992.943 188.164ZM994.419 188.5L994.308 188.988L994.309 188.988L994.419 188.5ZM996.099 189.292L995.737 189.637L995.745 189.646L996.099 189.292ZM996.207 191.98L996.609 192.277L996.612 192.273L996.207 191.98ZM995.067 192.832L995.25 193.297L995.256 193.295L995.067 192.832ZM991.863 192.928L991.72 193.407L991.73 193.41L991.863 192.928ZM990.639 192.376L990.368 192.796L990.639 192.376ZM989.739 191.572L989.355 191.251L989.094 191.562L989.346 191.882L989.739 191.572ZM990.675 190.456L991.081 190.164L990.705 189.642L990.291 190.135L990.675 190.456ZM991.359 191.14L991.062 191.543L991.359 191.14ZM992.283 191.62L992.118 192.092L992.131 192.096L992.283 191.62ZM994.215 191.68L994.368 192.156L994.378 192.153L994.215 191.68ZM994.731 191.356L994.346 191.036L994.345 191.038L994.731 191.356ZM994.695 190.312L994.322 190.645L994.331 190.656L994.341 190.666L994.695 190.312ZM993.927 189.964L993.817 190.452L993.823 190.453L993.927 189.964ZM992.319 189.604L992.201 190.09L992.209 190.092L992.319 189.604ZM991.119 189.172L990.874 189.608L990.88 189.612L990.887 189.615L991.119 189.172ZM990.363 188.476L989.931 188.728L989.935 188.735L989.939 188.742L990.363 188.476ZM990.495 186.184L990.081 185.903V185.903L990.495 186.184ZM991.599 185.296L991.804 185.752L991.807 185.75L991.599 185.296ZM993.351 185.46C994.013 185.46 994.572 185.574 995.039 185.787L995.454 184.877C994.833 184.594 994.128 184.46 993.351 184.46V185.46ZM995.039 185.787C995.508 186.001 995.909 186.317 996.246 186.745L997.032 186.127C996.6 185.579 996.073 185.159 995.454 184.877L995.039 185.787ZM996.26 186.109L995.336 187.177L996.093 187.831L997.017 186.763L996.26 186.109ZM996.107 187.194C995.743 186.732 995.327 186.374 994.854 186.143L994.415 187.041C994.727 187.194 995.031 187.444 995.322 187.814L996.107 187.194ZM994.866 186.149C994.398 185.905 993.868 185.792 993.291 185.792V186.792C993.737 186.792 994.103 186.879 994.404 187.035L994.866 186.149ZM993.291 185.792C992.915 185.792 992.568 185.841 992.268 185.959L992.633 186.889C992.781 186.831 992.994 186.792 993.291 186.792V185.792ZM992.262 185.961C991.986 186.073 991.739 186.239 991.565 186.479L992.376 187.065C992.41 187.017 992.483 186.951 992.639 186.887L992.262 185.961ZM991.555 186.495C991.403 186.722 991.327 186.979 991.327 187.252H992.327C992.327 187.173 992.346 187.11 992.387 187.049L991.555 186.495ZM991.327 187.252C991.327 187.617 991.476 187.933 991.743 188.175L992.414 187.433C992.345 187.371 992.327 187.319 992.327 187.252H991.327ZM991.753 188.184C992.015 188.408 992.4 188.55 992.828 188.651L993.057 187.677C992.669 187.586 992.478 187.488 992.404 187.424L991.753 188.184ZM992.832 188.652L994.308 188.988L994.53 188.012L993.054 187.676L992.832 188.652ZM994.309 188.988C995.053 189.155 995.5 189.389 995.737 189.637L996.46 188.947C996.025 188.491 995.352 188.197 994.528 188.012L994.309 188.988ZM995.745 189.646C995.982 189.883 996.115 190.197 996.115 190.636H997.115C997.115 189.971 996.903 189.389 996.452 188.938L995.745 189.646ZM996.115 190.636C996.115 191.064 996.004 191.406 995.801 191.687L996.612 192.273C996.953 191.802 997.115 191.248 997.115 190.636H996.115ZM995.804 191.683C995.595 191.967 995.293 192.199 994.877 192.369L995.256 193.295C995.816 193.065 996.274 192.729 996.609 192.277L995.804 191.683ZM994.883 192.367C994.464 192.532 993.968 192.62 993.387 192.62V193.62C994.069 193.62 994.693 193.516 995.25 193.297L994.883 192.367ZM993.387 192.62C992.873 192.62 992.41 192.56 991.996 192.446L991.73 193.41C992.243 193.552 992.796 193.62 993.387 193.62V192.62ZM992.005 192.449C991.59 192.325 991.226 192.159 990.909 191.956L990.368 192.796C990.771 193.057 991.223 193.259 991.72 193.407L992.005 192.449ZM990.909 191.956C990.591 191.75 990.333 191.519 990.131 191.262L989.346 191.882C989.624 192.233 989.966 192.538 990.368 192.796L990.909 191.956ZM990.122 191.893L991.058 190.777L990.291 190.135L989.355 191.251L990.122 191.893ZM990.269 190.748C990.485 191.049 990.751 191.314 991.062 191.543L991.655 190.737C991.422 190.566 991.232 190.375 991.081 190.164L990.269 190.748ZM991.062 191.543C991.378 191.775 991.731 191.957 992.118 192.092L992.447 191.148C992.147 191.043 991.884 190.905 991.655 190.737L991.062 191.543ZM992.131 192.096C992.534 192.225 992.953 192.288 993.387 192.288V191.288C993.052 191.288 992.735 191.239 992.434 191.144L992.131 192.096ZM993.387 192.288C993.748 192.288 994.079 192.249 994.368 192.156L994.062 191.204C993.902 191.255 993.681 191.288 993.387 191.288V192.288ZM994.378 192.153C994.664 192.054 994.927 191.904 995.117 191.674L994.345 191.038C994.31 191.08 994.229 191.146 994.052 191.207L994.378 192.153ZM995.115 191.676C995.315 191.436 995.411 191.149 995.411 190.84H994.411C994.411 190.931 994.386 190.988 994.346 191.036L995.115 191.676ZM995.411 190.84C995.411 190.503 995.288 190.198 995.048 189.958L994.341 190.666C994.389 190.714 994.411 190.761 994.411 190.84H995.411ZM995.067 189.979C994.821 189.703 994.432 189.56 994.031 189.475L993.823 190.453C994.174 190.528 994.296 190.617 994.322 190.645L995.067 189.979ZM994.036 189.476L992.428 189.116L992.209 190.092L993.817 190.452L994.036 189.476ZM992.436 189.118C992.002 189.013 991.642 188.882 991.351 188.729L990.887 189.615C991.267 189.814 991.707 189.971 992.201 190.09L992.436 189.118ZM991.363 188.736C991.098 188.587 990.912 188.41 990.786 188.21L989.939 188.742C990.165 189.102 990.483 189.389 990.874 189.608L991.363 188.736ZM990.794 188.224C990.678 188.025 990.611 187.775 990.611 187.456H989.611C989.611 187.921 989.711 188.351 989.931 188.728L990.794 188.224ZM990.611 187.456C990.611 187.08 990.711 186.755 990.908 186.465L990.081 185.903C989.767 186.365 989.611 186.888 989.611 187.456H990.611ZM990.908 186.465C991.104 186.177 991.394 185.936 991.804 185.752L991.393 184.84C990.843 185.088 990.397 185.439 990.081 185.903L990.908 186.465ZM991.807 185.75C992.215 185.563 992.724 185.46 993.351 185.46V184.46C992.617 184.46 991.958 184.581 991.39 184.842L991.807 185.75Z" fill="black" mask="url(#path-3-outside-1_95_94)"/>
<mask id="path-5-outside-2_95_94" maskUnits="userSpaceOnUse" x="938.5" y="366" width="19" height="10" fill="black">
<rect fill="white" x="938.5" y="366" width="19" height="10"/>
<path d="M947.372 367.08L944.492 375H942.56L939.668 367.08H941.42L943.088 372.12L943.544 373.68L943.988 372.132L945.668 367.08H947.372ZM949.027 367.08V375H947.371V367.08H949.027ZM953.21 367.08C953.818 367.08 954.338 367.184 954.77 367.392C955.202 367.592 955.534 367.884 955.766 368.268C956.006 368.644 956.126 369.1 956.126 369.636C956.126 370.172 956.006 370.632 955.766 371.016C955.534 371.392 955.202 371.684 954.77 371.892C954.338 372.092 953.818 372.192 953.21 372.192H951.542V375H949.886V367.08H953.21ZM952.958 370.884C953.454 370.884 953.826 370.78 954.074 370.572C954.322 370.356 954.446 370.044 954.446 369.636C954.446 369.22 954.322 368.908 954.074 368.7C953.826 368.492 953.454 368.388 952.958 368.388H951.542V370.884H952.958Z"/>
</mask>
<path d="M947.372 367.08L944.492 375H942.56L939.668 367.08H941.42L943.088 372.12L943.544 373.68L943.988 372.132L945.668 367.08H947.372ZM949.027 367.08V375H947.371V367.08H949.027ZM953.21 367.08C953.818 367.08 954.338 367.184 954.77 367.392C955.202 367.592 955.534 367.884 955.766 368.268C956.006 368.644 956.126 369.1 956.126 369.636C956.126 370.172 956.006 370.632 955.766 371.016C955.534 371.392 955.202 371.684 954.77 371.892C954.338 372.092 953.818 372.192 953.21 372.192H951.542V375H949.886V367.08H953.21ZM952.958 370.884C953.454 370.884 953.826 370.78 954.074 370.572C954.322 370.356 954.446 370.044 954.446 369.636C954.446 369.22 954.322 368.908 954.074 368.7C953.826 368.492 953.454 368.388 952.958 368.388H951.542V370.884H952.958Z" fill="white"/>
<path d="M947.372 367.08L947.842 367.251L948.086 366.58H947.372V367.08ZM944.492 375V375.5H944.842L944.962 375.171L944.492 375ZM942.56 375L942.09 375.172L942.21 375.5H942.56V375ZM939.668 367.08V366.58H938.953L939.198 367.251L939.668 367.08ZM941.42 367.08L941.895 366.923L941.781 366.58H941.42V367.08ZM943.088 372.12L943.568 371.98L943.565 371.971L943.563 371.963L943.088 372.12ZM943.544 373.68L943.064 373.82L943.549 375.478L944.025 373.818L943.544 373.68ZM943.988 372.132L943.514 371.974L943.51 371.984L943.507 371.994L943.988 372.132ZM945.668 367.08V366.58H945.307L945.194 366.922L945.668 367.08ZM946.902 366.909L944.022 374.829L944.962 375.171L947.842 367.251L946.902 366.909ZM944.492 374.5H942.56V375.5H944.492V374.5ZM943.03 374.828L940.138 366.908L939.198 367.251L942.09 375.172L943.03 374.828ZM939.668 367.58H941.42V366.58H939.668V367.58ZM940.945 367.237L942.613 372.277L943.563 371.963L941.895 366.923L940.945 367.237ZM942.608 372.26L943.064 373.82L944.024 373.54L943.568 371.98L942.608 372.26ZM944.025 373.818L944.469 372.27L943.507 371.994L943.063 373.542L944.025 373.818ZM944.462 372.29L946.142 367.238L945.194 366.922L943.514 371.974L944.462 372.29ZM945.668 367.58H947.372V366.58H945.668V367.58ZM949.027 367.08H949.527V366.58H949.027V367.08ZM949.027 375V375.5H949.527V375H949.027ZM947.371 375H946.871V375.5H947.371V375ZM947.371 367.08V366.58H946.871V367.08H947.371ZM948.527 367.08V375H949.527V367.08H948.527ZM949.027 374.5H947.371V375.5H949.027V374.5ZM947.871 375V367.08H946.871V375H947.871ZM947.371 367.58H949.027V366.58H947.371V367.58ZM954.77 367.392L954.553 367.843L954.56 367.846L954.77 367.392ZM955.766 368.268L955.338 368.527L955.344 368.537L955.766 368.268ZM955.766 371.016L955.342 370.751L955.34 370.753L955.766 371.016ZM954.77 371.892L954.98 372.346L954.987 372.343L954.77 371.892ZM951.542 372.192V371.692H951.042V372.192H951.542ZM951.542 375V375.5H952.042V375H951.542ZM949.886 375H949.386V375.5H949.886V375ZM949.886 367.08V366.58H949.386V367.08H949.886ZM954.074 370.572L954.395 370.955L954.402 370.949L954.074 370.572ZM954.074 368.7L954.395 368.317V368.317L954.074 368.7ZM951.542 368.388V367.888H951.042V368.388H951.542ZM951.542 370.884H951.042V371.384H951.542V370.884ZM953.21 367.58C953.762 367.58 954.204 367.675 954.553 367.843L954.987 366.941C954.472 366.693 953.873 366.58 953.21 366.58V367.58ZM954.56 367.846C954.907 368.007 955.161 368.233 955.338 368.527L956.194 368.009C955.907 367.535 955.497 367.177 954.98 366.938L954.56 367.846ZM955.344 368.537C955.524 368.818 955.626 369.176 955.626 369.636H956.626C956.626 369.024 956.488 368.47 956.187 367.999L955.344 368.537ZM955.626 369.636C955.626 370.096 955.524 370.46 955.342 370.751L956.19 371.281C956.488 370.804 956.626 370.248 956.626 369.636H955.626ZM955.34 370.753C955.163 371.041 954.907 371.271 954.553 371.441L954.987 372.343C955.497 372.097 955.905 371.743 956.191 371.279L955.34 370.753ZM954.56 371.438C954.209 371.601 953.765 371.692 953.21 371.692V372.692C953.871 372.692 954.467 372.583 954.98 372.346L954.56 371.438ZM953.21 371.692H951.542V372.692H953.21V371.692ZM951.042 372.192V375H952.042V372.192H951.042ZM951.542 374.5H949.886V375.5H951.542V374.5ZM950.386 375V367.08H949.386V375H950.386ZM949.886 367.58H953.21V366.58H949.886V367.58ZM952.958 371.384C953.512 371.384 954.02 371.27 954.395 370.955L953.753 370.189C953.632 370.29 953.396 370.384 952.958 370.384V371.384ZM954.402 370.949C954.785 370.616 954.946 370.151 954.946 369.636H953.946C953.946 369.937 953.859 370.096 953.746 370.195L954.402 370.949ZM954.946 369.636C954.946 369.118 954.787 368.646 954.395 368.317L953.753 369.083C953.857 369.17 953.946 369.322 953.946 369.636H954.946ZM954.395 368.317C954.02 368.002 953.512 367.888 952.958 367.888V368.888C953.396 368.888 953.632 368.982 953.753 369.083L954.395 368.317ZM952.958 367.888H951.542V368.888H952.958V367.888ZM951.042 368.388V370.884H952.042V368.388H951.042ZM951.542 371.384H952.958V370.384H951.542V371.384Z" fill="black" mask="url(#path-5-outside-2_95_94)"/>
</svg>
