<svg width="1503" height="1651" viewBox="0 0 1503 1651" fill="none" xmlns="http://www.w3.org/2000/svg">
<path d="M287.5 946L361 800.5L378 807C366.4 893 378.833 940.833 386.5 954C395.7 975.6 400.333 999 401.5 1008L287.5 946Z" fill="#095888" stroke="black" stroke-width="0.5"/>
<mask id="path-2-outside-1_95_94" maskUnits="userSpaceOnUse" x="326.5" y="923" width="36" height="10" fill="black">
<rect fill="white" x="326.5" y="923" width="36" height="10"/>
<path d="M327.532 932V924.08H331C331.96 924.08 332.668 924.268 333.124 924.644C333.58 925.02 333.808 925.552 333.808 926.24C333.808 926.664 333.68 927.04 333.424 927.368C333.168 927.696 332.792 927.904 332.296 927.992V928.004C332.848 928.084 333.272 928.292 333.568 928.628C333.864 928.964 334.012 929.364 334.012 929.828C334.012 930.508 333.764 931.04 333.268 931.424C332.78 931.808 332.064 932 331.12 932H327.532ZM329.14 930.752H330.976C331.424 930.752 331.756 930.66 331.972 930.476C332.188 930.292 332.296 930.036 332.296 929.708C332.296 929.372 332.188 929.116 331.972 928.94C331.756 928.764 331.424 928.676 330.976 928.676H329.14V930.752ZM329.14 927.404H330.784C331.656 927.404 332.092 927.064 332.092 926.384C332.092 925.704 331.656 925.364 330.784 925.364H329.14V927.404ZM336.051 930.668H340.227V932H334.395V924.08H336.051V930.668ZM347.278 932H345.562L344.902 930.068H341.866L341.206 932H339.514L342.406 924.08H344.386L347.278 932ZM342.238 928.844H344.53L343.378 925.388L342.238 928.844ZM354.056 924.08V932H352.16L349.388 927.344L348.704 926.048H348.692L348.74 927.416V932H347.252V924.08H349.136L351.908 928.724L352.592 930.032H352.616L352.568 928.664V924.08H354.056ZM361.703 929.816C361.551 930.328 361.311 930.756 360.983 931.1C360.655 931.444 360.267 931.7 359.819 931.868C359.371 932.036 358.879 932.12 358.343 932.12C357.559 932.12 356.879 931.956 356.303 931.628C355.735 931.3 355.295 930.832 354.983 930.224C354.679 929.616 354.527 928.888 354.527 928.04C354.527 927.192 354.679 926.464 354.983 925.856C355.295 925.248 355.735 924.78 356.303 924.452C356.879 924.124 357.551 923.96 358.319 923.96C358.863 923.96 359.355 924.036 359.795 924.188C360.235 924.332 360.607 924.556 360.911 924.86C361.223 925.164 361.451 925.548 361.595 926.012L360.095 926.648C359.959 926.168 359.751 925.828 359.471 925.628C359.191 925.42 358.831 925.316 358.391 925.316C357.959 925.316 357.579 925.42 357.251 925.628C356.931 925.836 356.683 926.144 356.507 926.552C356.331 926.952 356.243 927.448 356.243 928.04C356.243 928.624 356.323 929.12 356.483 929.528C356.651 929.936 356.895 930.244 357.215 930.452C357.535 930.66 357.927 930.764 358.391 930.764C358.823 930.764 359.195 930.648 359.507 930.416C359.827 930.184 360.051 929.832 360.179 929.36L361.703 929.816Z"/>
</mask>
<path d="M327.532 932V924.08H331C331.96 924.08 332.668 924.268 333.124 924.644C333.58 925.02 333.808 925.552 333.808 926.24C333.808 926.664 333.68 927.04 333.424 927.368C333.168 927.696 332.792 927.904 332.296 927.992V928.004C332.848 928.084 333.272 928.292 333.568 928.628C333.864 928.964 334.012 929.364 334.012 929.828C334.012 930.508 333.764 931.04 333.268 931.424C332.78 931.808 332.064 932 331.12 932H327.532ZM329.14 930.752H330.976C331.424 930.752 331.756 930.66 331.972 930.476C332.188 930.292 332.296 930.036 332.296 929.708C332.296 929.372 332.188 929.116 331.972 928.94C331.756 928.764 331.424 928.676 330.976 928.676H329.14V930.752ZM329.14 927.404H330.784C331.656 927.404 332.092 927.064 332.092 926.384C332.092 925.704 331.656 925.364 330.784 925.364H329.14V927.404ZM336.051 930.668H340.227V932H334.395V924.08H336.051V930.668ZM347.278 932H345.562L344.902 930.068H341.866L341.206 932H339.514L342.406 924.08H344.386L347.278 932ZM342.238 928.844H344.53L343.378 925.388L342.238 928.844ZM354.056 924.08V932H352.16L349.388 927.344L348.704 926.048H348.692L348.74 927.416V932H347.252V924.08H349.136L351.908 928.724L352.592 930.032H352.616L352.568 928.664V924.08H354.056ZM361.703 929.816C361.551 930.328 361.311 930.756 360.983 931.1C360.655 931.444 360.267 931.7 359.819 931.868C359.371 932.036 358.879 932.12 358.343 932.12C357.559 932.12 356.879 931.956 356.303 931.628C355.735 931.3 355.295 930.832 354.983 930.224C354.679 929.616 354.527 928.888 354.527 928.04C354.527 927.192 354.679 926.464 354.983 925.856C355.295 925.248 355.735 924.78 356.303 924.452C356.879 924.124 357.551 923.96 358.319 923.96C358.863 923.96 359.355 924.036 359.795 924.188C360.235 924.332 360.607 924.556 360.911 924.86C361.223 925.164 361.451 925.548 361.595 926.012L360.095 926.648C359.959 926.168 359.751 925.828 359.471 925.628C359.191 925.42 358.831 925.316 358.391 925.316C357.959 925.316 357.579 925.42 357.251 925.628C356.931 925.836 356.683 926.144 356.507 926.552C356.331 926.952 356.243 927.448 356.243 928.04C356.243 928.624 356.323 929.12 356.483 929.528C356.651 929.936 356.895 930.244 357.215 930.452C357.535 930.66 357.927 930.764 358.391 930.764C358.823 930.764 359.195 930.648 359.507 930.416C359.827 930.184 360.051 929.832 360.179 929.36L361.703 929.816Z" fill="white"/>
<path d="M327.532 932H327.032V932.5H327.532V932ZM327.532 924.08V923.58H327.032V924.08H327.532ZM333.124 924.644L333.442 924.258V924.258L333.124 924.644ZM333.424 927.368L333.818 927.676L333.424 927.368ZM332.296 927.992L332.209 927.5L331.796 927.573V927.992H332.296ZM332.296 928.004H331.796V928.437L332.224 928.499L332.296 928.004ZM333.568 928.628L333.943 928.297L333.568 928.628ZM333.268 931.424L332.962 931.029L332.959 931.031L333.268 931.424ZM329.14 930.752H328.64V931.252H329.14V930.752ZM331.972 930.476L332.296 930.857L331.972 930.476ZM331.972 928.94L332.288 928.552L332.288 928.552L331.972 928.94ZM329.14 928.676V928.176H328.64V928.676H329.14ZM329.14 927.404H328.64V927.904H329.14V927.404ZM329.14 925.364V924.864H328.64V925.364H329.14ZM328.032 932V924.08H327.032V932H328.032ZM327.532 924.58H331V923.58H327.532V924.58ZM331 924.58C331.911 924.58 332.48 924.761 332.806 925.03L333.442 924.258C332.856 923.775 332.009 923.58 331 923.58V924.58ZM332.806 925.03C333.127 925.295 333.308 925.674 333.308 926.24H334.308C334.308 925.43 334.033 924.745 333.442 924.258L332.806 925.03ZM333.308 926.24C333.308 926.555 333.216 926.822 333.03 927.06L333.818 927.676C334.144 927.258 334.308 926.773 334.308 926.24H333.308ZM333.03 927.06C332.865 927.271 332.61 927.428 332.209 927.5L332.383 928.484C332.974 928.38 333.471 928.121 333.818 927.676L333.03 927.06ZM331.796 927.992V928.004H332.796V927.992H331.796ZM332.224 928.499C332.689 928.566 332.993 928.732 333.193 928.959L333.943 928.297C333.551 927.852 333.007 927.602 332.368 927.509L332.224 928.499ZM333.193 928.959C333.405 929.2 333.512 929.481 333.512 929.828H334.512C334.512 929.247 334.323 928.728 333.943 928.297L333.193 928.959ZM333.512 929.828C333.512 930.368 333.324 930.748 332.962 931.029L333.574 931.819C334.204 931.332 334.512 930.648 334.512 929.828H333.512ZM332.959 931.031C332.594 931.318 332.007 931.5 331.12 931.5V932.5C332.121 932.5 332.966 932.298 333.577 931.817L332.959 931.031ZM331.12 931.5H327.532V932.5H331.12V931.5ZM329.14 931.252H330.976V930.252H329.14V931.252ZM330.976 931.252C331.478 931.252 331.95 931.151 332.296 930.857L331.648 930.095C331.562 930.169 331.37 930.252 330.976 930.252V931.252ZM332.296 930.857C332.642 930.562 332.796 930.157 332.796 929.708H331.796C331.796 929.915 331.734 930.022 331.648 930.095L332.296 930.857ZM332.796 929.708C332.796 929.256 332.645 928.843 332.288 928.552L331.656 929.328C331.731 929.389 331.796 929.488 331.796 929.708H332.796ZM332.288 928.552C331.943 928.271 331.474 928.176 330.976 928.176V929.176C331.374 929.176 331.569 929.257 331.656 929.328L332.288 928.552ZM330.976 928.176H329.14V929.176H330.976V928.176ZM328.64 928.676V930.752H329.64V928.676H328.64ZM329.14 927.904H330.784V926.904H329.14V927.904ZM330.784 927.904C331.271 927.904 331.729 927.811 332.072 927.543C332.44 927.257 332.592 926.839 332.592 926.384H331.592C331.592 926.609 331.526 926.701 331.458 926.755C331.365 926.827 331.169 926.904 330.784 926.904V927.904ZM332.592 926.384C332.592 925.929 332.44 925.511 332.072 925.225C331.729 924.957 331.271 924.864 330.784 924.864V925.864C331.169 925.864 331.365 925.941 331.458 926.013C331.526 926.067 331.592 926.159 331.592 926.384H332.592ZM330.784 924.864H329.14V925.864H330.784V924.864ZM328.64 925.364V927.404H329.64V925.364H328.64ZM336.05 930.668H335.55V931.168H336.05V930.668ZM340.227 930.668H340.727V930.168H340.227V930.668ZM340.227 932V932.5H340.727V932H340.227ZM334.395 932H333.895V932.5H334.395V932ZM334.395 924.08V923.58H333.895V924.08H334.395ZM336.05 924.08H336.55V923.58H336.05V924.08ZM336.05 931.168H340.227V930.168H336.05V931.168ZM339.727 930.668V932H340.727V930.668H339.727ZM340.227 931.5H334.395V932.5H340.227V931.5ZM334.894 932V924.08H333.895V932H334.894ZM334.395 924.58H336.05V923.58H334.395V924.58ZM335.55 924.08V930.668H336.55V924.08H335.55ZM347.278 932V932.5H347.992L347.747 931.828L347.278 932ZM345.562 932L345.088 932.162L345.204 932.5H345.562V932ZM344.902 930.068L345.375 929.906L345.259 929.568H344.902V930.068ZM341.866 930.068V929.568H341.508L341.392 929.906L341.866 930.068ZM341.206 932V932.5H341.563L341.679 932.162L341.206 932ZM339.514 932L339.044 931.828L338.799 932.5H339.514V932ZM342.406 924.08V923.58H342.056L341.936 923.908L342.406 924.08ZM344.386 924.08L344.855 923.908L344.735 923.58H344.386V924.08ZM342.238 928.844L341.763 928.687L341.546 929.344H342.238V928.844ZM344.53 928.844V929.344H345.223L345.004 928.686L344.53 928.844ZM343.378 925.388L343.852 925.23L343.375 923.799L342.903 925.231L343.378 925.388ZM347.278 931.5H345.562V932.5H347.278V931.5ZM346.035 931.838L345.375 929.906L344.428 930.23L345.088 932.162L346.035 931.838ZM344.902 929.568H341.866V930.568H344.902V929.568ZM341.392 929.906L340.732 931.838L341.679 932.162L342.339 930.23L341.392 929.906ZM341.206 931.5H339.514V932.5H341.206V931.5ZM339.983 932.172L342.875 924.251L341.936 923.908L339.044 931.828L339.983 932.172ZM342.406 924.58H344.386V923.58H342.406V924.58ZM343.916 924.251L346.808 932.172L347.747 931.828L344.855 923.908L343.916 924.251ZM342.238 929.344H344.53V928.344H342.238V929.344ZM345.004 928.686L343.852 925.23L342.903 925.546L344.055 929.002L345.004 928.686ZM342.903 925.231L341.763 928.687L342.712 929.001L343.852 925.545L342.903 925.231ZM354.056 924.08H354.556V923.58H354.056V924.08ZM354.056 932V932.5H354.556V932H354.056ZM352.16 932L351.731 932.256L351.876 932.5H352.16V932ZM349.388 927.344L348.946 927.577L348.952 927.589L348.959 927.6L349.388 927.344ZM348.704 926.048L349.147 925.815L349.006 925.548H348.704V926.048ZM348.692 926.048V925.548H348.174L348.193 926.066L348.692 926.048ZM348.74 927.416H349.24V927.407L349.24 927.398L348.74 927.416ZM348.74 932V932.5H349.24V932H348.74ZM347.252 932H346.752V932.5H347.252V932ZM347.252 924.08V923.58H346.752V924.08H347.252ZM349.136 924.08L349.566 923.824L349.42 923.58H349.136V924.08ZM351.908 928.724L352.351 928.492L352.345 928.48L352.338 928.468L351.908 928.724ZM352.592 930.032L352.149 930.264L352.29 930.532H352.592V930.032ZM352.616 930.032V930.532H353.134L353.116 930.014L352.616 930.032ZM352.568 928.664H352.068V928.673L352.069 928.682L352.568 928.664ZM352.568 924.08V923.58H352.068V924.08H352.568ZM353.556 924.08V932H354.556V924.08H353.556ZM354.056 931.5H352.16V932.5H354.056V931.5ZM352.59 931.744L349.818 927.088L348.959 927.6L351.731 932.256L352.59 931.744ZM349.831 927.111L349.147 925.815L348.262 926.281L348.946 927.577L349.831 927.111ZM348.704 925.548H348.692V926.548H348.704V925.548ZM348.193 926.066L348.241 927.434L349.24 927.398L349.192 926.03L348.193 926.066ZM348.24 927.416V932H349.24V927.416H348.24ZM348.74 931.5H347.252V932.5H348.74V931.5ZM347.752 932V924.08H346.752V932H347.752ZM347.252 924.58H349.136V923.58H347.252V924.58ZM348.707 924.336L351.479 928.98L352.338 928.468L349.566 923.824L348.707 924.336ZM351.465 928.956L352.149 930.264L353.035 929.8L352.351 928.492L351.465 928.956ZM352.592 930.532H352.616V929.532H352.592V930.532ZM353.116 930.014L353.068 928.646L352.069 928.682L352.117 930.05L353.116 930.014ZM353.068 928.664V924.08H352.068V928.664H353.068ZM352.568 924.58H354.056V923.58H352.568V924.58ZM361.703 929.816L362.183 929.958L362.325 929.48L361.847 929.337L361.703 929.816ZM360.983 931.1L361.345 931.445L360.983 931.1ZM359.819 931.868L359.644 931.4L359.819 931.868ZM356.303 931.628L356.053 932.061L356.056 932.062L356.303 931.628ZM354.983 930.224L354.536 930.448L354.539 930.452L354.983 930.224ZM354.983 925.856L354.539 925.628L354.536 925.632L354.983 925.856ZM356.303 924.452L356.056 924.017L356.053 924.019L356.303 924.452ZM359.795 924.188L359.632 924.661L359.64 924.663L359.795 924.188ZM360.911 924.86L360.558 925.214L360.562 925.218L360.911 924.86ZM361.595 926.012L361.791 926.472L362.207 926.296L362.073 925.864L361.595 926.012ZM360.095 926.648L359.614 926.784L359.769 927.33L360.291 927.108L360.095 926.648ZM359.471 925.628L359.173 926.029L359.181 926.035L359.471 925.628ZM357.251 925.628L356.984 925.206L356.979 925.209L357.251 925.628ZM356.507 926.552L356.965 926.753L356.967 926.75L356.507 926.552ZM356.483 929.528L356.018 929.711L356.021 929.718L356.483 929.528ZM357.215 930.452L357.488 930.033L357.215 930.452ZM359.507 930.416L359.214 930.011L359.209 930.015L359.507 930.416ZM360.179 929.36L360.323 928.881L359.831 928.734L359.697 929.229L360.179 929.36ZM361.224 929.674C361.092 930.119 360.888 930.475 360.622 930.755L361.345 931.445C361.734 931.037 362.011 930.537 362.183 929.958L361.224 929.674ZM360.622 930.755C360.346 931.044 360.022 931.258 359.644 931.4L359.995 932.336C360.513 932.142 360.965 931.844 361.345 931.445L360.622 930.755ZM359.644 931.4C359.258 931.544 358.827 931.62 358.343 931.62V932.62C358.932 932.62 359.484 932.528 359.995 932.336L359.644 931.4ZM358.343 931.62C357.63 931.62 357.039 931.471 356.551 931.194L356.056 932.062C356.72 932.441 357.489 932.62 358.343 932.62V931.62ZM356.553 931.195C356.072 930.917 355.698 930.522 355.428 929.996L354.539 930.452C354.893 931.142 355.398 931.683 356.053 932.061L356.553 931.195ZM355.431 930C355.169 929.477 355.027 928.829 355.027 928.04H354.027C354.027 928.947 354.19 929.755 354.536 930.448L355.431 930ZM355.027 928.04C355.027 927.251 355.169 926.603 355.431 926.08L354.536 925.632C354.19 926.325 354.027 927.133 354.027 928.04H355.027ZM355.428 926.084C355.698 925.558 356.072 925.163 356.553 924.885L356.053 924.019C355.398 924.397 354.893 924.938 354.539 925.628L355.428 926.084ZM356.551 924.886C357.04 924.608 357.624 924.46 358.319 924.46V923.46C357.479 923.46 356.719 923.64 356.056 924.018L356.551 924.886ZM358.319 924.46C358.817 924.46 359.253 924.53 359.632 924.661L359.959 923.715C359.458 923.542 358.91 923.46 358.319 923.46V924.46ZM359.64 924.663C360.011 924.785 360.314 924.969 360.558 925.214L361.265 924.506C360.901 924.143 360.46 923.879 359.951 923.713L359.64 924.663ZM360.562 925.218C360.808 925.457 360.996 925.766 361.118 926.16L362.073 925.864C361.907 925.33 361.639 924.871 361.26 924.502L360.562 925.218ZM361.4 925.552L359.9 926.188L360.291 927.108L361.791 926.472L361.4 925.552ZM360.576 926.512C360.423 925.97 360.168 925.511 359.762 925.221L359.181 926.035C359.335 926.145 359.496 926.366 359.614 926.784L360.576 926.512ZM359.77 925.227C359.383 924.94 358.91 924.816 358.391 924.816V925.816C358.752 925.816 359 925.9 359.173 926.029L359.77 925.227ZM358.391 924.816C357.876 924.816 357.401 924.941 356.984 925.206L357.519 926.05C357.758 925.899 358.043 925.816 358.391 925.816V924.816ZM356.979 925.209C356.563 925.479 356.257 925.871 356.048 926.354L356.967 926.75C357.11 926.417 357.299 926.193 357.524 926.047L356.979 925.209ZM356.05 926.351C355.838 926.832 355.743 927.402 355.743 928.04H356.743C356.743 927.494 356.825 927.072 356.965 926.753L356.05 926.351ZM355.743 928.04C355.743 928.667 355.829 929.229 356.018 929.711L356.949 929.345C356.818 929.011 356.743 928.581 356.743 928.04H355.743ZM356.021 929.718C356.221 930.205 356.525 930.6 356.943 930.871L357.488 930.033C357.266 929.888 357.081 929.667 356.946 929.338L356.021 929.718ZM356.943 930.871C357.36 931.142 357.852 931.264 358.391 931.264V930.264C358.003 930.264 357.711 930.178 357.488 930.033L356.943 930.871ZM358.391 931.264C358.918 931.264 359.398 931.12 359.806 930.817L359.209 930.015C358.993 930.176 358.728 930.264 358.391 930.264V931.264ZM359.801 930.821C360.234 930.507 360.511 930.046 360.662 929.491L359.697 929.229C359.591 929.618 359.421 929.861 359.214 930.011L359.801 930.821ZM360.036 929.839L361.56 930.295L361.847 929.337L360.323 928.881L360.036 929.839Z" fill="black" mask="url(#path-2-outside-1_95_94)"/>
<path d="M203 1140.5L285.5 953L287 951L403.5 1013C405.9 1023 402.833 1089.17 401 1121C385.4 1128.2 392 1138.5 397.5 1143.5L400.5 1185L381 1192.5L144.5 1216L203 1140.5Z" fill="#095888" stroke="black" stroke-width="0.5"/>
<mask id="path-5-outside-2_95_94" maskUnits="userSpaceOnUse" x="284.5" y="1098" width="60" height="10" fill="black">
<rect fill="white" x="284.5" y="1098" width="60" height="10"/>
<path d="M285.532 1107V1099.08H289C289.96 1099.08 290.668 1099.27 291.124 1099.64C291.58 1100.02 291.808 1100.55 291.808 1101.24C291.808 1101.66 291.68 1102.04 291.424 1102.37C291.168 1102.7 290.792 1102.9 290.296 1102.99V1103C290.848 1103.08 291.272 1103.29 291.568 1103.63C291.864 1103.96 292.012 1104.36 292.012 1104.83C292.012 1105.51 291.764 1106.04 291.268 1106.42C290.78 1106.81 290.064 1107 289.12 1107H285.532ZM287.14 1105.75H288.976C289.424 1105.75 289.756 1105.66 289.972 1105.48C290.188 1105.29 290.296 1105.04 290.296 1104.71C290.296 1104.37 290.188 1104.12 289.972 1103.94C289.756 1103.76 289.424 1103.68 288.976 1103.68H287.14V1105.75ZM287.14 1102.4H288.784C289.656 1102.4 290.092 1102.06 290.092 1101.38C290.092 1100.7 289.656 1100.36 288.784 1100.36H287.14V1102.4ZM294.051 1105.67H298.227V1107H292.395V1099.08H294.051V1105.67ZM298.402 1107V1099.08H304.342V1100.41H300.058V1102.38H303.43V1103.65H300.058V1105.67H304.51V1107H298.402ZM311.407 1099.08V1103.88C311.407 1104.96 311.119 1105.77 310.543 1106.32C309.967 1106.85 309.127 1107.12 308.023 1107.12C306.919 1107.12 306.079 1106.85 305.503 1106.32C304.927 1105.77 304.639 1104.96 304.639 1103.88V1099.08H306.295V1103.81C306.295 1104.47 306.435 1104.96 306.715 1105.28C307.003 1105.6 307.439 1105.76 308.023 1105.76C308.607 1105.76 309.039 1105.6 309.319 1105.28C309.599 1104.96 309.739 1104.47 309.739 1103.81V1099.08H311.407ZM321.387 1099.08V1107H319.491L316.719 1102.34L316.035 1101.05H316.023L316.071 1102.42V1107H314.583V1099.08H316.467L319.239 1103.72L319.923 1105.03H319.947L319.899 1103.66V1099.08H321.387ZM325.674 1098.96C326.458 1098.96 327.134 1099.12 327.702 1099.45C328.27 1099.78 328.706 1100.25 329.01 1100.86C329.322 1101.46 329.478 1102.19 329.478 1103.04C329.478 1103.89 329.322 1104.62 329.01 1105.22C328.706 1105.83 328.27 1106.3 327.702 1106.63C327.134 1106.96 326.458 1107.12 325.674 1107.12C324.89 1107.12 324.21 1106.96 323.634 1106.63C323.066 1106.3 322.626 1105.83 322.314 1105.22C322.01 1104.62 321.858 1103.89 321.858 1103.04C321.858 1102.19 322.01 1101.46 322.314 1100.86C322.626 1100.25 323.066 1099.78 323.634 1099.45C324.21 1099.12 324.89 1098.96 325.674 1098.96ZM325.674 1100.32C325.226 1100.32 324.846 1100.42 324.534 1100.63C324.222 1100.84 323.982 1101.14 323.814 1101.55C323.654 1101.95 323.574 1102.45 323.574 1103.04C323.574 1103.62 323.654 1104.12 323.814 1104.53C323.982 1104.94 324.222 1105.24 324.534 1105.45C324.846 1105.66 325.226 1105.76 325.674 1105.76C326.114 1105.76 326.49 1105.66 326.802 1105.45C327.114 1105.24 327.35 1104.94 327.51 1104.53C327.678 1104.12 327.762 1103.62 327.762 1103.04C327.762 1102.45 327.678 1101.95 327.51 1101.55C327.35 1101.14 327.114 1100.84 326.802 1100.63C326.49 1100.42 326.114 1100.32 325.674 1100.32ZM333.44 1099.08C334.336 1099.08 335.04 1099.3 335.552 1099.73C336.064 1100.16 336.32 1100.74 336.32 1101.47C336.32 1102.24 336.064 1102.84 335.552 1103.26C335.04 1103.66 334.34 1103.87 333.452 1103.87L333.284 1103.96H331.58V1107H329.948V1099.08H333.44ZM333.248 1102.7C333.712 1102.7 334.056 1102.61 334.28 1102.43C334.512 1102.24 334.628 1101.94 334.628 1101.55C334.628 1101.16 334.512 1100.87 334.28 1100.69C334.056 1100.5 333.712 1100.4 333.248 1100.4H331.58V1102.7H333.248ZM334.22 1103.05L336.788 1107H334.928L332.804 1103.53L334.22 1103.05ZM339.965 1099.08C341.205 1099.08 342.165 1099.42 342.845 1100.11C343.525 1100.79 343.865 1101.77 343.865 1103.04C343.865 1104.3 343.525 1105.28 342.845 1105.97C342.165 1106.66 341.205 1107 339.965 1107H336.905V1099.08H339.965ZM339.881 1105.68C340.633 1105.68 341.197 1105.46 341.573 1105.01C341.957 1104.55 342.149 1103.9 342.149 1103.04C342.149 1102.18 341.957 1101.53 341.573 1101.08C341.197 1100.63 340.633 1100.4 339.881 1100.4H338.561V1105.68H339.881Z"/>
</mask>
<path d="M285.532 1107V1099.08H289C289.96 1099.08 290.668 1099.27 291.124 1099.64C291.58 1100.02 291.808 1100.55 291.808 1101.24C291.808 1101.66 291.68 1102.04 291.424 1102.37C291.168 1102.7 290.792 1102.9 290.296 1102.99V1103C290.848 1103.08 291.272 1103.29 291.568 1103.63C291.864 1103.96 292.012 1104.36 292.012 1104.83C292.012 1105.51 291.764 1106.04 291.268 1106.42C290.78 1106.81 290.064 1107 289.12 1107H285.532ZM287.14 1105.75H288.976C289.424 1105.75 289.756 1105.66 289.972 1105.48C290.188 1105.29 290.296 1105.04 290.296 1104.71C290.296 1104.37 290.188 1104.12 289.972 1103.94C289.756 1103.76 289.424 1103.68 288.976 1103.68H287.14V1105.75ZM287.14 1102.4H288.784C289.656 1102.4 290.092 1102.06 290.092 1101.38C290.092 1100.7 289.656 1100.36 288.784 1100.36H287.14V1102.4ZM294.051 1105.67H298.227V1107H292.395V1099.08H294.051V1105.67ZM298.402 1107V1099.08H304.342V1100.41H300.058V1102.38H303.43V1103.65H300.058V1105.67H304.51V1107H298.402ZM311.407 1099.08V1103.88C311.407 1104.96 311.119 1105.77 310.543 1106.32C309.967 1106.85 309.127 1107.12 308.023 1107.12C306.919 1107.12 306.079 1106.85 305.503 1106.32C304.927 1105.77 304.639 1104.96 304.639 1103.88V1099.08H306.295V1103.81C306.295 1104.47 306.435 1104.96 306.715 1105.28C307.003 1105.6 307.439 1105.76 308.023 1105.76C308.607 1105.76 309.039 1105.6 309.319 1105.28C309.599 1104.96 309.739 1104.47 309.739 1103.81V1099.08H311.407ZM321.387 1099.08V1107H319.491L316.719 1102.34L316.035 1101.05H316.023L316.071 1102.42V1107H314.583V1099.08H316.467L319.239 1103.72L319.923 1105.03H319.947L319.899 1103.66V1099.08H321.387ZM325.674 1098.96C326.458 1098.96 327.134 1099.12 327.702 1099.45C328.27 1099.78 328.706 1100.25 329.01 1100.86C329.322 1101.46 329.478 1102.19 329.478 1103.04C329.478 1103.89 329.322 1104.62 329.01 1105.22C328.706 1105.83 328.27 1106.3 327.702 1106.63C327.134 1106.96 326.458 1107.12 325.674 1107.12C324.89 1107.12 324.21 1106.96 323.634 1106.63C323.066 1106.3 322.626 1105.83 322.314 1105.22C322.01 1104.62 321.858 1103.89 321.858 1103.04C321.858 1102.19 322.01 1101.46 322.314 1100.86C322.626 1100.25 323.066 1099.78 323.634 1099.45C324.21 1099.12 324.89 1098.96 325.674 1098.96ZM325.674 1100.32C325.226 1100.32 324.846 1100.42 324.534 1100.63C324.222 1100.84 323.982 1101.14 323.814 1101.55C323.654 1101.95 323.574 1102.45 323.574 1103.04C323.574 1103.62 323.654 1104.12 323.814 1104.53C323.982 1104.94 324.222 1105.24 324.534 1105.45C324.846 1105.66 325.226 1105.76 325.674 1105.76C326.114 1105.76 326.49 1105.66 326.802 1105.45C327.114 1105.24 327.35 1104.94 327.51 1104.53C327.678 1104.12 327.762 1103.62 327.762 1103.04C327.762 1102.45 327.678 1101.95 327.51 1101.55C327.35 1101.14 327.114 1100.84 326.802 1100.63C326.49 1100.42 326.114 1100.32 325.674 1100.32ZM333.44 1099.08C334.336 1099.08 335.04 1099.3 335.552 1099.73C336.064 1100.16 336.32 1100.74 336.32 1101.47C336.32 1102.24 336.064 1102.84 335.552 1103.26C335.04 1103.66 334.34 1103.87 333.452 1103.87L333.284 1103.96H331.58V1107H329.948V1099.08H333.44ZM333.248 1102.7C333.712 1102.7 334.056 1102.61 334.28 1102.43C334.512 1102.24 334.628 1101.94 334.628 1101.55C334.628 1101.16 334.512 1100.87 334.28 1100.69C334.056 1100.5 333.712 1100.4 333.248 1100.4H331.58V1102.7H333.248ZM334.22 1103.05L336.788 1107H334.928L332.804 1103.53L334.22 1103.05ZM339.965 1099.08C341.205 1099.08 342.165 1099.42 342.845 1100.11C343.525 1100.79 343.865 1101.77 343.865 1103.04C343.865 1104.3 343.525 1105.28 342.845 1105.97C342.165 1106.66 341.205 1107 339.965 1107H336.905V1099.08H339.965ZM339.881 1105.68C340.633 1105.68 341.197 1105.46 341.573 1105.01C341.957 1104.55 342.149 1103.9 342.149 1103.04C342.149 1102.18 341.957 1101.53 341.573 1101.08C341.197 1100.63 340.633 1100.4 339.881 1100.4H338.561V1105.68H339.881Z" fill="white"/>
<path d="M285.532 1107H285.032V1107.5H285.532V1107ZM285.532 1099.08V1098.58H285.032V1099.08H285.532ZM291.124 1099.64L291.442 1099.26V1099.26L291.124 1099.64ZM291.424 1102.37L291.818 1102.68L291.424 1102.37ZM290.296 1102.99L290.209 1102.5L289.796 1102.57V1102.99H290.296ZM290.296 1103H289.796V1103.44L290.224 1103.5L290.296 1103ZM291.568 1103.63L291.943 1103.3L291.568 1103.63ZM291.268 1106.42L290.962 1106.03L290.959 1106.03L291.268 1106.42ZM287.14 1105.75H286.64V1106.25H287.14V1105.75ZM289.972 1105.48L290.296 1105.86L289.972 1105.48ZM289.972 1103.94L290.288 1103.55L290.288 1103.55L289.972 1103.94ZM287.14 1103.68V1103.18H286.64V1103.68H287.14ZM287.14 1102.4H286.64V1102.9H287.14V1102.4ZM287.14 1100.36V1099.86H286.64V1100.36H287.14ZM286.032 1107V1099.08H285.032V1107H286.032ZM285.532 1099.58H289V1098.58H285.532V1099.58ZM289 1099.58C289.911 1099.58 290.48 1099.76 290.806 1100.03L291.442 1099.26C290.856 1098.77 290.009 1098.58 289 1098.58V1099.58ZM290.806 1100.03C291.127 1100.29 291.308 1100.67 291.308 1101.24H292.308C292.308 1100.43 292.033 1099.75 291.442 1099.26L290.806 1100.03ZM291.308 1101.24C291.308 1101.55 291.216 1101.82 291.03 1102.06L291.818 1102.68C292.144 1102.26 292.308 1101.77 292.308 1101.24H291.308ZM291.03 1102.06C290.865 1102.27 290.61 1102.43 290.209 1102.5L290.383 1103.48C290.974 1103.38 291.471 1103.12 291.818 1102.68L291.03 1102.06ZM289.796 1102.99V1103H290.796V1102.99H289.796ZM290.224 1103.5C290.689 1103.57 290.993 1103.73 291.193 1103.96L291.943 1103.3C291.551 1102.85 291.007 1102.6 290.368 1102.51L290.224 1103.5ZM291.193 1103.96C291.405 1104.2 291.512 1104.48 291.512 1104.83H292.512C292.512 1104.25 292.323 1103.73 291.943 1103.3L291.193 1103.96ZM291.512 1104.83C291.512 1105.37 291.324 1105.75 290.962 1106.03L291.574 1106.82C292.204 1106.33 292.512 1105.65 292.512 1104.83H291.512ZM290.959 1106.03C290.594 1106.32 290.007 1106.5 289.12 1106.5V1107.5C290.121 1107.5 290.966 1107.3 291.577 1106.82L290.959 1106.03ZM289.12 1106.5H285.532V1107.5H289.12V1106.5ZM287.14 1106.25H288.976V1105.25H287.14V1106.25ZM288.976 1106.25C289.478 1106.25 289.95 1106.15 290.296 1105.86L289.648 1105.1C289.562 1105.17 289.37 1105.25 288.976 1105.25V1106.25ZM290.296 1105.86C290.642 1105.56 290.796 1105.16 290.796 1104.71H289.796C289.796 1104.91 289.734 1105.02 289.648 1105.1L290.296 1105.86ZM290.796 1104.71C290.796 1104.26 290.645 1103.84 290.288 1103.55L289.656 1104.33C289.731 1104.39 289.796 1104.49 289.796 1104.71H290.796ZM290.288 1103.55C289.943 1103.27 289.474 1103.18 288.976 1103.18V1104.18C289.374 1104.18 289.569 1104.26 289.656 1104.33L290.288 1103.55ZM288.976 1103.18H287.14V1104.18H288.976V1103.18ZM286.64 1103.68V1105.75H287.64V1103.68H286.64ZM287.14 1102.9H288.784V1101.9H287.14V1102.9ZM288.784 1102.9C289.271 1102.9 289.729 1102.81 290.072 1102.54C290.44 1102.26 290.592 1101.84 290.592 1101.38H289.592C289.592 1101.61 289.526 1101.7 289.458 1101.75C289.365 1101.83 289.169 1101.9 288.784 1101.9V1102.9ZM290.592 1101.38C290.592 1100.93 290.44 1100.51 290.072 1100.22C289.729 1099.96 289.271 1099.86 288.784 1099.86V1100.86C289.169 1100.86 289.365 1100.94 289.458 1101.01C289.526 1101.07 289.592 1101.16 289.592 1101.38H290.592ZM288.784 1099.86H287.14V1100.86H288.784V1099.86ZM286.64 1100.36V1102.4H287.64V1100.36H286.64ZM294.05 1105.67H293.55V1106.17H294.05V1105.67ZM298.227 1105.67H298.727V1105.17H298.227V1105.67ZM298.227 1107V1107.5H298.727V1107H298.227ZM292.395 1107H291.895V1107.5H292.395V1107ZM292.395 1099.08V1098.58H291.895V1099.08H292.395ZM294.05 1099.08H294.55V1098.58H294.05V1099.08ZM294.05 1106.17H298.227V1105.17H294.05V1106.17ZM297.727 1105.67V1107H298.727V1105.67H297.727ZM298.227 1106.5H292.395V1107.5H298.227V1106.5ZM292.894 1107V1099.08H291.895V1107H292.894ZM292.395 1099.58H294.05V1098.58H292.395V1099.58ZM293.55 1099.08V1105.67H294.55V1099.08H293.55ZM298.402 1107H297.902V1107.5H298.402V1107ZM298.402 1099.08V1098.58H297.902V1099.08H298.402ZM304.342 1099.08H304.842V1098.58H304.342V1099.08ZM304.342 1100.41V1100.91H304.842V1100.41H304.342ZM300.058 1100.41V1099.91H299.558V1100.41H300.058ZM300.058 1102.38H299.558V1102.88H300.058V1102.38ZM303.43 1102.38H303.93V1101.88H303.43V1102.38ZM303.43 1103.65V1104.15H303.93V1103.65H303.43ZM300.058 1103.65V1103.15H299.558V1103.65H300.058ZM300.058 1105.67H299.558V1106.17H300.058V1105.67ZM304.51 1105.67H305.01V1105.17H304.51V1105.67ZM304.51 1107V1107.5H305.01V1107H304.51ZM298.902 1107V1099.08H297.902V1107H298.902ZM298.402 1099.58H304.342V1098.58H298.402V1099.58ZM303.842 1099.08V1100.41H304.842V1099.08H303.842ZM304.342 1099.91H300.058V1100.91H304.342V1099.91ZM299.558 1100.41V1102.38H300.558V1100.41H299.558ZM300.058 1102.88H303.43V1101.88H300.058V1102.88ZM302.93 1102.38V1103.65H303.93V1102.38H302.93ZM303.43 1103.15H300.058V1104.15H303.43V1103.15ZM299.558 1103.65V1105.67H300.558V1103.65H299.558ZM300.058 1106.17H304.51V1105.17H300.058V1106.17ZM304.01 1105.67V1107H305.01V1105.67H304.01ZM304.51 1106.5H298.402V1107.5H304.51V1106.5ZM311.407 1099.08H311.907V1098.58H311.407V1099.08ZM310.543 1106.32L310.884 1106.68L310.887 1106.68L310.543 1106.32ZM305.503 1106.32L305.16 1106.68L305.163 1106.68L305.503 1106.32ZM304.639 1099.08V1098.58H304.139V1099.08H304.639ZM306.295 1099.08H306.795V1098.58H306.295V1099.08ZM306.715 1105.28L306.339 1105.61L306.344 1105.62L306.715 1105.28ZM309.319 1105.28L309.696 1105.61L309.319 1105.28ZM309.739 1099.08V1098.58H309.239V1099.08H309.739ZM310.907 1099.08V1103.88H311.907V1099.08H310.907ZM310.907 1103.88C310.907 1104.87 310.644 1105.53 310.2 1105.95L310.887 1106.68C311.595 1106.01 311.907 1105.05 311.907 1103.88H310.907ZM310.203 1105.95C309.751 1106.37 309.052 1106.62 308.023 1106.62V1107.62C309.203 1107.62 310.184 1107.33 310.884 1106.68L310.203 1105.95ZM308.023 1106.62C306.995 1106.62 306.296 1106.37 305.844 1105.95L305.163 1106.68C305.863 1107.33 306.844 1107.62 308.023 1107.62V1106.62ZM305.847 1105.95C305.403 1105.53 305.139 1104.87 305.139 1103.88H304.139C304.139 1105.05 304.452 1106.01 305.16 1106.68L305.847 1105.95ZM305.139 1103.88V1099.08H304.139V1103.88H305.139ZM304.639 1099.58H306.295V1098.58H304.639V1099.58ZM305.795 1099.08V1103.81H306.795V1099.08H305.795ZM305.795 1103.81C305.795 1104.53 305.945 1105.16 306.339 1105.61L307.092 1104.95C306.926 1104.77 306.795 1104.42 306.795 1103.81H305.795ZM306.344 1105.62C306.757 1106.08 307.35 1106.26 308.023 1106.26V1105.26C307.528 1105.26 307.25 1105.13 307.087 1104.95L306.344 1105.62ZM308.023 1106.26C308.695 1106.26 309.289 1106.08 309.696 1105.61L308.943 1104.95C308.79 1105.13 308.519 1105.26 308.023 1105.26V1106.26ZM309.696 1105.61C310.09 1105.16 310.239 1104.53 310.239 1103.81H309.239C309.239 1104.42 309.109 1104.77 308.943 1104.95L309.696 1105.61ZM310.239 1103.81V1099.08H309.239V1103.81H310.239ZM309.739 1099.58H311.407V1098.58H309.739V1099.58ZM321.387 1099.08H321.887V1098.58H321.387V1099.08ZM321.387 1107V1107.5H321.887V1107H321.387ZM319.491 1107L319.061 1107.26L319.207 1107.5H319.491V1107ZM316.719 1102.34L316.277 1102.58L316.283 1102.59L316.289 1102.6L316.719 1102.34ZM316.035 1101.05L316.477 1100.81L316.336 1100.55H316.035V1101.05ZM316.023 1101.05V1100.55H315.505L315.523 1101.07L316.023 1101.05ZM316.071 1102.42H316.571V1102.41L316.57 1102.4L316.071 1102.42ZM316.071 1107V1107.5H316.571V1107H316.071ZM314.583 1107H314.083V1107.5H314.583V1107ZM314.583 1099.08V1098.58H314.083V1099.08H314.583ZM316.467 1099.08L316.896 1098.82L316.751 1098.58H316.467V1099.08ZM319.239 1103.72L319.682 1103.49L319.675 1103.48L319.668 1103.47L319.239 1103.72ZM319.923 1105.03L319.48 1105.26L319.62 1105.53H319.923V1105.03ZM319.947 1105.03V1105.53H320.465L320.446 1105.01L319.947 1105.03ZM319.899 1103.66H319.399V1103.67L319.399 1103.68L319.899 1103.66ZM319.899 1099.08V1098.58H319.399V1099.08H319.899ZM320.887 1099.08V1107H321.887V1099.08H320.887ZM321.387 1106.5H319.491V1107.5H321.387V1106.5ZM319.92 1106.74L317.148 1102.09L316.289 1102.6L319.061 1107.26L319.92 1106.74ZM317.161 1102.11L316.477 1100.81L315.593 1101.28L316.277 1102.58L317.161 1102.11ZM316.035 1100.55H316.023V1101.55H316.035V1100.55ZM315.523 1101.07L315.571 1102.43L316.57 1102.4L316.522 1101.03L315.523 1101.07ZM315.571 1102.42V1107H316.571V1102.42H315.571ZM316.071 1106.5H314.583V1107.5H316.071V1106.5ZM315.083 1107V1099.08H314.083V1107H315.083ZM314.583 1099.58H316.467V1098.58H314.583V1099.58ZM316.037 1099.34L318.809 1103.98L319.668 1103.47L316.896 1098.82L316.037 1099.34ZM318.796 1103.96L319.48 1105.26L320.366 1104.8L319.682 1103.49L318.796 1103.96ZM319.923 1105.53H319.947V1104.53H319.923V1105.53ZM320.446 1105.01L320.398 1103.65L319.399 1103.68L319.447 1105.05L320.446 1105.01ZM320.399 1103.66V1099.08H319.399V1103.66H320.399ZM319.899 1099.58H321.387V1098.58H319.899V1099.58ZM327.702 1099.45L327.952 1099.02L327.702 1099.45ZM329.01 1100.86L328.563 1101.08L328.565 1101.08L329.01 1100.86ZM329.01 1105.22L328.565 1105L328.563 1105L329.01 1105.22ZM327.702 1106.63L327.952 1107.06L327.702 1106.63ZM323.634 1106.63L323.384 1107.06L323.386 1107.06L323.634 1106.63ZM322.314 1105.22L321.867 1105.45L321.869 1105.45L322.314 1105.22ZM322.314 1100.86L321.869 1100.63L321.867 1100.63L322.314 1100.86ZM323.634 1099.45L323.386 1099.02L323.384 1099.02L323.634 1099.45ZM323.814 1101.55L323.352 1101.36L323.35 1101.37L323.814 1101.55ZM323.814 1104.53L323.348 1104.71L323.352 1104.72L323.814 1104.53ZM324.534 1105.45L324.811 1105.04L324.534 1105.45ZM326.802 1105.45L327.079 1105.87L326.802 1105.45ZM327.51 1104.53L327.047 1104.34L327.044 1104.35L327.51 1104.53ZM327.51 1101.55L327.044 1101.73L327.049 1101.75L327.51 1101.55ZM326.802 1100.63L327.079 1100.21L326.802 1100.63ZM325.674 1099.46C326.387 1099.46 326.973 1099.61 327.452 1099.88L327.952 1099.02C327.294 1098.64 326.528 1098.46 325.674 1098.46V1099.46ZM327.452 1099.88C327.932 1100.16 328.301 1100.56 328.563 1101.08L329.457 1100.63C329.111 1099.94 328.608 1099.4 327.952 1099.02L327.452 1099.88ZM328.565 1101.08C328.833 1101.61 328.978 1102.25 328.978 1103.04H329.978C329.978 1102.13 329.811 1101.32 329.455 1100.63L328.565 1101.08ZM328.978 1103.04C328.978 1103.83 328.833 1104.47 328.565 1105L329.455 1105.45C329.811 1104.76 329.978 1103.95 329.978 1103.04H328.978ZM328.563 1105C328.301 1105.52 327.932 1105.92 327.452 1106.2L327.952 1107.06C328.608 1106.68 329.111 1106.14 329.457 1105.45L328.563 1105ZM327.452 1106.2C326.973 1106.47 326.387 1106.62 325.674 1106.62V1107.62C326.528 1107.62 327.294 1107.44 327.952 1107.06L327.452 1106.2ZM325.674 1106.62C324.961 1106.62 324.369 1106.47 323.881 1106.19L323.386 1107.06C324.051 1107.44 324.819 1107.62 325.674 1107.62V1106.62ZM323.884 1106.2C323.403 1105.92 323.029 1105.52 322.759 1105L321.869 1105.45C322.223 1106.14 322.729 1106.68 323.384 1107.06L323.884 1106.2ZM322.761 1105C322.499 1104.48 322.358 1103.83 322.358 1103.04H321.358C321.358 1103.95 321.52 1104.76 321.867 1105.45L322.761 1105ZM322.358 1103.04C322.358 1102.25 322.499 1101.6 322.761 1101.08L321.867 1100.63C321.52 1101.32 321.358 1102.13 321.358 1103.04H322.358ZM322.759 1101.08C323.029 1100.56 323.403 1100.16 323.884 1099.88L323.384 1099.02C322.729 1099.4 322.223 1099.94 321.869 1100.63L322.759 1101.08ZM323.881 1099.89C324.369 1099.61 324.961 1099.46 325.674 1099.46V1098.46C324.819 1098.46 324.051 1098.64 323.386 1099.02L323.881 1099.89ZM325.674 1099.82C325.147 1099.82 324.666 1099.94 324.257 1100.21L324.811 1101.04C325.026 1100.9 325.305 1100.82 325.674 1100.82V1099.82ZM324.257 1100.21C323.848 1100.48 323.551 1100.88 323.352 1101.36L324.276 1101.74C324.413 1101.41 324.596 1101.19 324.811 1101.04L324.257 1100.21ZM323.35 1101.37C323.159 1101.84 323.074 1102.41 323.074 1103.04H324.074C324.074 1102.49 324.149 1102.06 324.278 1101.74L323.35 1101.37ZM323.074 1103.04C323.074 1103.67 323.159 1104.23 323.348 1104.71L324.279 1104.35C324.148 1104.01 324.074 1103.58 324.074 1103.04H323.074ZM323.352 1104.72C323.551 1105.2 323.848 1105.6 324.257 1105.87L324.811 1105.04C324.596 1104.89 324.413 1104.67 324.276 1104.34L323.352 1104.72ZM324.257 1105.87C324.666 1106.14 325.147 1106.26 325.674 1106.26V1105.26C325.305 1105.26 325.026 1105.18 324.811 1105.04L324.257 1105.87ZM325.674 1106.26C326.195 1106.26 326.672 1106.14 327.079 1105.87L326.525 1105.04C326.308 1105.18 326.033 1105.26 325.674 1105.26V1106.26ZM327.079 1105.87C327.49 1105.59 327.784 1105.2 327.975 1104.71L327.044 1104.35C326.915 1104.67 326.738 1104.89 326.525 1105.04L327.079 1105.87ZM327.972 1104.72C328.172 1104.23 328.262 1103.67 328.262 1103.04H327.262C327.262 1103.58 327.184 1104.01 327.048 1104.34L327.972 1104.72ZM328.262 1103.04C328.262 1102.4 328.172 1101.84 327.971 1101.36L327.049 1101.75C327.184 1102.07 327.262 1102.49 327.262 1103.04H328.262ZM327.975 1101.37C327.784 1100.88 327.49 1100.49 327.079 1100.21L326.525 1101.04C326.738 1101.19 326.915 1101.41 327.044 1101.73L327.975 1101.37ZM327.079 1100.21C326.672 1099.94 326.195 1099.82 325.674 1099.82V1100.82C326.033 1100.82 326.308 1100.9 326.525 1101.04L327.079 1100.21ZM335.552 1099.73L335.23 1100.11V1100.11L335.552 1099.73ZM335.552 1103.26L335.864 1103.65L335.868 1103.64L335.552 1103.26ZM333.452 1103.87V1103.37H333.32L333.204 1103.43L333.452 1103.87ZM333.284 1103.96V1104.46H333.417L333.532 1104.4L333.284 1103.96ZM331.58 1103.96V1103.46H331.08V1103.96H331.58ZM331.58 1107V1107.5H332.08V1107H331.58ZM329.948 1107H329.448V1107.5H329.948V1107ZM329.948 1099.08V1098.58H329.448V1099.08H329.948ZM334.28 1102.43L334.598 1102.81L334.599 1102.81L334.28 1102.43ZM334.28 1100.69L333.955 1101.07L333.962 1101.07L333.97 1101.08L334.28 1100.69ZM331.58 1100.4V1099.9H331.08V1100.4H331.58ZM331.58 1102.7H331.08V1103.2H331.58V1102.7ZM334.22 1103.05L334.64 1102.78L334.428 1102.45L334.06 1102.58L334.22 1103.05ZM336.788 1107V1107.5H337.71L337.208 1106.73L336.788 1107ZM334.928 1107L334.502 1107.26L334.648 1107.5H334.928V1107ZM332.804 1103.53L332.644 1103.06L332.051 1103.26L332.378 1103.79L332.804 1103.53ZM333.44 1099.58C334.258 1099.58 334.835 1099.78 335.23 1100.11L335.875 1099.35C335.246 1098.82 334.414 1098.58 333.44 1098.58V1099.58ZM335.23 1100.11C335.619 1100.44 335.82 1100.87 335.82 1101.47H336.82C336.82 1100.61 336.51 1099.88 335.875 1099.35L335.23 1100.11ZM335.82 1101.47C335.82 1102.12 335.611 1102.56 335.237 1102.87L335.868 1103.64C336.518 1103.12 336.82 1102.36 336.82 1101.47H335.82ZM335.241 1102.86C334.844 1103.18 334.267 1103.37 333.452 1103.37V1104.37C334.413 1104.37 335.237 1104.15 335.864 1103.65L335.241 1102.86ZM333.204 1103.43L333.036 1103.53L333.532 1104.4L333.7 1104.3L333.204 1103.43ZM333.284 1103.46H331.58V1104.46H333.284V1103.46ZM331.08 1103.96V1107H332.08V1103.96H331.08ZM331.58 1106.5H329.948V1107.5H331.58V1106.5ZM330.448 1107V1099.08H329.448V1107H330.448ZM329.948 1099.58H333.44V1098.58H329.948V1099.58ZM333.248 1103.2C333.763 1103.2 334.244 1103.1 334.598 1102.81L333.963 1102.04C333.868 1102.12 333.662 1102.2 333.248 1102.2V1103.2ZM334.599 1102.81C334.979 1102.5 335.128 1102.04 335.128 1101.55H334.128C334.128 1101.84 334.046 1101.97 333.962 1102.04L334.599 1102.81ZM335.128 1101.55C335.128 1101.06 334.979 1100.6 334.591 1100.3L333.97 1101.08C334.046 1101.14 334.128 1101.26 334.128 1101.55H335.128ZM334.606 1100.31C334.252 1100 333.767 1099.9 333.248 1099.9V1100.9C333.658 1100.9 333.861 1100.99 333.955 1101.07L334.606 1100.31ZM333.248 1099.9H331.58V1100.9H333.248V1099.9ZM331.08 1100.4V1102.7H332.08V1100.4H331.08ZM331.58 1103.2H333.248V1102.2H331.58V1103.2ZM333.801 1103.32L336.369 1107.27L337.208 1106.73L334.64 1102.78L333.801 1103.32ZM336.788 1106.5H334.928V1107.5H336.788V1106.5ZM335.355 1106.74L333.231 1103.27L332.378 1103.79L334.502 1107.26L335.355 1106.74ZM332.965 1104.01L334.381 1103.53L334.06 1102.58L332.644 1103.06L332.965 1104.01ZM342.845 1100.11L342.489 1100.46L342.491 1100.47L342.845 1100.11ZM342.845 1105.97L343.2 1106.32L342.845 1105.97ZM336.905 1107H336.405V1107.5H336.905V1107ZM336.905 1099.08V1098.58H336.405V1099.08H336.905ZM341.573 1105.01L341.19 1104.69L341.19 1104.69L341.573 1105.01ZM341.573 1101.08L341.187 1101.4L341.193 1101.41L341.573 1101.08ZM338.561 1100.4V1099.9H338.061V1100.4H338.561ZM338.561 1105.68H338.061V1106.18H338.561V1105.68ZM339.965 1099.58C341.111 1099.58 341.928 1099.9 342.489 1100.46L343.2 1099.76C342.402 1098.95 341.299 1098.58 339.965 1098.58V1099.58ZM342.491 1100.47C343.05 1101.02 343.365 1101.86 343.365 1103.04H344.365C344.365 1101.68 343.999 1100.56 343.198 1099.76L342.491 1100.47ZM343.365 1103.04C343.365 1104.21 343.051 1105.05 342.489 1105.62L343.2 1106.32C343.999 1105.51 344.365 1104.39 344.365 1103.04H343.365ZM342.489 1105.62C341.928 1106.18 341.111 1106.5 339.965 1106.5V1107.5C341.299 1107.5 342.402 1107.13 343.2 1106.32L342.489 1105.62ZM339.965 1106.5H336.905V1107.5H339.965V1106.5ZM337.405 1107V1099.08H336.405V1107H337.405ZM336.905 1099.58H339.965V1098.58H336.905V1099.58ZM339.881 1106.18C340.735 1106.18 341.459 1105.92 341.956 1105.33L341.19 1104.69C340.934 1104.99 340.53 1105.18 339.881 1105.18V1106.18ZM341.955 1105.33C342.442 1104.75 342.649 1103.96 342.649 1103.04H341.649C341.649 1103.83 341.471 1104.35 341.19 1104.69L341.955 1105.33ZM342.649 1103.04C342.649 1102.12 342.442 1101.33 341.952 1100.76L341.193 1101.41C341.471 1101.73 341.649 1102.25 341.649 1103.04H342.649ZM341.958 1100.77C341.463 1100.16 340.738 1099.9 339.881 1099.9V1100.9C340.527 1100.9 340.931 1101.09 341.187 1101.4L341.958 1100.77ZM339.881 1099.9H338.561V1100.9H339.881V1099.9ZM338.061 1100.4V1105.68H339.061V1100.4H338.061ZM338.561 1106.18H339.881V1105.18H338.561V1106.18Z" fill="black" mask="url(#path-5-outside-2_95_94)"/>
<path d="M369 1277.5L364.5 1203.5L384.5 1202L399.5 1198.5C400.3 1199.7 401.833 1234.33 402.5 1251.5C403 1266 404.4 1300.2 406 1321C405.6 1339.4 411.833 1366.33 415 1377.5H412.5C360.5 1377.1 343.167 1384.67 341 1388.5L338.5 1280.5L369 1277.5Z" fill="#095888" stroke="black" stroke-width="0.5"/>
<mask id="path-8-outside-3_95_94" maskUnits="userSpaceOnUse" x="348.5" y="1329" width="52" height="10" fill="black">
<rect fill="white" x="348.5" y="1329" width="52" height="10"/>
<path d="M349.532 1338V1330.08H353C353.96 1330.08 354.668 1330.27 355.124 1330.64C355.58 1331.02 355.808 1331.55 355.808 1332.24C355.808 1332.66 355.68 1333.04 355.424 1333.37C355.168 1333.7 354.792 1333.9 354.296 1333.99V1334C354.848 1334.08 355.272 1334.29 355.568 1334.63C355.864 1334.96 356.012 1335.36 356.012 1335.83C356.012 1336.51 355.764 1337.04 355.268 1337.42C354.78 1337.81 354.064 1338 353.12 1338H349.532ZM351.14 1336.75H352.976C353.424 1336.75 353.756 1336.66 353.972 1336.48C354.188 1336.29 354.296 1336.04 354.296 1335.71C354.296 1335.37 354.188 1335.12 353.972 1334.94C353.756 1334.76 353.424 1334.68 352.976 1334.68H351.14V1336.75ZM351.14 1333.4H352.784C353.656 1333.4 354.092 1333.06 354.092 1332.38C354.092 1331.7 353.656 1331.36 352.784 1331.36H351.14V1333.4ZM358.051 1336.67H362.227V1338H356.395V1330.08H358.051V1336.67ZM362.402 1338V1330.08H368.342V1331.41H364.058V1333.38H367.43V1334.65H364.058V1336.67H368.51V1338H362.402ZM375.407 1330.08V1334.88C375.407 1335.96 375.119 1336.77 374.543 1337.32C373.967 1337.85 373.127 1338.12 372.023 1338.12C370.919 1338.12 370.079 1337.85 369.503 1337.32C368.927 1336.77 368.639 1335.96 368.639 1334.88V1330.08H370.295V1334.81C370.295 1335.47 370.435 1335.96 370.715 1336.28C371.003 1336.6 371.439 1336.76 372.023 1336.76C372.607 1336.76 373.039 1336.6 373.319 1336.28C373.599 1335.96 373.739 1335.47 373.739 1334.81V1330.08H375.407ZM381.475 1329.96C382.195 1329.96 382.827 1330.08 383.371 1330.33C383.915 1330.58 384.379 1330.95 384.763 1331.44L383.839 1332.5C383.511 1332.09 383.151 1331.78 382.759 1331.59C382.375 1331.39 381.927 1331.29 381.415 1331.29C381.079 1331.29 380.799 1331.34 380.575 1331.42C380.359 1331.51 380.199 1331.63 380.095 1331.77C379.999 1331.92 379.951 1332.08 379.951 1332.25C379.951 1332.47 380.035 1332.65 380.203 1332.8C380.371 1332.95 380.659 1333.07 381.067 1333.16L382.543 1333.5C383.327 1333.68 383.887 1333.94 384.223 1334.29C384.567 1334.64 384.739 1335.08 384.739 1335.64C384.739 1336.16 384.603 1336.6 384.331 1336.98C384.059 1337.35 383.679 1337.63 383.191 1337.83C382.703 1338.02 382.143 1338.12 381.511 1338.12C380.959 1338.12 380.451 1338.06 379.987 1337.93C379.531 1337.79 379.123 1337.61 378.763 1337.38C378.403 1337.14 378.103 1336.88 377.863 1336.57L378.799 1335.46C378.983 1335.71 379.211 1335.94 379.483 1336.14C379.755 1336.34 380.063 1336.5 380.407 1336.62C380.759 1336.73 381.127 1336.79 381.511 1336.79C381.839 1336.79 382.115 1336.75 382.339 1336.68C382.571 1336.6 382.743 1336.49 382.855 1336.36C382.975 1336.21 383.035 1336.04 383.035 1335.84C383.035 1335.63 382.963 1335.46 382.819 1335.31C382.683 1335.16 382.427 1335.04 382.051 1334.96L380.443 1334.6C379.979 1334.49 379.579 1334.35 379.243 1334.17C378.915 1333.99 378.663 1333.76 378.487 1333.48C378.319 1333.19 378.235 1332.85 378.235 1332.46C378.235 1331.98 378.363 1331.56 378.619 1331.18C378.875 1330.81 379.243 1330.51 379.723 1330.3C380.211 1330.07 380.795 1329.96 381.475 1329.96ZM391.717 1330.08V1334.88C391.717 1335.96 391.429 1336.77 390.853 1337.32C390.277 1337.85 389.437 1338.12 388.333 1338.12C387.229 1338.12 386.389 1337.85 385.813 1337.32C385.237 1336.77 384.949 1335.96 384.949 1334.88V1330.08H386.605V1334.81C386.605 1335.47 386.745 1335.96 387.025 1336.28C387.313 1336.6 387.749 1336.76 388.333 1336.76C388.917 1336.76 389.349 1336.6 389.629 1336.28C389.909 1335.96 390.049 1335.47 390.049 1334.81V1330.08H391.717ZM395.485 1330.08C396.725 1330.08 397.685 1330.42 398.365 1331.11C399.045 1331.79 399.385 1332.77 399.385 1334.04C399.385 1335.3 399.045 1336.28 398.365 1336.97C397.685 1337.66 396.725 1338 395.485 1338H392.425V1330.08H395.485ZM395.401 1336.68C396.153 1336.68 396.717 1336.46 397.093 1336.01C397.477 1335.55 397.669 1334.9 397.669 1334.04C397.669 1333.18 397.477 1332.53 397.093 1332.08C396.717 1331.63 396.153 1331.4 395.401 1331.4H394.081V1336.68H395.401Z"/>
</mask>
<path d="M349.532 1338V1330.08H353C353.96 1330.08 354.668 1330.27 355.124 1330.64C355.58 1331.02 355.808 1331.55 355.808 1332.24C355.808 1332.66 355.68 1333.04 355.424 1333.37C355.168 1333.7 354.792 1333.9 354.296 1333.99V1334C354.848 1334.08 355.272 1334.29 355.568 1334.63C355.864 1334.96 356.012 1335.36 356.012 1335.83C356.012 1336.51 355.764 1337.04 355.268 1337.42C354.78 1337.81 354.064 1338 353.12 1338H349.532ZM351.14 1336.75H352.976C353.424 1336.75 353.756 1336.66 353.972 1336.48C354.188 1336.29 354.296 1336.04 354.296 1335.71C354.296 1335.37 354.188 1335.12 353.972 1334.94C353.756 1334.76 353.424 1334.68 352.976 1334.68H351.14V1336.75ZM351.14 1333.4H352.784C353.656 1333.4 354.092 1333.06 354.092 1332.38C354.092 1331.7 353.656 1331.36 352.784 1331.36H351.14V1333.4ZM358.051 1336.67H362.227V1338H356.395V1330.08H358.051V1336.67ZM362.402 1338V1330.08H368.342V1331.41H364.058V1333.38H367.43V1334.65H364.058V1336.67H368.51V1338H362.402ZM375.407 1330.08V1334.88C375.407 1335.96 375.119 1336.77 374.543 1337.32C373.967 1337.85 373.127 1338.12 372.023 1338.12C370.919 1338.12 370.079 1337.85 369.503 1337.32C368.927 1336.77 368.639 1335.96 368.639 1334.88V1330.08H370.295V1334.81C370.295 1335.47 370.435 1335.96 370.715 1336.28C371.003 1336.6 371.439 1336.76 372.023 1336.76C372.607 1336.76 373.039 1336.6 373.319 1336.28C373.599 1335.96 373.739 1335.47 373.739 1334.81V1330.08H375.407ZM381.475 1329.96C382.195 1329.96 382.827 1330.08 383.371 1330.33C383.915 1330.58 384.379 1330.95 384.763 1331.44L383.839 1332.5C383.511 1332.09 383.151 1331.78 382.759 1331.59C382.375 1331.39 381.927 1331.29 381.415 1331.29C381.079 1331.29 380.799 1331.34 380.575 1331.42C380.359 1331.51 380.199 1331.63 380.095 1331.77C379.999 1331.92 379.951 1332.08 379.951 1332.25C379.951 1332.47 380.035 1332.65 380.203 1332.8C380.371 1332.95 380.659 1333.07 381.067 1333.16L382.543 1333.5C383.327 1333.68 383.887 1333.94 384.223 1334.29C384.567 1334.64 384.739 1335.08 384.739 1335.64C384.739 1336.16 384.603 1336.6 384.331 1336.98C384.059 1337.35 383.679 1337.63 383.191 1337.83C382.703 1338.02 382.143 1338.12 381.511 1338.12C380.959 1338.12 380.451 1338.06 379.987 1337.93C379.531 1337.79 379.123 1337.61 378.763 1337.38C378.403 1337.14 378.103 1336.88 377.863 1336.57L378.799 1335.46C378.983 1335.71 379.211 1335.94 379.483 1336.14C379.755 1336.34 380.063 1336.5 380.407 1336.62C380.759 1336.73 381.127 1336.79 381.511 1336.79C381.839 1336.79 382.115 1336.75 382.339 1336.68C382.571 1336.6 382.743 1336.49 382.855 1336.36C382.975 1336.21 383.035 1336.04 383.035 1335.84C383.035 1335.63 382.963 1335.46 382.819 1335.31C382.683 1335.16 382.427 1335.04 382.051 1334.96L380.443 1334.6C379.979 1334.49 379.579 1334.35 379.243 1334.17C378.915 1333.99 378.663 1333.76 378.487 1333.48C378.319 1333.19 378.235 1332.85 378.235 1332.46C378.235 1331.98 378.363 1331.56 378.619 1331.18C378.875 1330.81 379.243 1330.51 379.723 1330.3C380.211 1330.07 380.795 1329.96 381.475 1329.96ZM391.717 1330.08V1334.88C391.717 1335.96 391.429 1336.77 390.853 1337.32C390.277 1337.85 389.437 1338.12 388.333 1338.12C387.229 1338.12 386.389 1337.85 385.813 1337.32C385.237 1336.77 384.949 1335.96 384.949 1334.88V1330.08H386.605V1334.81C386.605 1335.47 386.745 1335.96 387.025 1336.28C387.313 1336.6 387.749 1336.76 388.333 1336.76C388.917 1336.76 389.349 1336.6 389.629 1336.28C389.909 1335.96 390.049 1335.47 390.049 1334.81V1330.08H391.717ZM395.485 1330.08C396.725 1330.08 397.685 1330.42 398.365 1331.11C399.045 1331.79 399.385 1332.77 399.385 1334.04C399.385 1335.3 399.045 1336.28 398.365 1336.97C397.685 1337.66 396.725 1338 395.485 1338H392.425V1330.08H395.485ZM395.401 1336.68C396.153 1336.68 396.717 1336.46 397.093 1336.01C397.477 1335.55 397.669 1334.9 397.669 1334.04C397.669 1333.18 397.477 1332.53 397.093 1332.08C396.717 1331.63 396.153 1331.4 395.401 1331.4H394.081V1336.68H395.401Z" fill="white"/>
<path d="M349.532 1338H349.032V1338.5H349.532V1338ZM349.532 1330.08V1329.58H349.032V1330.08H349.532ZM355.124 1330.64L355.442 1330.26V1330.26L355.124 1330.64ZM355.424 1333.37L355.818 1333.68L355.424 1333.37ZM354.296 1333.99L354.209 1333.5L353.796 1333.57V1333.99H354.296ZM354.296 1334H353.796V1334.44L354.224 1334.5L354.296 1334ZM355.568 1334.63L355.943 1334.3L355.568 1334.63ZM355.268 1337.42L354.962 1337.03L354.959 1337.03L355.268 1337.42ZM351.14 1336.75H350.64V1337.25H351.14V1336.75ZM353.972 1336.48L354.296 1336.86L353.972 1336.48ZM353.972 1334.94L354.288 1334.55L354.288 1334.55L353.972 1334.94ZM351.14 1334.68V1334.18H350.64V1334.68H351.14ZM351.14 1333.4H350.64V1333.9H351.14V1333.4ZM351.14 1331.36V1330.86H350.64V1331.36H351.14ZM350.032 1338V1330.08H349.032V1338H350.032ZM349.532 1330.58H353V1329.58H349.532V1330.58ZM353 1330.58C353.911 1330.58 354.48 1330.76 354.806 1331.03L355.442 1330.26C354.856 1329.77 354.009 1329.58 353 1329.58V1330.58ZM354.806 1331.03C355.127 1331.29 355.308 1331.67 355.308 1332.24H356.308C356.308 1331.43 356.033 1330.75 355.442 1330.26L354.806 1331.03ZM355.308 1332.24C355.308 1332.55 355.216 1332.82 355.03 1333.06L355.818 1333.68C356.144 1333.26 356.308 1332.77 356.308 1332.24H355.308ZM355.03 1333.06C354.865 1333.27 354.61 1333.43 354.209 1333.5L354.383 1334.48C354.974 1334.38 355.471 1334.12 355.818 1333.68L355.03 1333.06ZM353.796 1333.99V1334H354.796V1333.99H353.796ZM354.224 1334.5C354.689 1334.57 354.993 1334.73 355.193 1334.96L355.943 1334.3C355.551 1333.85 355.007 1333.6 354.368 1333.51L354.224 1334.5ZM355.193 1334.96C355.405 1335.2 355.512 1335.48 355.512 1335.83H356.512C356.512 1335.25 356.323 1334.73 355.943 1334.3L355.193 1334.96ZM355.512 1335.83C355.512 1336.37 355.324 1336.75 354.962 1337.03L355.574 1337.82C356.204 1337.33 356.512 1336.65 356.512 1335.83H355.512ZM354.959 1337.03C354.594 1337.32 354.007 1337.5 353.12 1337.5V1338.5C354.121 1338.5 354.966 1338.3 355.577 1337.82L354.959 1337.03ZM353.12 1337.5H349.532V1338.5H353.12V1337.5ZM351.14 1337.25H352.976V1336.25H351.14V1337.25ZM352.976 1337.25C353.478 1337.25 353.95 1337.15 354.296 1336.86L353.648 1336.1C353.562 1336.17 353.37 1336.25 352.976 1336.25V1337.25ZM354.296 1336.86C354.642 1336.56 354.796 1336.16 354.796 1335.71H353.796C353.796 1335.91 353.734 1336.02 353.648 1336.1L354.296 1336.86ZM354.796 1335.71C354.796 1335.26 354.645 1334.84 354.288 1334.55L353.656 1335.33C353.731 1335.39 353.796 1335.49 353.796 1335.71H354.796ZM354.288 1334.55C353.943 1334.27 353.474 1334.18 352.976 1334.18V1335.18C353.374 1335.18 353.569 1335.26 353.656 1335.33L354.288 1334.55ZM352.976 1334.18H351.14V1335.18H352.976V1334.18ZM350.64 1334.68V1336.75H351.64V1334.68H350.64ZM351.14 1333.9H352.784V1332.9H351.14V1333.9ZM352.784 1333.9C353.271 1333.9 353.729 1333.81 354.072 1333.54C354.44 1333.26 354.592 1332.84 354.592 1332.38H353.592C353.592 1332.61 353.526 1332.7 353.458 1332.75C353.365 1332.83 353.169 1332.9 352.784 1332.9V1333.9ZM354.592 1332.38C354.592 1331.93 354.44 1331.51 354.072 1331.22C353.729 1330.96 353.271 1330.86 352.784 1330.86V1331.86C353.169 1331.86 353.365 1331.94 353.458 1332.01C353.526 1332.07 353.592 1332.16 353.592 1332.38H354.592ZM352.784 1330.86H351.14V1331.86H352.784V1330.86ZM350.64 1331.36V1333.4H351.64V1331.36H350.64ZM358.05 1336.67H357.55V1337.17H358.05V1336.67ZM362.227 1336.67H362.727V1336.17H362.227V1336.67ZM362.227 1338V1338.5H362.727V1338H362.227ZM356.395 1338H355.895V1338.5H356.395V1338ZM356.395 1330.08V1329.58H355.895V1330.08H356.395ZM358.05 1330.08H358.55V1329.58H358.05V1330.08ZM358.05 1337.17H362.227V1336.17H358.05V1337.17ZM361.727 1336.67V1338H362.727V1336.67H361.727ZM362.227 1337.5H356.395V1338.5H362.227V1337.5ZM356.894 1338V1330.08H355.895V1338H356.894ZM356.395 1330.58H358.05V1329.58H356.395V1330.58ZM357.55 1330.08V1336.67H358.55V1330.08H357.55ZM362.402 1338H361.902V1338.5H362.402V1338ZM362.402 1330.08V1329.58H361.902V1330.08H362.402ZM368.342 1330.08H368.842V1329.58H368.342V1330.08ZM368.342 1331.41V1331.91H368.842V1331.41H368.342ZM364.058 1331.41V1330.91H363.558V1331.41H364.058ZM364.058 1333.38H363.558V1333.88H364.058V1333.38ZM367.43 1333.38H367.93V1332.88H367.43V1333.38ZM367.43 1334.65V1335.15H367.93V1334.65H367.43ZM364.058 1334.65V1334.15H363.558V1334.65H364.058ZM364.058 1336.67H363.558V1337.17H364.058V1336.67ZM368.51 1336.67H369.01V1336.17H368.51V1336.67ZM368.51 1338V1338.5H369.01V1338H368.51ZM362.902 1338V1330.08H361.902V1338H362.902ZM362.402 1330.58H368.342V1329.58H362.402V1330.58ZM367.842 1330.08V1331.41H368.842V1330.08H367.842ZM368.342 1330.91H364.058V1331.91H368.342V1330.91ZM363.558 1331.41V1333.38H364.558V1331.41H363.558ZM364.058 1333.88H367.43V1332.88H364.058V1333.88ZM366.93 1333.38V1334.65H367.93V1333.38H366.93ZM367.43 1334.15H364.058V1335.15H367.43V1334.15ZM363.558 1334.65V1336.67H364.558V1334.65H363.558ZM364.058 1337.17H368.51V1336.17H364.058V1337.17ZM368.01 1336.67V1338H369.01V1336.67H368.01ZM368.51 1337.5H362.402V1338.5H368.51V1337.5ZM375.407 1330.08H375.907V1329.58H375.407V1330.08ZM374.543 1337.32L374.884 1337.68L374.887 1337.68L374.543 1337.32ZM369.503 1337.32L369.16 1337.68L369.163 1337.68L369.503 1337.32ZM368.639 1330.08V1329.58H368.139V1330.08H368.639ZM370.295 1330.08H370.795V1329.58H370.295V1330.08ZM370.715 1336.28L370.339 1336.61L370.344 1336.62L370.715 1336.28ZM373.319 1336.28L373.696 1336.61L373.319 1336.28ZM373.739 1330.08V1329.58H373.239V1330.08H373.739ZM374.907 1330.08V1334.88H375.907V1330.08H374.907ZM374.907 1334.88C374.907 1335.87 374.644 1336.53 374.2 1336.95L374.887 1337.68C375.595 1337.01 375.907 1336.05 375.907 1334.88H374.907ZM374.203 1336.95C373.751 1337.37 373.052 1337.62 372.023 1337.62V1338.62C373.203 1338.62 374.184 1338.33 374.884 1337.68L374.203 1336.95ZM372.023 1337.62C370.995 1337.62 370.296 1337.37 369.844 1336.95L369.163 1337.68C369.863 1338.33 370.844 1338.62 372.023 1338.62V1337.62ZM369.847 1336.95C369.403 1336.53 369.139 1335.87 369.139 1334.88H368.139C368.139 1336.05 368.452 1337.01 369.16 1337.68L369.847 1336.95ZM369.139 1334.88V1330.08H368.139V1334.88H369.139ZM368.639 1330.58H370.295V1329.58H368.639V1330.58ZM369.795 1330.08V1334.81H370.795V1330.08H369.795ZM369.795 1334.81C369.795 1335.53 369.945 1336.16 370.339 1336.61L371.092 1335.95C370.926 1335.77 370.795 1335.42 370.795 1334.81H369.795ZM370.344 1336.62C370.757 1337.08 371.35 1337.26 372.023 1337.26V1336.26C371.528 1336.26 371.25 1336.13 371.087 1335.95L370.344 1336.62ZM372.023 1337.26C372.695 1337.26 373.289 1337.08 373.696 1336.61L372.943 1335.95C372.79 1336.13 372.519 1336.26 372.023 1336.26V1337.26ZM373.696 1336.61C374.09 1336.16 374.239 1335.53 374.239 1334.81H373.239C373.239 1335.42 373.109 1335.77 372.943 1335.95L373.696 1336.61ZM374.239 1334.81V1330.08H373.239V1334.81H374.239ZM373.739 1330.58H375.407V1329.58H373.739V1330.58ZM383.371 1330.33L383.578 1329.88L383.371 1330.33ZM384.763 1331.44L385.141 1331.76L385.411 1331.45L385.156 1331.13L384.763 1331.44ZM383.839 1332.5L383.446 1332.81L383.821 1333.29L384.217 1332.83L383.839 1332.5ZM382.759 1331.59L382.528 1332.04L382.539 1332.04L382.759 1331.59ZM380.575 1331.42L380.392 1330.96L380.386 1330.96L380.575 1331.42ZM380.095 1331.77L379.689 1331.48L379.684 1331.49L379.679 1331.49L380.095 1331.77ZM380.203 1332.8L379.867 1333.17L379.877 1333.18L380.203 1332.8ZM381.067 1333.16L380.952 1333.65L380.956 1333.65L381.067 1333.16ZM382.543 1333.5L382.432 1333.99L382.433 1333.99L382.543 1333.5ZM384.223 1334.29L383.861 1334.64L383.869 1334.65L384.223 1334.29ZM384.331 1336.98L384.733 1337.28L384.736 1337.27L384.331 1336.98ZM383.191 1337.83L383.374 1338.3L383.38 1338.29L383.191 1337.83ZM379.987 1337.93L379.844 1338.41L379.854 1338.41L379.987 1337.93ZM378.763 1337.38L378.492 1337.8L378.763 1337.38ZM377.863 1336.57L377.48 1336.25L377.218 1336.56L377.47 1336.88L377.863 1336.57ZM378.799 1335.46L379.205 1335.16L378.829 1334.64L378.416 1335.13L378.799 1335.46ZM379.483 1336.14L379.187 1336.54L379.483 1336.14ZM380.407 1336.62L380.242 1337.09L380.255 1337.1L380.407 1336.62ZM382.339 1336.68L382.492 1337.16L382.502 1337.15L382.339 1336.68ZM382.855 1336.36L382.471 1336.04L382.469 1336.04L382.855 1336.36ZM382.819 1335.31L382.446 1335.65L382.455 1335.66L382.465 1335.67L382.819 1335.31ZM382.051 1334.96L381.942 1335.45L381.947 1335.45L382.051 1334.96ZM380.443 1334.6L380.325 1335.09L380.334 1335.09L380.443 1334.6ZM379.243 1334.17L378.998 1334.61L379.004 1334.61L379.011 1334.61L379.243 1334.17ZM378.487 1333.48L378.055 1333.73L378.059 1333.74L378.063 1333.74L378.487 1333.48ZM378.619 1331.18L378.205 1330.9V1330.9L378.619 1331.18ZM379.723 1330.3L379.928 1330.75L379.931 1330.75L379.723 1330.3ZM381.475 1330.46C382.138 1330.46 382.696 1330.57 383.163 1330.79L383.578 1329.88C382.957 1329.59 382.252 1329.46 381.475 1329.46V1330.46ZM383.163 1330.79C383.632 1331 384.033 1331.32 384.37 1331.75L385.156 1331.13C384.724 1330.58 384.198 1330.16 383.578 1329.88L383.163 1330.79ZM384.385 1331.11L383.461 1332.18L384.217 1332.83L385.141 1331.76L384.385 1331.11ZM384.231 1332.19C383.867 1331.73 383.451 1331.37 382.979 1331.14L382.539 1332.04C382.851 1332.19 383.155 1332.44 383.446 1332.81L384.231 1332.19ZM382.99 1331.15C382.522 1330.91 381.993 1330.79 381.415 1330.79V1331.79C381.861 1331.79 382.227 1331.88 382.528 1332.04L382.99 1331.15ZM381.415 1330.79C381.039 1330.79 380.692 1330.84 380.392 1330.96L380.758 1331.89C380.905 1331.83 381.118 1331.79 381.415 1331.79V1330.79ZM380.386 1330.96C380.11 1331.07 379.863 1331.24 379.689 1331.48L380.5 1332.06C380.535 1332.02 380.608 1331.95 380.763 1331.89L380.386 1330.96ZM379.679 1331.49C379.527 1331.72 379.451 1331.98 379.451 1332.25H380.451C380.451 1332.17 380.471 1332.11 380.511 1332.05L379.679 1331.49ZM379.451 1332.25C379.451 1332.62 379.6 1332.93 379.867 1333.17L380.538 1332.43C380.469 1332.37 380.451 1332.32 380.451 1332.25H379.451ZM379.877 1333.18C380.139 1333.41 380.524 1333.55 380.952 1333.65L381.181 1332.68C380.793 1332.59 380.602 1332.49 380.528 1332.42L379.877 1333.18ZM380.956 1333.65L382.432 1333.99L382.654 1333.01L381.178 1332.68L380.956 1333.65ZM382.433 1333.99C383.178 1334.15 383.625 1334.39 383.861 1334.64L384.584 1333.95C384.149 1333.49 383.476 1333.2 382.652 1333.01L382.433 1333.99ZM383.869 1334.65C384.107 1334.88 384.239 1335.2 384.239 1335.64H385.239C385.239 1334.97 385.027 1334.39 384.576 1333.94L383.869 1334.65ZM384.239 1335.64C384.239 1336.06 384.129 1336.41 383.926 1336.69L384.736 1337.27C385.077 1336.8 385.239 1336.25 385.239 1335.64H384.239ZM383.929 1336.68C383.719 1336.97 383.418 1337.2 383.001 1337.37L383.38 1338.29C383.94 1338.07 384.399 1337.73 384.733 1337.28L383.929 1336.68ZM383.008 1337.37C382.589 1337.53 382.093 1337.62 381.511 1337.62V1338.62C382.193 1338.62 382.817 1338.52 383.374 1338.3L383.008 1337.37ZM381.511 1337.62C380.997 1337.62 380.535 1337.56 380.12 1337.45L379.854 1338.41C380.367 1338.55 380.92 1338.62 381.511 1338.62V1337.62ZM380.13 1337.45C379.714 1337.32 379.35 1337.16 379.034 1336.96L378.492 1337.8C378.896 1338.06 379.348 1338.26 379.844 1338.41L380.13 1337.45ZM379.034 1336.96C378.715 1336.75 378.458 1336.52 378.255 1336.26L377.47 1336.88C377.748 1337.23 378.09 1337.54 378.492 1337.8L379.034 1336.96ZM378.246 1336.89L379.182 1335.78L378.416 1335.13L377.48 1336.25L378.246 1336.89ZM378.393 1335.75C378.609 1336.05 378.875 1336.31 379.187 1336.54L379.779 1335.74C379.546 1335.57 379.356 1335.37 379.205 1335.16L378.393 1335.75ZM379.187 1336.54C379.502 1336.77 379.855 1336.96 380.242 1337.09L380.571 1336.15C380.271 1336.04 380.008 1335.91 379.779 1335.74L379.187 1336.54ZM380.255 1337.1C380.658 1337.22 381.077 1337.29 381.511 1337.29V1336.29C381.176 1336.29 380.859 1336.24 380.558 1336.14L380.255 1337.1ZM381.511 1337.29C381.872 1337.29 382.203 1337.25 382.492 1337.16L382.186 1336.2C382.026 1336.26 381.806 1336.29 381.511 1336.29V1337.29ZM382.502 1337.15C382.788 1337.05 383.051 1336.9 383.241 1336.67L382.469 1336.04C382.434 1336.08 382.353 1336.15 382.176 1336.21L382.502 1337.15ZM383.239 1336.68C383.439 1336.44 383.535 1336.15 383.535 1335.84H382.535C382.535 1335.93 382.511 1335.99 382.471 1336.04L383.239 1336.68ZM383.535 1335.84C383.535 1335.5 383.412 1335.2 383.172 1334.96L382.465 1335.67C382.513 1335.71 382.535 1335.76 382.535 1335.84H383.535ZM383.191 1334.98C382.945 1334.7 382.556 1334.56 382.155 1334.47L381.947 1335.45C382.298 1335.53 382.42 1335.62 382.446 1335.65L383.191 1334.98ZM382.16 1334.48L380.552 1334.12L380.334 1335.09L381.942 1335.45L382.16 1334.48ZM380.56 1334.12C380.126 1334.01 379.767 1333.88 379.475 1333.73L379.011 1334.61C379.391 1334.81 379.831 1334.97 380.325 1335.09L380.56 1334.12ZM379.487 1333.74C379.222 1333.59 379.036 1333.41 378.91 1333.21L378.063 1333.74C378.29 1334.1 378.607 1334.39 378.998 1334.61L379.487 1333.74ZM378.919 1333.22C378.803 1333.03 378.735 1332.78 378.735 1332.46H377.735C377.735 1332.92 377.835 1333.35 378.055 1333.73L378.919 1333.22ZM378.735 1332.46C378.735 1332.08 378.835 1331.76 379.032 1331.47L378.205 1330.9C377.891 1331.36 377.735 1331.89 377.735 1332.46H378.735ZM379.032 1331.47C379.228 1331.18 379.519 1330.94 379.928 1330.75L379.518 1329.84C378.967 1330.09 378.521 1330.44 378.205 1330.9L379.032 1331.47ZM379.931 1330.75C380.339 1330.56 380.848 1330.46 381.475 1330.46V1329.46C380.741 1329.46 380.083 1329.58 379.514 1329.84L379.931 1330.75ZM391.717 1330.08H392.217V1329.58H391.717V1330.08ZM390.853 1337.32L391.194 1337.68L391.197 1337.68L390.853 1337.32ZM385.813 1337.32L385.47 1337.68L385.473 1337.68L385.813 1337.32ZM384.949 1330.08V1329.58H384.449V1330.08H384.949ZM386.605 1330.08H387.105V1329.58H386.605V1330.08ZM387.025 1336.28L386.649 1336.61L386.654 1336.62L387.025 1336.28ZM389.629 1336.28L390.006 1336.61L389.629 1336.28ZM390.049 1330.08V1329.58H389.549V1330.08H390.049ZM391.217 1330.08V1334.88H392.217V1330.08H391.217ZM391.217 1334.88C391.217 1335.87 390.954 1336.53 390.51 1336.95L391.197 1337.68C391.905 1337.01 392.217 1336.05 392.217 1334.88H391.217ZM390.513 1336.95C390.061 1337.37 389.362 1337.62 388.333 1337.62V1338.62C389.513 1338.62 390.494 1338.33 391.194 1337.68L390.513 1336.95ZM388.333 1337.62C387.305 1337.62 386.606 1337.37 386.154 1336.95L385.473 1337.68C386.173 1338.33 387.154 1338.62 388.333 1338.62V1337.62ZM386.157 1336.95C385.713 1336.53 385.449 1335.87 385.449 1334.88H384.449C384.449 1336.05 384.762 1337.01 385.47 1337.68L386.157 1336.95ZM385.449 1334.88V1330.08H384.449V1334.88H385.449ZM384.949 1330.58H386.605V1329.58H384.949V1330.58ZM386.105 1330.08V1334.81H387.105V1330.08H386.105ZM386.105 1334.81C386.105 1335.53 386.255 1336.16 386.649 1336.61L387.402 1335.95C387.236 1335.77 387.105 1335.42 387.105 1334.81H386.105ZM386.654 1336.62C387.067 1337.08 387.66 1337.26 388.333 1337.26V1336.26C387.838 1336.26 387.56 1336.13 387.397 1335.95L386.654 1336.62ZM388.333 1337.26C389.005 1337.26 389.599 1337.08 390.006 1336.61L389.253 1335.95C389.1 1336.13 388.829 1336.26 388.333 1336.26V1337.26ZM390.006 1336.61C390.4 1336.16 390.549 1335.53 390.549 1334.81H389.549C389.549 1335.42 389.419 1335.77 389.253 1335.95L390.006 1336.61ZM390.549 1334.81V1330.08H389.549V1334.81H390.549ZM390.049 1330.58H391.717V1329.58H390.049V1330.58ZM398.365 1331.11L398.009 1331.46L398.011 1331.47L398.365 1331.11ZM398.365 1336.97L398.721 1337.32L398.365 1336.97ZM392.425 1338H391.925V1338.5H392.425V1338ZM392.425 1330.08V1329.58H391.925V1330.08H392.425ZM397.093 1336.01L396.711 1335.69L396.71 1335.69L397.093 1336.01ZM397.093 1332.08L396.707 1332.4L396.713 1332.41L397.093 1332.08ZM394.081 1331.4V1330.9H393.581V1331.4H394.081ZM394.081 1336.68H393.581V1337.18H394.081V1336.68ZM395.485 1330.58C396.631 1330.58 397.448 1330.9 398.009 1331.46L398.721 1330.76C397.922 1329.95 396.819 1329.58 395.485 1329.58V1330.58ZM398.011 1331.47C398.57 1332.02 398.885 1332.86 398.885 1334.04H399.885C399.885 1332.68 399.52 1331.56 398.719 1330.76L398.011 1331.47ZM398.885 1334.04C398.885 1335.21 398.571 1336.05 398.009 1336.62L398.721 1337.32C399.519 1336.51 399.885 1335.39 399.885 1334.04H398.885ZM398.009 1336.62C397.448 1337.18 396.631 1337.5 395.485 1337.5V1338.5C396.819 1338.5 397.922 1338.13 398.721 1337.32L398.009 1336.62ZM395.485 1337.5H392.425V1338.5H395.485V1337.5ZM392.925 1338V1330.08H391.925V1338H392.925ZM392.425 1330.58H395.485V1329.58H392.425V1330.58ZM395.401 1337.18C396.255 1337.18 396.979 1336.92 397.476 1336.33L396.71 1335.69C396.455 1335.99 396.051 1336.18 395.401 1336.18V1337.18ZM397.475 1336.33C397.962 1335.75 398.169 1334.96 398.169 1334.04H397.169C397.169 1334.83 396.991 1335.35 396.711 1335.69L397.475 1336.33ZM398.169 1334.04C398.169 1333.12 397.963 1332.33 397.473 1331.76L396.713 1332.41C396.991 1332.73 397.169 1333.25 397.169 1334.04H398.169ZM397.479 1331.77C396.983 1331.16 396.258 1330.9 395.401 1330.9V1331.9C396.048 1331.9 396.451 1332.09 396.707 1332.4L397.479 1331.77ZM395.401 1330.9H394.081V1331.9H395.401V1330.9ZM393.581 1331.4V1336.68H394.581V1331.4H393.581ZM394.081 1337.18H395.401V1336.18H394.081V1337.18Z" fill="black" mask="url(#path-8-outside-3_95_94)"/>
</svg>
