<?xml version="1.0" encoding="utf-8"?>
<svg xmlns="http://www.w3.org/2000/svg" viewBox="0 0 500 500" xmlns:bx="https://boxy-svg.com" width="500px" height="500px"><defs><bx:export><bx:file format="svg" path="icon.svg"/></bx:export></defs><g transform="matrix(1, 0, 0, 1, -0.235737, -2.90047)"><path d="M 156.393 108.113 C 157.142 108.117 157.89 108.113 158.634 108.109 C 178.462 107.982 199.513 112.314 214.559 126.112 C 214.784 126.318 215.014 126.523 215.247 126.737 C 218.454 129.802 220.945 133.492 222.94 137.439 C 223.067 137.681 223.067 137.681 223.194 137.926 C 225.233 141.917 226.484 146.181 227.133 150.612 C 227.169 150.841 227.204 151.075 227.24 151.312 C 228.123 158.894 226.955 166.738 223.467 173.532 C 223.34 173.793 223.21 174.054 223.079 174.323 C 221.036 178.362 218.332 182.012 215.342 185.386 C 215.026 185.754 214.709 186.122 214.392 186.49 C 214.099 186.823 213.806 187.159 213.509 187.492 C 213.256 187.789 213.256 187.789 212.995 188.086 C 207.131 194.749 207.131 194.749 204.601 195.925 C 204.601 196.099 204.601 196.274 204.601 196.452 C 204.185 196.828 203.75 197.188 203.306 197.537 C 202.107 198.503 200.955 199.5 199.826 200.554 C 199.363 200.93 199.363 200.93 198.836 200.93 C 198.749 201.191 198.666 201.452 198.575 201.722 C 198.104 202.145 198.104 202.145 197.478 202.624 C 196.338 203.519 195.23 204.442 194.137 205.392 C 193.056 206.33 191.971 207.257 190.862 208.159 C 189.374 209.375 187.929 210.638 186.484 211.905 C 185.514 212.752 184.536 213.591 183.558 214.431 C 182.508 215.333 181.471 216.244 180.45 217.182 C 176.752 220.548 176.752 220.548 175.255 221.213 C 175.255 221.387 175.255 221.561 175.255 221.739 C 174.827 222.124 174.384 222.488 173.929 222.844 C 172.88 223.687 171.91 224.547 170.975 225.517 C 170.354 226.146 169.684 226.724 169.015 227.306 C 167.447 228.672 165.915 230.062 164.462 231.55 C 164.011 231.998 163.54 232.41 163.057 232.825 C 161.703 234.009 160.444 235.284 159.177 236.559 C 158.919 236.816 158.662 237.074 158.405 237.335 C 157.87 237.869 157.336 238.408 156.801 238.946 C 156.12 239.631 155.439 240.316 154.758 241.001 C 154.228 241.532 153.701 242.066 153.17 242.597 C 152.798 242.969 152.426 243.345 152.058 243.717 C 150.882 244.901 149.742 246.093 148.665 247.368 C 148.249 247.847 147.806 248.298 147.354 248.746 C 145.699 250.385 144.25 252.194 142.797 254.007 C 142.29 254.617 141.756 255.163 141.198 255.726 C 140.825 256.165 140.461 256.613 140.101 257.06 C 139.891 257.317 139.685 257.575 139.471 257.84 C 139.262 258.097 139.052 258.359 138.838 258.624 C 138.462 259.083 138.086 259.546 137.71 260.006 C 137.298 260.512 136.89 261.015 136.478 261.522 C 136.359 261.672 136.237 261.819 136.114 261.973 C 134.352 264.147 132.677 266.356 131.074 268.649 C 130.381 269.638 129.672 270.616 128.964 271.598 C 128.413 272.366 127.863 273.134 127.309 273.903 C 127.126 274.156 126.948 274.409 126.758 274.671 C 123.856 278.432 123.856 278.432 122.854 282.862 C 122.985 283.579 122.985 283.579 123.381 284.177 C 125.072 285.238 126.683 285.27 128.611 285.27 C 128.849 285.27 129.09 285.27 129.336 285.27 C 130.135 285.274 130.939 285.274 131.739 285.274 C 132.321 285.274 132.899 285.278 133.477 285.278 C 135.073 285.281 136.668 285.281 138.264 285.285 C 139.808 285.285 141.348 285.289 142.892 285.293 C 146.048 285.297 149.203 285.305 152.359 285.309 C 155.487 285.313 158.61 285.317 161.734 285.321 C 161.928 285.325 162.122 285.325 162.324 285.325 C 163.31 285.325 164.296 285.329 165.282 285.329 C 172.27 285.341 179.262 285.353 186.25 285.365 C 193.04 285.373 199.83 285.384 206.62 285.396 C 206.826 285.396 207.036 285.396 207.254 285.396 C 209.352 285.4 211.455 285.404 213.557 285.408 C 217.837 285.416 222.117 285.424 226.401 285.432 C 226.694 285.432 226.694 285.432 226.995 285.432 C 240.143 285.456 253.288 285.475 266.437 285.495 C 266.266 286.168 266.1 286.841 265.934 287.514 C 265.886 287.705 265.843 287.891 265.791 288.085 C 265.431 289.538 265.051 290.979 264.647 292.42 C 264.58 292.662 264.512 292.903 264.445 293.152 C 264.223 293.94 264.002 294.732 263.784 295.524 C 263.665 295.936 263.665 295.936 263.546 296.355 C 263.214 297.547 262.881 298.739 262.545 299.931 C 262.01 301.831 261.484 303.736 260.957 305.636 C 260.537 307.148 260.118 308.661 259.694 310.169 C 259.437 311.092 259.179 312.014 258.926 312.937 C 258.641 313.978 258.352 315.015 258.059 316.053 C 257.976 316.362 257.893 316.67 257.805 316.987 C 256.923 320.087 255.584 322.554 252.809 324.288 C 250.505 325.527 248.276 325.614 245.71 325.606 C 245.362 325.606 245.017 325.606 244.661 325.606 C 243.703 325.61 242.741 325.606 241.782 325.606 C 240.737 325.606 239.692 325.606 238.651 325.606 C 236.817 325.61 234.988 325.61 233.159 325.61 C 230.435 325.606 227.715 325.606 224.995 325.61 C 220.133 325.61 215.275 325.61 210.413 325.61 C 206.161 325.61 201.909 325.61 197.657 325.61 C 197.375 325.61 197.09 325.61 196.801 325.61 C 195.657 325.61 194.513 325.61 193.369 325.61 C 182.631 325.61 171.894 325.61 161.16 325.606 C 151.614 325.606 142.069 325.606 132.527 325.606 C 121.809 325.61 111.091 325.61 100.37 325.61 C 99.23 325.61 98.089 325.61 96.945 325.61 C 96.664 325.61 96.383 325.61 96.094 325.61 C 91.842 325.606 87.593 325.61 83.341 325.61 C 78.507 325.61 73.677 325.61 68.846 325.61 C 66.138 325.606 63.434 325.606 60.726 325.61 C 58.92 325.61 57.115 325.61 55.31 325.606 C 54.28 325.606 53.251 325.606 52.221 325.606 C 51.113 325.61 50.008 325.606 48.9 325.606 C 48.575 325.606 48.254 325.606 47.922 325.61 C 47.629 325.606 47.332 325.606 47.031 325.606 C 46.777 325.606 46.524 325.606 46.263 325.606 C 45.51 325.535 44.94 325.325 44.255 325.013 C 44.255 324.838 44.255 324.664 44.255 324.486 C 44.081 324.486 43.907 324.486 43.729 324.486 C 43.076 322.336 43.325 320.776 43.958 318.658 C 44.046 318.357 44.129 318.06 44.216 317.751 C 44.485 316.833 44.758 315.914 45.039 315 C 45.122 314.73 45.206 314.461 45.289 314.18 C 47.352 307.469 50.159 301.051 53.164 294.716 C 53.298 294.427 53.298 294.427 53.437 294.13 C 56.117 288.453 59.269 282.969 62.694 277.719 C 63.161 276.999 63.616 276.278 64.071 275.554 C 65.002 274.085 65.976 272.651 66.97 271.23 C 67.338 270.704 67.702 270.177 68.066 269.65 C 69.678 267.33 71.337 265.066 73.075 262.84 C 73.388 262.437 73.696 262.037 74.009 261.637 C 74.152 261.451 74.298 261.265 74.449 261.071 C 74.983 260.374 75.502 259.661 76.02 258.952 C 77.109 257.491 78.265 256.098 79.445 254.712 C 80.083 253.96 80.708 253.2 81.33 252.432 C 83.298 250.005 85.309 247.621 87.419 245.309 C 87.91 244.77 88.389 244.228 88.86 243.674 C 89.929 242.434 91.05 241.247 92.166 240.055 C 93.124 239.022 94.067 237.98 94.981 236.907 C 95.512 236.302 96.082 235.739 96.656 235.177 C 96.803 235.019 96.949 234.86 97.096 234.698 C 97.44 234.385 97.44 234.385 97.967 234.385 C 98.018 234.247 98.073 234.108 98.125 233.966 C 98.648 233.055 99.36 232.39 100.101 231.653 C 100.259 231.495 100.417 231.333 100.58 231.17 C 100.916 230.834 101.253 230.497 101.589 230.161 C 102.104 229.646 102.619 229.135 103.129 228.621 C 103.454 228.292 103.783 227.963 104.111 227.635 C 104.262 227.484 104.416 227.33 104.571 227.176 C 105.39 226.36 106.226 225.616 107.136 224.903 C 107.58 224.471 108.015 224.032 108.447 223.584 C 108.692 223.335 108.942 223.082 109.187 222.828 C 109.314 222.702 109.44 222.571 109.571 222.44 C 110.751 221.245 111.939 220.088 113.214 218.996 C 113.709 218.56 114.172 218.097 114.635 217.626 C 115.415 216.83 116.211 216.101 117.09 215.421 C 117.264 215.421 117.438 215.421 117.616 215.421 C 117.703 215.159 117.791 214.898 117.878 214.629 C 118.234 214.26 118.234 214.26 118.713 213.853 C 118.994 213.615 118.994 213.615 119.283 213.37 C 119.513 213.176 119.738 212.982 119.972 212.784 C 120.574 212.269 121.176 211.754 121.774 211.236 C 121.936 211.101 122.094 210.962 122.257 210.824 C 123.183 210.024 124.098 209.216 125 208.389 C 126.113 207.375 127.265 206.421 128.429 205.475 C 129.13 204.893 129.803 204.295 130.472 203.677 C 131.731 202.525 133.046 201.46 134.384 200.403 C 134.819 200.051 135.259 199.702 135.694 199.35 C 135.912 199.176 136.13 198.998 136.351 198.819 C 136.775 198.479 137.199 198.138 137.622 197.794 C 140.358 195.589 143.11 193.415 145.921 191.309 C 147.235 190.323 148.534 189.309 149.821 188.284 C 150.834 187.48 151.848 186.684 152.873 185.896 C 153.079 185.734 153.079 185.734 153.293 185.572 C 154.006 185.021 154.714 184.475 155.427 183.929 C 157.636 182.23 159.822 180.5 161.912 178.651 C 162.681 178.01 162.681 178.01 163.203 178.01 C 163.203 177.835 163.203 177.661 163.203 177.483 C 163.643 177.087 164.102 176.711 164.565 176.347 C 165.357 175.717 166.097 175.103 166.806 174.375 C 167.396 173.793 167.396 173.793 167.923 173.793 C 167.986 173.643 168.049 173.492 168.117 173.338 C 168.497 172.649 168.948 172.174 169.494 171.603 C 172.602 168.171 175.148 164.045 175.065 159.239 C 174.729 155.838 173.426 152.354 170.801 150.085 C 170.631 149.911 170.46 149.737 170.286 149.554 C 164.791 144.122 156.286 143.172 148.954 143.168 C 136.985 143.307 125.21 147.432 114.532 152.575 C 113.677 152.987 112.818 153.395 111.959 153.803 C 109.512 154.971 107.081 156.151 104.697 157.445 C 103.454 158.114 102.211 158.768 100.928 159.354 C 100.694 159.46 100.461 159.567 100.223 159.678 C 99.305 159.884 98.81 159.698 97.967 159.306 C 96.268 157.794 95.171 155.386 94.007 153.446 C 93.287 152.247 92.538 151.063 91.774 149.887 C 91.656 149.701 91.533 149.515 91.41 149.321 C 91.172 148.957 90.935 148.588 90.697 148.224 C 88.445 144.748 86.247 141.232 84.078 137.704 C 83.931 137.475 83.785 137.249 83.63 137.015 C 83.135 136.093 83.286 135.535 83.555 134.541 C 85.558 131.825 89.157 130.012 91.941 128.218 C 92.131 128.095 92.325 127.969 92.523 127.838 C 99.158 123.534 106.329 119.781 113.685 116.891 C 113.958 116.784 114.227 116.673 114.504 116.562 C 123.939 112.793 133.727 110.005 143.815 108.723 C 143.985 108.703 144.151 108.679 144.325 108.655 C 148.336 108.125 152.355 108.105 156.393 108.113 Z" fill="#fff" style=""/><path d="M 416.041 108.723 C 416.488 110.338 416.12 111.593 415.665 113.149 C 415.593 113.399 415.522 113.652 415.447 113.913 C 415.213 114.749 414.972 115.58 414.73 116.412 C 414.564 117.001 414.398 117.591 414.227 118.181 C 413.788 119.725 413.345 121.27 412.901 122.814 C 412.474 124.294 412.05 125.779 411.626 127.26 C 411.131 128.99 410.632 130.716 410.138 132.447 C 408.938 136.616 407.766 140.793 406.61 144.974 C 406.547 145.207 406.479 145.445 406.412 145.686 C 406.345 145.928 406.281 146.169 406.21 146.415 C 405.272 149.82 404.317 153.221 403.367 156.622 C 403.292 156.883 403.292 156.883 403.217 157.152 C 402.425 159.979 401.637 162.802 400.845 165.629 C 400.758 165.93 400.758 165.93 400.675 166.239 C 397.753 176.659 394.831 187.08 391.889 197.493 C 391.743 198.012 391.596 198.526 391.45 199.045 C 391.264 199.702 391.078 200.36 390.892 201.017 C 390.448 202.589 390.009 204.16 389.573 205.736 C 389.49 206.041 389.407 206.342 389.32 206.655 C 389.161 207.225 389.007 207.791 388.853 208.361 C 388.781 208.611 388.714 208.864 388.643 209.125 C 388.552 209.45 388.552 209.45 388.461 209.786 C 388.255 210.452 388.009 211.089 387.744 211.73 C 387.942 211.608 388.14 211.489 388.342 211.362 C 399.115 204.944 411.207 202.458 423.623 202.442 C 423.837 202.442 424.054 202.442 424.272 202.442 C 428.556 202.446 432.753 202.743 437.001 203.301 C 437.227 203.329 437.452 203.361 437.682 203.388 C 442.362 204.042 447.113 205.273 451.413 207.253 C 451.579 207.328 451.745 207.407 451.92 207.482 C 455.99 209.371 459.474 211.742 462.677 214.89 C 462.974 215.167 462.974 215.167 463.275 215.452 C 464.593 216.715 465.611 218.101 466.608 219.633 C 466.763 219.867 466.917 220.096 467.076 220.334 C 473.656 230.418 474.792 243.321 472.472 254.958 C 471.72 258.382 470.714 261.752 469.72 265.113 C 469.261 266.669 468.822 268.233 468.386 269.797 C 468.228 270.379 468.065 270.961 467.903 271.543 C 467.82 271.844 467.737 272.145 467.65 272.454 C 466.846 275.344 466.038 278.23 465.231 281.116 C 465.183 281.295 465.132 281.469 465.08 281.655 C 463.223 288.298 461.354 294.942 459.478 301.582 C 459.272 302.31 459.07 303.035 458.864 303.759 C 458.813 303.933 458.765 304.112 458.714 304.294 C 458.029 306.717 457.348 309.144 456.675 311.571 C 456.445 312.402 456.215 313.23 455.982 314.061 C 455.776 314.806 455.57 315.55 455.368 316.294 C 453.282 323.817 453.282 323.817 450.95 325.167 C 449.413 325.804 447.727 325.646 446.092 325.638 C 445.711 325.638 445.331 325.638 444.951 325.638 C 443.922 325.642 442.896 325.638 441.867 325.634 C 440.79 325.634 439.709 325.634 438.632 325.634 C 436.823 325.634 435.014 325.63 433.204 325.626 C 431.114 325.622 429.023 325.622 426.933 325.622 C 424.921 325.622 422.906 325.622 420.895 325.618 C 420.04 325.618 419.181 325.618 418.325 325.618 C 417.32 325.618 416.31 325.618 415.304 325.614 C 414.932 325.61 414.564 325.61 414.196 325.61 C 413.689 325.614 413.186 325.61 412.679 325.606 C 412.398 325.606 412.113 325.606 411.824 325.606 C 411.024 325.535 410.462 325.385 409.754 325.013 C 409.077 323.991 408.863 323.088 409.045 321.857 C 409.179 321.267 409.342 320.689 409.512 320.107 C 409.571 319.885 409.635 319.66 409.698 319.43 C 409.912 318.678 410.126 317.925 410.343 317.173 C 410.494 316.631 410.648 316.088 410.799 315.546 C 411.135 314.346 411.476 313.151 411.816 311.955 C 412.351 310.066 412.885 308.178 413.416 306.289 C 414.315 303.09 415.217 299.895 416.12 296.696 C 417.189 292.919 418.254 289.142 419.315 285.365 C 420.341 281.726 421.362 278.088 422.391 274.449 C 422.558 273.859 422.724 273.269 422.89 272.679 C 422.946 272.485 423.001 272.291 423.057 272.089 C 423.167 271.697 423.278 271.301 423.393 270.909 C 423.658 269.955 423.928 269.005 424.197 268.051 C 424.838 265.782 425.48 263.517 426.113 261.249 C 426.264 260.722 426.41 260.196 426.557 259.669 C 426.85 258.636 427.135 257.598 427.424 256.565 C 427.511 256.256 427.594 255.951 427.685 255.635 C 428.425 252.954 428.98 250.365 428.96 247.574 C 428.96 247.348 428.96 247.118 428.956 246.885 C 428.897 243.5 428.041 240.38 425.686 237.877 C 421.524 233.974 415.514 233.011 410.015 232.806 C 409.758 232.794 409.496 232.786 409.231 232.774 C 401.748 232.616 394 234.057 387.744 238.337 C 387.503 238.499 387.261 238.657 387.012 238.82 C 379.667 243.884 376.603 251.624 374.302 259.946 C 374.199 260.322 374.097 260.695 373.99 261.067 C 373.772 261.859 373.55 262.646 373.332 263.438 C 372.806 265.327 372.279 267.211 371.753 269.1 C 371.634 269.528 371.515 269.955 371.396 270.379 C 370.276 274.397 369.14 278.408 367.995 282.415 C 366.705 286.944 365.426 291.478 364.163 296.015 C 364.092 296.28 364.016 296.542 363.941 296.815 C 363.173 299.582 362.401 302.354 361.637 305.125 C 361.257 306.507 360.873 307.885 360.489 309.267 C 360.259 310.102 360.029 310.937 359.8 311.773 C 359.542 312.699 359.285 313.63 359.028 314.556 C 358.952 314.829 358.877 315.103 358.802 315.384 C 357.836 318.848 356.704 322.221 353.493 324.173 C 351.754 325.08 350.103 325.571 348.148 325.575 C 347.815 325.579 347.486 325.579 347.146 325.579 C 346.782 325.579 346.417 325.579 346.053 325.583 C 345.665 325.583 345.281 325.583 344.897 325.587 C 343.852 325.587 342.807 325.591 341.761 325.591 C 341.108 325.591 340.459 325.595 339.805 325.595 C 337.762 325.599 335.716 325.599 333.673 325.602 C 331.317 325.602 328.957 325.606 326.601 325.614 C 324.776 325.622 322.955 325.622 321.13 325.622 C 320.041 325.622 318.952 325.626 317.863 325.63 C 316.842 325.634 315.816 325.634 314.791 325.634 C 314.419 325.634 314.043 325.634 313.667 325.634 C 313.152 325.638 312.641 325.638 312.126 325.634 C 311.695 325.634 311.695 325.634 311.255 325.638 C 310.321 325.523 309.687 325.23 308.88 324.747 C 308.246 323.852 308.329 323.116 308.48 322.043 C 308.769 320.535 309.2 319.066 309.624 317.593 C 309.727 317.221 309.834 316.853 309.937 316.48 C 310.218 315.487 310.499 314.493 310.784 313.495 C 311.081 312.458 311.374 311.416 311.667 310.379 C 312.027 309.092 312.392 307.806 312.756 306.519 C 313.595 303.561 314.423 300.604 315.246 297.642 C 315.357 297.246 315.468 296.85 315.575 296.454 C 316.208 294.186 316.208 294.186 316.838 291.917 C 317.036 291.208 317.23 290.504 317.428 289.795 C 317.606 289.158 317.784 288.52 317.958 287.883 C 318.077 287.463 318.077 287.463 318.196 287.039 C 318.263 286.798 318.331 286.552 318.398 286.303 C 318.576 285.757 318.576 285.757 318.837 285.495 C 319.36 285.468 319.883 285.456 320.405 285.452 C 320.742 285.452 321.074 285.448 321.423 285.444 C 321.605 285.444 321.783 285.444 321.969 285.444 C 322.539 285.44 323.105 285.436 323.675 285.428 C 325.287 285.412 326.902 285.396 328.518 285.388 C 329.507 285.384 330.493 285.373 331.479 285.361 C 331.855 285.361 332.227 285.357 332.604 285.357 C 335.997 285.349 339.536 285.072 342.145 282.645 C 344.002 280.629 344.743 278.333 345.451 275.736 C 345.582 275.269 345.582 275.269 345.717 274.797 C 345.95 273.954 346.184 273.111 346.413 272.271 C 346.659 271.388 346.904 270.51 347.15 269.631 C 347.502 268.364 347.859 267.093 348.211 265.826 C 348.844 263.545 349.482 261.265 350.123 258.988 C 350.214 258.667 350.305 258.343 350.4 258.01 C 350.579 257.381 350.757 256.747 350.935 256.118 C 351.347 254.661 351.758 253.2 352.17 251.743 C 352.238 251.489 352.309 251.24 352.384 250.982 C 352.447 250.757 352.511 250.527 352.578 250.29 C 352.661 249.993 352.661 249.993 352.748 249.692 C 352.891 249.157 353.029 248.623 353.16 248.084 C 352.911 248.088 352.661 248.088 352.404 248.088 C 350.052 248.1 347.7 248.108 345.348 248.112 C 344.141 248.116 342.933 248.12 341.722 248.124 C 340.558 248.132 339.39 248.136 338.222 248.136 C 337.778 248.136 337.331 248.14 336.888 248.14 C 336.262 248.144 335.64 248.148 335.015 248.144 C 334.833 248.148 334.651 248.148 334.46 248.152 C 333.075 248.144 331.954 247.918 330.79 247.146 C 330.153 246.184 330.256 245.249 330.367 244.133 C 330.604 242.973 330.929 241.841 331.257 240.704 C 331.352 240.372 331.447 240.039 331.543 239.695 C 331.8 238.796 332.057 237.893 332.315 236.991 C 332.588 236.04 332.857 235.09 333.126 234.14 C 333.566 232.588 334.005 231.04 334.449 229.492 C 335.015 227.508 335.573 225.528 336.131 223.545 C 336.21 223.256 336.294 222.967 336.377 222.67 C 336.535 222.1 336.697 221.53 336.856 220.959 C 337.256 219.534 337.66 218.109 338.059 216.684 C 338.693 214.443 339.322 212.202 339.952 209.961 C 341.702 203.745 343.452 197.529 345.206 191.313 C 345.364 190.754 345.523 190.192 345.681 189.634 C 346.746 185.857 347.811 182.08 348.876 178.303 C 349.351 176.624 349.826 174.945 350.301 173.262 C 350.404 172.894 350.511 172.522 350.614 172.15 C 352.02 167.177 353.413 162.204 354.799 157.223 C 356.399 151.475 358.026 145.73 359.673 139.993 C 359.748 139.732 359.823 139.47 359.903 139.197 C 360.053 138.682 360.2 138.168 360.35 137.653 C 360.742 136.307 361.118 134.961 361.474 133.607 C 361.554 133.325 361.629 133.04 361.708 132.747 C 361.855 132.205 361.997 131.663 362.132 131.12 C 362.749 128.867 363.854 127.387 365.822 126.135 C 366.249 125.89 366.681 125.652 367.112 125.419 C 367.346 125.288 367.58 125.158 367.821 125.023 C 368.609 124.587 369.397 124.164 370.189 123.74 C 370.482 123.586 370.775 123.427 371.072 123.269 C 374.405 121.495 377.743 119.733 381.195 118.209 C 381.366 118.13 381.536 118.055 381.714 117.975 C 410.743 105.171 410.743 105.171 416.041 108.723 Z" fill="#fff" style=""/><path d="M 294.468 180.116 C 295.09 180.48 295.09 180.48 295.517 181.169 C 295.585 183.216 294.904 185.188 294.306 187.116 C 293.336 190.275 292.449 193.455 291.566 196.642 C 291.186 198 290.806 199.354 290.426 200.712 C 290.311 201.112 290.311 201.112 290.196 201.52 C 289.962 202.355 289.725 203.19 289.491 204.026 C 289.321 204.632 289.151 205.237 288.981 205.843 C 288.624 207.098 288.272 208.349 287.92 209.604 C 287.25 211.976 286.585 214.348 285.916 216.723 C 285.591 217.871 285.271 219.019 284.946 220.168 C 284.182 222.884 283.418 225.6 282.654 228.316 C 282.297 229.595 281.937 230.869 281.577 232.148 C 281.407 232.754 281.24 233.36 281.07 233.966 C 280.563 235.775 280.049 237.584 279.534 239.394 C 279.482 239.584 279.427 239.774 279.371 239.972 C 279.233 240.455 279.094 240.938 278.952 241.417 C 278.881 241.662 278.809 241.908 278.738 242.161 C 277.891 244.378 276.042 246.022 273.971 247.063 C 271.192 248.16 268.313 247.97 265.372 247.954 C 264.762 247.954 264.152 247.958 263.542 247.958 C 261.891 247.962 260.24 247.958 258.589 247.954 C 257.037 247.954 255.481 247.954 253.929 247.954 C 250.853 247.954 247.781 247.95 244.704 247.946 C 241.719 247.938 238.738 247.938 235.752 247.938 C 232.502 247.942 229.247 247.942 225.993 247.938 C 224.275 247.938 222.552 247.938 220.83 247.938 C 219.215 247.938 217.599 247.938 215.984 247.93 C 215.39 247.93 214.8 247.93 214.206 247.93 C 213.395 247.934 212.587 247.93 211.779 247.926 C 211.427 247.926 211.427 247.926 211.063 247.93 C 209.471 247.914 209.471 247.914 208.639 247.419 C 208.457 247.229 208.457 247.229 208.271 247.031 C 208.354 245.455 208.833 244.652 209.922 243.575 C 210.817 242.652 211.668 241.726 212.46 240.708 C 212.892 240.265 213.331 239.825 213.771 239.394 C 213.961 239.192 214.151 238.99 214.345 238.784 C 214.82 238.337 214.82 238.337 215.342 238.337 C 215.43 238.079 215.517 237.818 215.604 237.549 C 216.035 237.121 216.035 237.121 216.57 236.674 C 217.279 236.076 217.948 235.47 218.585 234.797 C 219.274 234.124 219.274 234.124 219.797 234.124 C 219.888 233.902 219.888 233.902 219.979 233.673 C 220.418 232.901 220.957 232.425 221.614 231.836 C 221.745 231.721 221.871 231.606 222.002 231.487 C 223.083 230.525 224.195 229.606 225.316 228.696 C 226.183 227.987 227.026 227.251 227.87 226.514 C 229.216 225.346 230.59 224.226 231.991 223.133 C 233.222 222.171 234.418 221.177 235.618 220.176 C 237.376 218.711 239.177 217.309 241.014 215.943 C 241.921 215.27 242.816 214.581 243.707 213.888 C 245.987 212.122 248.303 210.42 250.643 208.733 C 251.241 208.306 251.835 207.874 252.429 207.439 C 255.074 205.511 257.734 203.606 260.407 201.718 C 260.613 201.575 260.814 201.432 261.02 201.286 C 262.632 200.15 264.251 199.029 265.878 197.917 C 266.132 197.742 266.385 197.568 266.646 197.39 C 268.4 196.186 270.166 194.995 271.936 193.815 C 272.273 193.589 272.273 193.589 272.613 193.36 C 277.317 190.188 282.084 187.116 286.87 184.067 C 287.108 183.917 287.341 183.77 287.587 183.612 C 288.268 183.176 288.953 182.741 289.638 182.305 C 289.844 182.179 290.046 182.048 290.255 181.913 C 290.786 181.577 291.317 181.24 291.851 180.908 C 292.219 180.67 292.219 180.67 292.599 180.433 C 293.296 180.037 293.68 179.973 294.468 180.116 Z" fill="#fff" style=""/><path d="M 181.4 345.502 C 181.681 345.502 181.681 345.502 181.974 345.502 C 182.374 345.502 182.774 345.502 183.178 345.506 C 183.779 345.51 184.385 345.514 184.987 345.514 C 191.678 345.525 191.678 345.525 193.072 346.879 C 193.642 347.683 194.058 348.542 194.481 349.429 C 194.754 349.976 195.024 350.522 195.297 351.068 C 195.443 351.365 195.59 351.662 195.74 351.971 C 196.255 353.016 196.785 354.05 197.32 355.087 C 197.415 355.269 197.51 355.451 197.605 355.641 C 197.799 356.017 197.993 356.394 198.187 356.766 C 199.616 359.549 201.034 362.336 202.416 365.144 C 203.223 366.783 204.074 368.402 204.946 370.009 C 205.65 371.324 205.65 371.324 205.65 371.906 C 208.109 369.772 210.484 367.547 212.856 365.318 C 214.079 364.17 215.307 363.017 216.538 361.877 C 216.895 361.549 216.895 361.549 217.263 361.208 C 217.75 360.769 218.249 360.341 218.755 359.917 C 219.496 359.292 220.169 358.634 220.846 357.942 C 221.313 357.506 221.784 357.075 222.255 356.643 C 223.506 355.495 224.75 354.335 225.989 353.167 C 227.969 351.306 229.96 349.461 232.031 347.699 C 232.363 347.418 232.363 347.418 232.704 347.125 C 234.612 345.763 236.239 345.704 238.532 345.688 C 238.841 345.684 239.153 345.68 239.474 345.676 C 240.464 345.66 241.454 345.652 242.444 345.644 C 243.117 345.632 243.79 345.624 244.467 345.616 C 246.11 345.593 247.757 345.577 249.404 345.561 C 249.25 347.077 248.96 348.471 248.537 349.932 C 248.446 350.261 248.446 350.261 248.347 350.597 C 248.141 351.334 247.927 352.07 247.717 352.806 C 247.488 353.61 247.262 354.414 247.032 355.218 C 246.87 355.796 246.704 356.378 246.537 356.956 C 245.868 359.319 245.203 361.683 244.546 364.051 C 244.443 364.419 244.34 364.787 244.237 365.155 C 243.829 366.608 243.425 368.061 243.022 369.515 C 241.858 373.692 240.678 377.865 239.466 382.03 C 238.872 384.085 238.286 386.143 237.712 388.206 C 237.597 388.622 237.597 388.622 237.479 389.042 C 237.087 390.443 236.711 391.845 236.342 393.254 C 236.224 393.709 236.224 393.709 236.101 394.177 C 235.946 394.759 235.792 395.345 235.646 395.935 C 235.539 396.327 235.539 396.327 235.432 396.726 C 235.372 396.956 235.313 397.19 235.254 397.427 C 234.921 398.14 234.668 398.227 233.947 398.512 C 233.357 398.579 233.357 398.579 232.708 398.575 C 232.344 398.579 232.344 398.579 231.971 398.579 C 231.71 398.575 231.449 398.575 231.179 398.575 C 230.906 398.571 230.637 398.571 230.36 398.571 C 229.79 398.571 229.22 398.571 228.65 398.567 C 227.775 398.564 226.9 398.564 226.029 398.564 C 225.474 398.56 224.92 398.56 224.366 398.556 C 223.974 398.556 223.974 398.556 223.57 398.556 C 223.328 398.556 223.087 398.552 222.833 398.552 C 222.62 398.552 222.406 398.548 222.188 398.548 C 221.634 398.512 221.634 398.512 220.846 398.251 C 221.285 396.113 221.875 394.022 222.465 391.928 C 222.572 391.548 222.679 391.172 222.786 390.795 C 223 390.035 223.213 389.275 223.427 388.515 C 223.843 387.046 224.251 385.577 224.663 384.104 C 224.734 383.843 224.809 383.582 224.884 383.313 C 225.458 381.242 226.029 379.167 226.595 377.093 C 227.62 373.335 228.681 369.59 229.754 365.844 C 229.667 365.757 229.58 365.67 229.493 365.583 C 229.319 365.749 229.319 365.749 229.144 365.916 C 228.622 366.414 228.099 366.913 227.577 367.408 C 227.394 367.582 227.216 367.757 227.026 367.935 C 226.765 368.184 226.765 368.184 226.5 368.438 C 226.258 368.667 226.258 368.667 226.013 368.901 C 225.561 369.269 225.561 369.269 224.777 369.534 C 224.69 369.796 224.603 370.057 224.512 370.326 C 224.14 370.702 224.14 370.702 223.645 371.114 C 222.536 372.06 221.467 373.042 220.402 374.036 C 219.615 374.768 218.803 375.449 217.964 376.119 C 217.52 376.554 217.085 376.994 216.653 377.437 C 215.457 378.668 214.238 379.844 212.939 380.965 C 212.508 381.349 212.108 381.745 211.708 382.164 C 211.154 382.707 211.154 382.707 210.627 382.707 C 210.627 382.881 210.627 383.055 210.627 383.233 C 210.29 383.578 210.29 383.578 209.792 383.99 C 209.075 384.599 208.378 385.221 207.697 385.874 C 207.551 386.013 207.408 386.155 207.254 386.298 C 206.965 386.575 206.68 386.856 206.391 387.137 C 205.1 388.368 203.789 389.144 201.948 389.129 C 200.86 389.081 200.19 389.002 199.363 388.238 C 198.037 386.618 197.181 384.694 196.271 382.822 C 195.665 381.586 195.028 380.367 194.382 379.151 C 193.329 377.144 192.304 375.121 191.302 373.09 C 190.668 371.803 190.031 370.516 189.394 369.233 C 189.164 368.766 188.93 368.295 188.701 367.828 C 188.558 367.539 188.416 367.254 188.269 366.957 C 188.138 366.699 188.012 366.442 187.881 366.173 C 187.62 365.607 187.62 365.607 187.311 365.318 C 186.895 366.775 186.48 368.228 186.068 369.685 C 185.925 370.176 185.787 370.667 185.648 371.158 C 184.251 376.063 182.885 380.973 181.523 385.886 C 181.154 387.212 180.786 388.543 180.418 389.869 C 180.228 390.55 180.038 391.231 179.848 391.912 C 179.575 392.91 179.294 393.907 179.016 394.905 C 178.933 395.214 178.846 395.519 178.759 395.836 C 178.684 396.117 178.605 396.394 178.525 396.683 C 178.454 396.928 178.387 397.174 178.316 397.427 C 178.137 397.985 178.137 397.985 177.876 398.251 C 177.445 398.275 177.009 398.278 176.574 398.278 C 176.296 398.278 176.015 398.278 175.73 398.278 C 175.275 398.278 175.275 398.278 174.816 398.275 C 174.507 398.275 174.198 398.275 173.881 398.275 C 172.891 398.271 171.906 398.271 170.916 398.267 C 170.251 398.263 169.581 398.263 168.912 398.263 C 167.273 398.259 165.63 398.255 163.991 398.251 C 164.347 396.283 164.834 394.375 165.377 392.458 C 165.507 391.991 165.507 391.991 165.638 391.52 C 165.88 390.665 166.121 389.81 166.359 388.958 C 166.62 388.04 166.877 387.125 167.135 386.207 C 167.586 384.599 168.037 382.992 168.493 381.38 C 169.277 378.597 170.057 375.81 170.841 373.018 C 171.118 372.037 171.395 371.051 171.668 370.069 C 171.771 369.701 171.771 369.701 171.878 369.328 C 172.278 367.907 172.678 366.482 173.077 365.056 C 173.204 364.601 173.331 364.146 173.462 363.69 C 173.774 362.578 174.087 361.465 174.4 360.353 C 174.982 358.29 175.556 356.227 176.114 354.161 C 176.372 353.198 176.633 352.236 176.898 351.274 C 177.021 350.819 177.144 350.36 177.262 349.9 C 177.429 349.267 177.603 348.637 177.773 348.008 C 177.825 347.818 177.872 347.632 177.92 347.438 C 178.272 346.183 178.272 346.183 178.909 345.708 C 179.733 345.482 180.549 345.49 181.4 345.502 Z" fill="#fff" style=""/><path d="M 329.84 345.518 C 330.042 345.514 330.244 345.514 330.454 345.51 C 330.671 345.51 330.889 345.506 331.115 345.506 C 331.341 345.506 331.566 345.502 331.8 345.502 C 332.275 345.498 332.754 345.498 333.233 345.498 C 333.962 345.494 334.686 345.486 335.415 345.478 C 335.878 345.474 336.345 345.474 336.812 345.474 C 337.026 345.47 337.244 345.466 337.466 345.462 C 339.394 345.47 341.096 345.909 342.573 347.256 C 343.321 348.099 343.848 349.077 344.398 350.055 C 344.671 350.53 344.945 351.001 345.222 351.472 C 345.364 351.714 345.503 351.955 345.649 352.205 C 346.354 353.385 347.102 354.537 347.855 355.685 C 348.943 357.356 350.008 359.034 351.042 360.737 C 351.723 361.853 352.416 362.962 353.109 364.067 C 353.243 364.28 353.374 364.49 353.512 364.708 C 354.427 366.161 355.353 367.602 356.288 369.039 C 357.092 370.279 357.856 371.518 358.549 372.828 C 359.226 374.016 359.986 375.152 360.73 376.297 C 361.645 377.71 362.532 379.139 363.375 380.596 C 363.981 379.048 364.472 377.492 364.915 375.889 C 365.022 375.505 365.022 375.505 365.133 375.109 C 365.374 374.258 365.612 373.402 365.849 372.547 C 366.02 371.942 366.186 371.34 366.356 370.734 C 366.728 369.408 367.101 368.077 367.473 366.751 C 368.154 364.316 368.835 361.881 369.516 359.442 C 369.757 358.583 369.999 357.72 370.24 356.861 C 370.3 356.647 370.359 356.437 370.422 356.219 C 371.056 353.955 371.689 351.69 372.323 349.425 C 372.402 349.144 372.402 349.144 372.481 348.863 C 372.766 347.849 373.047 346.836 373.332 345.822 C 374.318 345.64 375.237 345.529 376.238 345.553 C 376.488 345.561 376.741 345.565 376.999 345.569 C 377.403 345.581 377.403 345.581 377.81 345.593 C 378.226 345.601 378.226 345.601 378.65 345.609 C 379.529 345.632 380.412 345.652 381.29 345.676 C 381.888 345.688 382.49 345.704 383.088 345.715 C 384.553 345.751 386.018 345.787 387.483 345.822 C 386.596 349.58 385.535 353.282 384.486 356.995 C 384.236 357.874 383.987 358.753 383.737 359.636 C 382.846 362.792 381.952 365.947 381.053 369.103 C 380.982 369.348 380.91 369.594 380.839 369.847 C 380.522 370.956 380.206 372.068 379.889 373.177 C 379.22 375.505 378.582 377.841 377.961 380.185 C 377.066 383.534 376.14 386.876 375.197 390.213 C 374.932 391.156 374.667 392.102 374.401 393.048 C 374.231 393.65 374.061 394.252 373.891 394.858 C 373.811 395.139 373.732 395.42 373.653 395.709 C 373.582 395.966 373.507 396.224 373.431 396.489 C 373.368 396.715 373.305 396.94 373.237 397.174 C 373.071 397.72 373.071 397.72 372.81 398.247 C 371.21 398.306 369.611 398.358 368.011 398.405 C 367.469 398.421 366.926 398.441 366.384 398.461 C 365.6 398.488 364.816 398.508 364.032 398.532 C 363.672 398.548 363.672 398.548 363.304 398.56 C 361.601 398.599 359.788 398.488 358.454 397.308 C 357.476 396.228 356.743 394.957 356.007 393.706 C 355.753 393.282 355.5 392.858 355.247 392.435 C 355.12 392.217 354.989 392.003 354.859 391.781 C 354.241 390.756 353.599 389.742 352.962 388.733 C 351.754 386.816 350.555 384.892 349.359 382.968 C 347.791 380.442 346.215 377.924 344.632 375.406 C 343.848 374.167 343.072 372.923 342.292 371.68 C 341.607 370.591 340.922 369.503 340.237 368.414 C 340.094 368.188 339.952 367.962 339.805 367.729 C 339.532 367.297 339.263 366.866 338.99 366.43 C 338.867 366.236 338.744 366.042 338.618 365.84 C 338.507 365.666 338.4 365.496 338.289 365.322 C 337.913 364.708 337.545 364.09 337.177 363.473 C 336.024 367.222 334.92 370.983 333.875 374.764 C 333.649 375.588 333.419 376.412 333.19 377.235 C 332.445 379.919 331.701 382.604 330.964 385.288 C 330.584 386.682 330.2 388.072 329.816 389.465 C 329.583 390.308 329.353 391.152 329.123 391.995 C 328.866 392.937 328.609 393.88 328.347 394.822 C 328.233 395.246 328.233 395.246 328.118 395.677 C 328.043 395.939 327.971 396.196 327.896 396.461 C 327.805 396.802 327.805 396.802 327.71 397.146 C 327.453 397.791 327.259 398.108 326.696 398.512 C 326.106 398.611 326.106 398.611 325.414 398.611 C 325.152 398.611 324.891 398.615 324.622 398.615 C 324.341 398.611 324.06 398.611 323.771 398.607 C 323.481 398.607 323.196 398.607 322.899 398.607 C 322.29 398.607 321.68 398.603 321.066 398.599 C 320.132 398.595 319.198 398.595 318.259 398.595 C 317.669 398.595 317.075 398.595 316.485 398.591 C 316.204 398.591 315.923 398.591 315.63 398.591 C 315.373 398.591 315.112 398.587 314.846 398.583 C 314.617 398.583 314.387 398.583 314.15 398.579 C 313.595 398.512 313.595 398.512 313.073 397.985 C 313.14 397.748 313.207 397.51 313.278 397.265 C 315.116 390.827 316.933 384.381 318.738 377.932 C 318.794 377.734 318.849 377.536 318.905 377.33 C 320.144 372.9 321.383 368.473 322.622 364.043 C 322.785 363.461 322.947 362.883 323.109 362.301 C 323.216 361.925 323.323 361.545 323.426 361.164 C 323.505 360.887 323.505 360.887 323.584 360.606 C 323.881 359.533 324.182 358.464 324.479 357.395 C 325.56 353.535 326.645 349.679 327.746 345.822 C 328.458 345.62 329.1 345.525 329.84 345.518 Z" fill="#fff" style=""/><path d="M 438.458 346.202 C 438.652 346.23 438.842 346.258 439.04 346.286 C 441.447 346.63 443.811 347.073 446.171 347.667 C 446.008 348.99 445.743 350.245 445.379 351.528 C 445.327 351.71 445.276 351.896 445.221 352.082 C 445.114 352.47 445.007 352.854 444.896 353.238 C 444.73 353.828 444.563 354.422 444.401 355.012 C 444.294 355.388 444.191 355.764 444.084 356.136 C 444.009 356.401 444.009 356.401 443.934 356.675 C 443.581 357.91 443.581 357.91 443.288 358.207 C 441.321 358.191 439.369 357.874 437.429 357.562 C 434.503 357.102 431.569 356.841 428.619 356.623 C 428.311 356.599 428.311 356.599 427.998 356.576 C 422.712 356.184 417.328 356.156 412.046 356.576 C 411.8 356.595 411.555 356.611 411.306 356.631 C 409.334 356.813 407.204 357.067 405.561 358.239 C 404.607 359.616 404.009 361.252 404.25 362.946 C 405.727 364.759 408.685 364.759 410.819 365.005 C 411.171 365.048 411.523 365.092 411.876 365.136 C 414.382 365.436 416.896 365.702 419.41 365.963 C 419.727 365.999 420.048 366.03 420.376 366.066 C 421.984 366.232 423.591 366.399 425.199 366.561 C 427.946 366.842 430.67 367.151 433.382 367.689 C 433.584 367.729 433.79 367.772 434 367.812 C 436.597 368.366 439.008 369.317 441.194 370.849 C 441.451 371.023 441.713 371.197 441.978 371.379 C 441.978 371.55 441.978 371.724 441.978 371.906 C 442.152 371.906 442.326 371.906 442.504 371.906 C 444.575 374.531 444.805 377.682 444.528 380.901 C 444.084 384.639 442.845 387.917 440.933 391.136 C 440.778 391.401 440.778 391.401 440.624 391.674 C 438.213 395.507 433.576 397.035 429.403 397.985 C 424.628 398.904 419.81 399.102 414.96 399.106 C 414.612 399.106 414.612 399.106 414.259 399.106 C 403.993 399.098 393.105 398.243 383.29 395.087 C 383.456 393.694 383.757 392.395 384.149 391.045 C 384.208 390.843 384.268 390.641 384.327 390.435 C 384.509 389.794 384.695 389.156 384.878 388.519 C 385.004 388.083 385.127 387.648 385.254 387.212 C 385.559 386.147 385.863 385.086 386.172 384.021 C 387.796 384.164 389.332 384.449 390.919 384.817 C 395.334 385.842 399.749 386.448 404.25 386.919 C 404.682 386.967 404.682 386.967 405.125 387.014 C 417.696 388.646 417.696 388.646 429.387 385.553 C 430.421 384.14 430.979 382.635 430.714 380.862 C 429.835 379.476 428.671 379.298 427.178 378.941 C 425.725 378.645 424.264 378.474 422.791 378.32 C 422.209 378.257 421.631 378.193 421.049 378.13 C 418.967 377.896 416.884 377.678 414.802 377.461 C 413.744 377.35 412.687 377.235 411.63 377.124 C 410.874 377.045 410.118 376.966 409.366 376.891 C 406.871 376.629 404.405 376.305 401.938 375.861 C 401.704 375.822 401.471 375.778 401.229 375.738 C 398.292 375.184 395.184 374.309 392.986 372.167 C 392.82 372.009 392.654 371.847 392.479 371.684 C 390.721 369.839 390.215 367.816 390.25 365.302 C 390.25 365.084 390.254 364.87 390.258 364.645 C 390.401 359.339 392.646 354.244 396.209 350.368 C 405.628 341.475 426.842 344.547 438.458 346.202 Z" fill="#fff" style=""/><path d="M 99.4 345.525 C 99.602 345.525 99.804 345.525 100.01 345.525 C 100.687 345.525 101.364 345.525 102.041 345.525 C 102.524 345.525 103.011 345.525 103.494 345.525 C 104.808 345.525 106.127 345.525 107.441 345.525 C 108.819 345.525 110.193 345.525 111.571 345.525 C 113.883 345.525 116.191 345.525 118.503 345.525 C 121.176 345.529 123.852 345.525 126.525 345.525 C 128.817 345.525 131.113 345.525 133.406 345.525 C 134.776 345.525 136.146 345.525 137.519 345.525 C 138.806 345.525 140.097 345.525 141.384 345.525 C 141.859 345.525 142.33 345.525 142.805 345.525 C 143.45 345.525 144.096 345.525 144.741 345.525 C 144.927 345.525 145.117 345.525 145.311 345.525 C 146.111 345.529 146.721 345.569 147.485 345.822 C 146.907 348.483 146.23 351.1 145.47 353.709 C 145.351 354.129 145.351 354.129 145.224 354.556 C 144.638 356.552 144.638 356.552 144.341 357.154 C 132.151 357.154 119.96 357.154 107.397 357.154 C 107.31 357.847 107.227 358.543 107.136 359.26 C 106.53 361.347 105.925 363.433 105.303 365.583 C 115.245 365.67 125.19 365.757 135.433 365.844 C 134.447 369.637 133.41 373.418 132.289 377.176 C 122.261 377.176 112.232 377.176 101.898 377.176 C 101.724 378.043 101.55 378.914 101.372 379.809 C 101.209 380.434 101.043 381.06 100.861 381.677 C 100.77 382.002 100.679 382.327 100.58 382.663 C 100.485 382.992 100.39 383.32 100.291 383.661 C 100.192 384.005 100.093 384.35 99.998 384.69 C 99.756 385.522 99.519 386.353 99.277 387.185 C 99.534 387.098 99.796 387.01 100.061 386.923 C 100.58 386.9 101.098 386.896 101.621 386.9 C 101.946 386.9 102.27 386.904 102.603 386.904 C 102.967 386.908 103.327 386.911 103.688 386.915 C 104.068 386.919 104.448 386.919 104.824 386.923 C 105.857 386.931 106.887 386.939 107.92 386.947 C 108.997 386.955 110.074 386.963 111.151 386.971 C 113.19 386.987 115.233 387.003 117.272 387.018 C 119.596 387.038 121.92 387.058 124.24 387.074 C 129.019 387.109 133.798 387.145 138.577 387.185 C 138.173 388.677 137.765 390.166 137.361 391.659 C 137.223 392.165 137.084 392.672 136.945 393.179 C 136.747 393.907 136.549 394.636 136.351 395.364 C 136.288 395.594 136.229 395.82 136.165 396.057 C 136.106 396.267 136.051 396.477 135.991 396.695 C 135.94 396.881 135.888 397.067 135.837 397.261 C 135.694 397.724 135.694 397.724 135.433 398.251 C 134.293 398.52 133.184 398.548 132.02 398.548 C 131.751 398.548 131.751 398.548 131.474 398.548 C 130.88 398.548 130.282 398.548 129.684 398.548 C 129.253 398.548 128.825 398.548 128.393 398.548 C 127.229 398.548 126.065 398.548 124.901 398.548 C 123.678 398.548 122.458 398.548 121.235 398.548 C 119.184 398.548 117.133 398.548 115.078 398.548 C 112.711 398.548 110.343 398.548 107.976 398.548 C 105.94 398.548 103.905 398.548 101.87 398.548 C 100.655 398.548 99.439 398.548 98.224 398.548 C 97.08 398.548 95.939 398.548 94.795 398.548 C 94.376 398.548 93.96 398.548 93.54 398.548 C 86.952 398.556 86.952 398.556 85.127 396.932 C 84.085 395.851 83.737 394.826 83.709 393.329 C 83.749 391.029 84.386 388.947 85.028 386.761 C 85.154 386.31 85.285 385.858 85.412 385.407 C 85.756 384.199 86.101 382.996 86.453 381.792 C 86.813 380.537 87.17 379.278 87.53 378.019 C 88.037 376.237 88.548 374.456 89.058 372.674 C 89.886 369.788 90.701 366.897 91.509 364.003 C 91.564 363.809 91.616 363.615 91.671 363.417 C 91.98 362.313 92.289 361.204 92.598 360.095 C 93.255 357.736 93.912 355.38 94.577 353.02 C 94.831 352.114 95.08 351.203 95.33 350.292 C 95.492 349.706 95.658 349.124 95.821 348.538 C 95.892 348.265 95.967 347.996 96.042 347.715 C 96.11 347.469 96.181 347.224 96.252 346.971 C 96.312 346.757 96.371 346.539 96.43 346.317 C 96.506 346.155 96.581 345.993 96.656 345.822 C 97.59 345.51 98.43 345.525 99.4 345.525 Z" fill="#fff" style=""/><path d="M 295.779 345.561 C 296.436 346.967 296.812 348.321 297.125 349.837 C 297.2 350.189 297.2 350.189 297.275 350.55 C 297.382 351.056 297.489 351.567 297.596 352.074 C 297.881 353.448 298.174 354.818 298.467 356.188 C 298.526 356.469 298.586 356.75 298.649 357.039 C 299.227 359.739 299.849 362.431 300.478 365.12 C 301.579 369.819 302.62 374.535 303.646 379.25 C 304.437 382.897 305.249 386.539 306.092 390.174 C 306.734 392.945 307.276 395.717 307.831 398.512 C 303.337 398.425 298.839 398.338 294.207 398.251 C 293.819 396.521 293.431 394.794 293.027 393.013 C 292.904 392.466 292.781 391.924 292.655 391.362 C 292.56 390.93 292.461 390.499 292.366 390.067 C 292.314 389.841 292.263 389.62 292.211 389.386 C 291.851 387.771 291.851 387.771 291.851 387.185 C 282.254 387.185 272.657 387.185 262.766 387.185 C 262.592 387.533 262.422 387.881 262.244 388.238 C 262.038 388.523 261.828 388.804 261.606 389.077 C 261.48 389.232 261.353 389.386 261.226 389.548 C 261.092 389.715 260.957 389.881 260.818 390.051 C 260.533 390.404 260.248 390.76 259.963 391.112 C 259.821 391.29 259.674 391.473 259.528 391.655 C 258.764 392.609 258.015 393.571 257.267 394.537 C 257.053 394.81 256.835 395.083 256.614 395.357 C 256.198 395.887 256.198 395.887 255.802 396.536 C 254.563 398.373 254.563 398.373 253.387 398.746 C 252.52 398.817 251.688 398.809 250.821 398.769 C 250.509 398.765 250.2 398.761 249.879 398.758 C 248.889 398.746 247.903 398.71 246.914 398.678 C 246.244 398.663 245.571 398.651 244.898 398.643 C 243.255 398.611 241.616 398.567 239.973 398.512 C 240.381 397.415 240.868 396.675 241.628 395.78 C 242.329 394.937 243.01 394.105 243.623 393.195 C 243.893 392.827 243.893 392.827 244.166 392.454 C 244.336 392.454 244.51 392.454 244.688 392.454 C 244.756 392.256 244.823 392.062 244.89 391.861 C 245.227 391.104 245.579 390.665 246.145 390.067 C 247.199 388.911 248.117 387.691 249.044 386.432 C 249.911 385.276 250.837 384.176 251.772 383.075 C 252.286 382.489 252.286 382.489 252.548 381.915 C 252.722 381.915 252.896 381.915 253.074 381.915 C 253.141 381.721 253.209 381.527 253.276 381.325 C 253.613 380.565 253.965 380.125 254.531 379.527 C 255.584 378.375 256.503 377.156 257.425 375.893 C 258.296 374.741 259.223 373.64 260.153 372.535 C 260.672 371.949 260.672 371.949 260.933 371.379 C 261.107 371.379 261.278 371.379 261.456 371.379 C 261.523 371.181 261.59 370.987 261.662 370.785 C 261.994 370.029 262.347 369.59 262.913 368.992 C 263.97 367.836 264.889 366.616 265.811 365.357 C 266.682 364.201 267.605 363.101 268.539 362 C 269.058 361.414 269.058 361.414 269.319 360.84 C 269.489 360.84 269.663 360.84 269.842 360.84 C 269.901 360.658 269.956 360.472 270.02 360.286 C 270.447 359.347 271.049 358.642 271.722 357.878 C 271.987 357.569 272.249 357.265 272.514 356.96 C 272.641 356.809 272.767 356.663 272.898 356.508 C 273.904 355.325 274.826 354.069 275.757 352.822 C 275.875 352.664 275.994 352.506 276.117 352.343 C 276.351 352.03 276.584 351.714 276.818 351.401 C 277.099 351.025 277.4 350.661 277.701 350.304 C 277.875 350.304 278.045 350.304 278.223 350.304 C 278.275 350.122 278.322 349.944 278.374 349.758 C 279.269 347.917 280.828 346.84 282.677 346.088 C 283.398 345.846 283.893 345.775 284.637 345.739 C 284.994 345.723 284.994 345.723 285.358 345.708 C 285.742 345.692 285.742 345.692 286.134 345.676 C 286.399 345.664 286.66 345.652 286.934 345.64 C 289.879 345.529 292.829 345.533 295.779 345.561 Z M 285.298 358.995 C 284.039 360.527 282.796 362.071 281.581 363.639 C 280.464 365.08 279.32 366.498 278.16 367.903 C 276.933 369.396 275.717 370.888 274.557 372.432 C 274.347 372.706 274.141 372.983 273.924 373.268 C 272.803 374.483 272.803 374.483 272.197 375.857 C 277.819 375.857 283.438 375.857 289.23 375.857 C 289.016 373.874 289.016 373.874 288.656 371.942 C 288.597 371.664 288.533 371.387 288.47 371.102 C 288.406 370.809 288.339 370.52 288.272 370.219 C 288.205 369.914 288.137 369.606 288.066 369.293 C 287.923 368.651 287.777 368.01 287.634 367.369 C 287.413 366.387 287.191 365.401 286.973 364.415 C 286.835 363.793 286.692 363.168 286.554 362.546 C 286.455 362.103 286.455 362.103 286.356 361.651 C 286.292 361.378 286.233 361.105 286.166 360.828 C 286.086 360.468 286.086 360.468 286.003 360.099 C 285.857 359.474 285.857 359.474 285.298 358.995 Z" fill="#fff" style=""/><path d="M 42.145 345.502 C 42.402 345.502 42.66 345.502 42.925 345.502 C 43.337 345.506 43.337 345.506 43.76 345.51 C 44.184 345.51 44.184 345.51 44.62 345.51 C 45.522 345.514 46.429 345.521 47.332 345.529 C 47.945 345.529 48.559 345.533 49.173 345.533 C 50.677 345.541 52.182 345.549 53.686 345.561 C 54.09 346.606 53.801 347.366 53.492 348.412 C 53.413 348.677 53.413 348.677 53.334 348.95 C 53.164 349.54 52.989 350.13 52.815 350.716 C 52.697 351.132 52.574 351.547 52.455 351.963 C 52.202 352.826 51.952 353.689 51.699 354.553 C 51.188 356.31 50.697 358.076 50.202 359.838 C 50.044 360.404 49.885 360.97 49.727 361.537 C 49.513 362.305 49.299 363.069 49.086 363.833 C 48.579 365.65 48.068 367.468 47.561 369.285 C 47.447 369.693 47.332 370.097 47.221 370.5 C 46.48 373.145 45.736 375.79 44.992 378.435 C 44.913 378.724 44.829 379.013 44.746 379.314 C 44.374 380.632 44.002 381.954 43.626 383.277 C 43.499 383.732 43.372 384.184 43.242 384.639 C 43.186 384.845 43.127 385.047 43.068 385.256 C 42.798 386.076 42.798 386.076 42.684 386.919 C 54.874 387.006 67.065 387.094 79.627 387.185 C 77.006 396.667 77.006 396.667 76.48 398.251 C 75.252 398.449 74.076 398.548 72.829 398.548 C 72.659 398.548 72.485 398.548 72.307 398.552 C 71.733 398.552 71.155 398.552 70.58 398.552 C 70.165 398.552 69.749 398.552 69.337 398.556 C 68.213 398.556 67.092 398.556 65.968 398.556 C 65.267 398.556 64.562 398.56 63.862 398.56 C 61.411 398.56 58.956 398.564 56.505 398.564 C 54.221 398.56 51.94 398.564 49.656 398.567 C 47.696 398.571 45.732 398.571 43.768 398.571 C 42.596 398.571 41.428 398.575 40.257 398.575 C 39.156 398.579 38.055 398.579 36.951 398.575 C 36.551 398.575 36.147 398.579 35.743 398.579 C 30.295 398.599 30.295 398.599 28.407 397.091 C 27.211 395.812 26.882 394.379 26.898 392.656 C 27.029 391.148 27.496 389.715 27.912 388.266 C 28.015 387.909 28.114 387.549 28.216 387.189 C 28.486 386.223 28.759 385.26 29.036 384.294 C 29.321 383.281 29.606 382.267 29.891 381.254 C 30.354 379.615 30.818 377.971 31.285 376.332 C 31.863 374.293 32.437 372.254 33.007 370.215 C 33.486 368.517 33.961 366.814 34.444 365.116 C 35.197 362.451 35.945 359.779 36.677 357.106 C 37.034 355.796 37.394 354.485 37.754 353.175 C 37.928 352.549 38.099 351.924 38.269 351.294 C 38.499 350.427 38.736 349.564 38.978 348.701 C 39.045 348.443 39.112 348.186 39.184 347.921 C 39.283 347.568 39.283 347.568 39.382 347.208 C 39.437 347.002 39.496 346.796 39.552 346.586 C 40.086 345.514 41.052 345.494 42.145 345.502 Z" fill="#fff" style=""/><path d="M 463.021 382.509 C 463.322 382.517 463.619 382.525 463.928 382.529 C 464.217 382.54 464.506 382.552 464.803 382.56 C 465.199 382.576 465.199 382.576 465.603 382.588 C 466.462 382.723 466.961 382.984 467.658 383.495 C 468.271 384.425 468.366 385.023 468.442 386.131 C 468.085 387.529 467.25 388.246 466.086 389.03 C 466.224 389.216 466.363 389.406 466.505 389.596 C 467.499 390.954 468.442 392.284 469.229 393.769 C 468.343 393.848 467.491 393.876 466.608 393.769 C 466.034 393.278 466.034 393.278 465.559 392.454 C 465.254 391.995 464.942 391.54 464.629 391.088 C 464.474 390.859 464.324 390.633 464.166 390.4 C 463.322 389.287 462.792 389.267 461.366 389.03 C 461.366 390.594 461.366 392.157 461.366 393.769 C 460.677 393.769 459.985 393.769 459.272 393.769 C 459.272 390.118 459.272 386.468 459.272 382.707 C 460.369 382.156 461.826 382.465 463.021 382.509 Z M 461.632 384.286 C 461.295 384.568 461.295 384.568 461.343 385.209 C 461.347 385.474 461.35 385.743 461.35 386.017 C 461.354 386.282 461.358 386.547 461.358 386.824 C 461.362 387.03 461.366 387.236 461.366 387.45 C 463.647 387.541 463.647 387.541 465.82 386.919 C 466.173 386.626 466.173 386.626 466.133 385.882 C 466.173 385.047 466.173 385.047 465.559 384.552 C 464.89 384.461 464.249 384.405 463.58 384.37 C 463.306 384.35 463.306 384.35 463.025 384.33 C 462.562 384.302 462.095 384.294 461.632 384.286 Z" fill="#fff" style=""/><path d="M 468.703 379.543 C 470.975 381.139 472.678 383.364 473.339 386.08 C 473.628 389.053 473.327 391.833 471.486 394.295 C 469.55 396.564 467.309 398.069 464.296 398.306 C 460.986 398.405 458.464 397.407 456.061 395.139 C 455.131 394.161 454.513 393.187 454.03 391.928 C 453.939 391.69 453.844 391.453 453.749 391.207 C 453.099 388.895 453.175 385.973 454.228 383.796 C 455.72 381.238 457.684 379.329 460.543 378.403 C 463.417 377.793 466.145 378.023 468.703 379.543 Z M 456.651 381.654 C 456.065 382.41 455.558 383.19 455.079 384.021 C 454.988 384.18 454.901 384.334 454.806 384.496 C 453.836 386.563 453.943 389.635 454.671 391.762 C 455.974 394.474 458.08 396.144 460.844 397.194 C 463.322 397.815 465.638 397.562 467.919 396.406 C 470.33 394.838 471.724 392.985 472.567 390.229 C 472.88 387.034 472.329 384.441 470.275 381.915 C 468.643 380.185 466.553 379.013 464.162 378.926 C 461.291 378.882 458.698 379.496 456.651 381.654 Z" fill="#fff" style=""/></g><g id="_x32_" transform="matrix(0.124652, 0, 0, 0.124652, 391.601013, 140.979004)" style=""><g id="SVGRepo_bgCarrier" stroke-width="0" transform="matrix(1, 0, 0, 1, 102.969002, -1.37331)"/><g id="SVGRepo_tracerCarrier" stroke-linecap="round" stroke-linejoin="round" transform="matrix(1, 0, 0, 1, 102.969002, -1.37331)"/><g id="SVGRepo_iconCarrier" transform="matrix(1, 0, 0, 1, 102.969002, -1.37331)"><g><polygon class="st0" points="96.388,197.393 97.009,203.262 159.896,196.556 159.268,190.688 " style="fill: rgb(255, 255, 255);"/><path class="st0" d="M155.486,111.05c-8.683,0-15.734,7.052-15.734,15.727c0,8.69,7.052,15.734,15.734,15.734 s15.72-7.044,15.72-15.734C171.206,118.101,164.169,111.05,155.486,111.05z" style="fill: rgb(255, 255, 255);"/><polygon class="st0" points="97.515,171.836 161.953,176.924 162.408,171.042 97.969,165.968 " style="fill: rgb(255, 255, 255);"/><polygon class="st0" points="272.209,42.238 258.943,59.935 281.057,64.352 " style="fill: rgb(255, 255, 255);"/><polygon class="st0" points="143.93,42.238 135.082,64.352 157.203,59.935 " style="fill: rgb(255, 255, 255);"/><path class="st0" d="M276.395,126.776c0-8.675-7.044-15.727-15.734-15.727c-8.682,0-15.728,7.052-15.728,15.727 c0,8.69,7.045,15.734,15.728,15.734C269.351,142.511,276.395,135.466,276.395,126.776z" style="fill: rgb(255, 255, 255);"/><polygon class="st0" points="319.758,197.393 256.879,190.688 256.25,196.556 319.137,203.262 " style="fill: rgb(255, 255, 255);"/><polygon class="st0" points="318.163,165.968 253.745,171.042 254.207,176.924 318.625,171.836 " style="fill: rgb(255, 255, 255);"/><path class="st0" d="M242.4,203.637c-4.475,1.076-8.257,1.523-11.404,1.523c-4.171,0-7.196-0.78-9.455-1.913 c-3.349-1.71-5.298-4.273-6.64-7.578c-1.299-3.27-1.776-7.196-1.776-10.732c0-2.216,0.195-4.165,0.39-5.788l9.382-9.376 c1.732-1.718,2.245-4.323,1.314-6.582c-0.938-2.252-3.14-3.717-5.572-3.717h-21.132c-2.498,0-4.736,1.53-5.623,3.868 c-0.902,2.331-0.267,4.958,1.581,6.64l9.022,8.17c0.259,1.74,0.519,4.107,0.519,6.799c0.022,4.721-0.866,10.098-3.335,13.779 c-1.256,1.862-2.814,3.37-5.081,4.518c-2.252,1.133-5.269,1.913-9.44,1.913c-3.147,0-6.929-0.447-11.404-1.53 c-2.425-0.57-4.879,0.931-5.456,3.356c-0.57,2.425,0.931,4.879,3.363,5.464c5.024,1.191,9.484,1.754,13.497,1.761 c5.298,0,9.802-1.018,13.526-2.887c4.359-2.187,7.405-5.529,9.448-9.16l0.801,1.56c1.992,3.009,4.836,5.731,8.545,7.6 c3.724,1.869,8.236,2.887,13.526,2.887c4.006,0,8.474-0.57,13.505-1.768c2.432-0.592,3.926-3.032,3.341-5.457 C247.265,204.561,244.825,203.059,242.4,203.637z" style="fill: rgb(255, 255, 255);"/><path class="st0" d="M435.895,246.307c0.657-0.678,1.624-1.306,2.31-1.646l0.404-0.188l21.436-7.145l-2.743-5.492 c7.716-9.448,10.978-22.324,7.651-34.861c-4.54-17.178-20.116-29.181-37.878-29.181c-3.385,0-6.756,0.44-10.047,1.299l-0.289,0.086 l-0.281,0.087c-11.043,3.211-21.776,9.116-31.159,17.091c-8.863,7.607-15.886,16.701-20.952,27.08 c-5.94,12.118-9.079,26.301-9.058,40.974c0.008,18.527,4.604,38.087,14.053,59.747c4.503,10.372,6.799,21.66,6.799,33.583 c0.043,16.037-4.338,32.572-11.924,45.629c-2.367-7.744-5.55-15.128-9.491-22.021c-18.513-32.414-41.891-82.374-53.33-107.354 c27.917-11.57,47.751-29.808,59.105-54.398c32.226-69.844-9.982-128.408-40.014-152.644C293.385,0.007,276.727,0.007,269.509,0 h-0.007c-1.314,0-2.627,0.109-3.919,0.325c-11.7,1.956-26.561,13.944-44.23,35.684H208.91h-12.457 c-17.668-21.739-32.522-33.728-44.23-35.684C150.939,0.109,149.625,0,148.304,0h-0.086c-7.261,0-23.898,0.231-50.891,56.954 C67.295,81.191,25.093,139.769,57.32,209.598c10.949,23.724,29.801,41.552,56.188,53.179 c-8.834,21.747-30.775,74.226-50.422,108.581c-19.018,33.28-19.538,78.52-1.256,110.01C73.119,500.841,90.527,512,109.582,512 h93.901h10.87h93.9c14.645,0,28.148-6.46,38.83-18.404c14.039-1.56,27.897-6.359,40.563-14.103 c20.202-12.372,37.236-31.7,49.289-55.915c11.526-23.305,17.611-49.512,17.625-75.82c0.008-22.764-4.482-44.605-13.338-64.93 c-6.214-14.255-7.514-23.328-7.506-28.43c0.007-4.272,0.816-5.961,1.162-6.684L435.895,246.307z M432.402,225.881l-0.419,0.13 c-0.491,0.188-1.371,0.52-2.461,1.075c-2.201,1.083-5.153,2.944-7.715,5.594c-1.711,1.768-3.291,3.876-4.598,6.546 c-1.718,3.573-3.082,8.206-3.103,15.157c-0.008,8.38,2.166,20.267,9.144,36.282c8.127,18.651,11.714,38.167,11.707,57.077 c-0.015,24.041-5.709,47.145-15.575,67.109c-9.917,19.92-23.999,36.918-41.964,47.925c-11.916,7.275-25.738,11.765-40.353,11.779 c-7.232,10.87-17.135,17.842-28.813,17.842c-27.21,0-73.084,0-93.9,0c0,0-4.128,0-10.87,0c-20.823,0-66.691,0-93.901,0 c-36.016,0-55.662-65.478-29.469-111.317c26.192-45.838,55.654-121.147,55.654-121.147l2.729-8.92 c-25.76-7.55-50.61-21.97-63.37-49.635c-35.951-77.885,37.928-131.792,37.928-131.792s23.075-49.982,35.25-49.982l0.7,0.065 c11.981,1.992,37.936,35.943,37.936,35.943h21.97h21.956c0,0,25.969-33.951,37.95-35.943l0.692-0.065 c12.184,0.007,35.244,49.982,35.244,49.982s73.893,53.908,37.943,131.792c-13.453,29.159-40.331,43.572-67.549,50.776l1.408,4.504 c0,0,34.969,78.585,61.154,124.423c8.286,14.493,11.974,30.935,12.024,46.662l-0.916,5.406c2.722-0.975,5.442-2.187,8.207-3.862 c6.726-4.085,13.41-10.386,19.234-18.491c11.707-16.182,19.552-39.394,19.488-63.053c0-13.988-2.642-28.12-8.438-41.407 c-8.596-19.726-12.399-36.86-12.407-51.952c-0.022-12.429,2.685-23.407,7.066-32.357c4.374-8.957,10.278-15.792,16.03-20.729 c11.613-9.873,22.331-12.731,24.049-13.237c1.682-0.447,3.364-0.664,5.031-0.664c8.675,0,16.614,5.802,18.932,14.601 c2.743,10.343-3.349,20.931-13.62,23.854L432.402,225.881z" style="fill: rgb(255, 255, 255);"/></g></g></g><g id="_x32_-1" style="" transform="matrix(0.126394, 0, 0, 0.126394, 116.398003, 49.685001)"><g id="group-1" stroke-width="0" transform="matrix(1, 0, 0, 1, 102.969002, -1.37379)"/><g id="group-2" stroke-linecap="round" stroke-linejoin="round" transform="matrix(1, 0, 0, 1, 102.969002, -1.37379)"/><g id="group-3" transform="matrix(1, 0, 0, 1, 102.969002, -1.37379)"><g><path class="st0" d="M504.302,195.59c-10.618-6.362-29.71-43.514-33.959-47.755c-4.249-4.256-28.662-13.81-28.662-13.81 l-13.795-43.514c-26.542,3.185-42.449,45.634-43.513,48.819c0,0-2.661,73.764-120.47,45.11 c-84.437-20.54-135.22-40.407-177.872-0.36c-2.668-4.578-4.491-9.234-5.822-14.257c-2.378-9.062-2.918-19.46-2.91-31.308 c0-5.806,0.109-11.924,0.117-18.34c-0.008-13.436-0.493-28.248-4.046-44.015C69.85,60.386,63.136,43.743,51.344,27.162 c-5.086-7.168-15.024-8.858-22.199-3.764c-7.167,5.094-8.858,15.031-3.764,22.199c9.304,13.145,14.162,25.368,16.932,37.551 c2.739,12.167,3.271,24.397,3.264,37.027c0,6.024-0.118,12.136-0.118,18.34c0.016,12.646,0.438,25.799,3.928,39.32 c2.746,10.735,7.722,21.58,15.508,31.706C31.93,261.458,50.037,316.584,50.037,316.584l-34.093,54.241 c-0.618,0.978-1.033,2.066-1.244,3.192L0.146,454.073c-0.641,3.521,0.862,7.08,3.819,9.084l40.979,27.763 c0.876,0.602,1.964,0.775,2.981,0.493c1.026-0.274,1.863-0.994,2.308-1.949l8.326-17.825c0.618-1.338,0.368-2.918-0.634-3.998 l-10.728-11.448c-2.182-2.324-2.973-5.634-2.081-8.701l17.84-61.033c0.579-1.948,1.784-3.646,3.435-4.82l23.983-17.058 c3.255-2.332,7.66-2.222,10.806,0.251c3.146,2.472,4.288,6.721,2.809,10.438L93.41,401.858c-1.22,3.051-0.681,6.525,1.401,9.06 l60.298,73.365h45.218c1.996,0,3.616-1.62,3.616-3.607v-22.504c0-1.996-1.62-3.615-3.616-3.615h-14.303 c-3.342,0-6.409-1.854-7.982-4.804l-24.484-41.049c-1.643-3.106-1.33-6.87,0.783-9.663l21.948-28.999 c1.706-2.245,4.367-3.575,7.192-3.575h61.197c2.872,0,5.579,1.376,7.277,3.701c1.698,2.324,2.191,5.313,1.33,8.059l-19.726,62.16 c-0.626,1.957-0.564,4.077,0.18,5.994l12.653,32.598h39.272v-8.49l-6.494-20.415c-0.61-1.909-0.563-3.967,0.133-5.852 l26.471-71.847c1.315-3.553,4.694-5.908,8.474-5.908h27.011c2.449,0,4.796,1.002,6.502,2.777l74.813,103.365c0,0,38.208,0,50.947,0 c12.738,0,7.809-25.414-4.241-26.542c-22.826-2.12-52.004-65.798-64.742-88.09c-12.739-22.285,24.664-91.299,53.067-94.453 c28.654-3.185,43.514-14.867,47.763-30.79C513.856,223.187,514.92,201.959,504.302,195.59z" style="fill: rgb(255, 255, 255);"/></g></g></g><g id="group-4" stroke-width="0" transform="matrix(1.41555, 0, 0, 1.41555, 239.175003, 206.617004)" style=""/><g id="group-5" stroke-linecap="round" stroke-linejoin="round" transform="matrix(1.41555, 0, 0, 1.41555, 239.175003, 206.617004)" style=""/></svg>