<svg width="1503" height="1651" viewBox="0 0 1503 1651" fill="none" xmlns="http://www.w3.org/2000/svg">
<g clip-path="url(#clip0_95_94)">
<path d="M498 104.5L465.5 234M465.5 234C488.333 238.167 526.5 243.25 563.5 234C599.5 225 644.954 198.72 681 175.5C762.5 123 812.5 96 883 55L953 17C959.5 13 963.543 10.5 960.5 0.5C957.7 -8.7 959.333 -12.5 960 -13M465.5 234C461.667 249.667 453.4 285.4 451 303M960 -13L971 18M960 -13L949.5 -46M451 303C448.6 320.6 451 348.5 456 383C462.5 407 457.446 418.129 443.5 434.5C432.042 447.951 423.082 456.377 416.658 465M451 303C445.477 343.5 457.5 374.001 422.5 394.5C403.59 405.575 384.176 411.331 371.5 414.5C315.5 428.5 282.5 431.003 230.5 422.5C172.5 413.016 150.5 404 115 404M408 1617C408 1585.5 406.5 1514.86 406.5 1502C406.5 1486.5 407.5 1481.5 412 1456.5C416.5 1431.5 421.5 1417.5 421.5 1403.5C421.5 1389.5 422.015 1387.9 420 1378.5C417 1364.5 416.531 1366 414 1350.5C411.469 1335 411 1312.5 411 1312.5C410.167 1284.83 407.3 1210.8 406.5 1194C405.262 1168 404 1158 402.5 1139.5M408 1617C414 1617 417 1620.5 417 1625.5C417 1631 414 1634.5 408.5 1634.5C403 1634.5 399 1631.5 399 1625M408 1617C402.5 1617 399 1621 399 1625M399 1625C377.5 1623 356 1616 337.5 1616C317.9 1616 317.474 1615.58 307 1616.5C290 1618 252.5 1622.5 221 1630.5C189.5 1638.5 136.5 1658.17 113 1666.5M407 1127.45C405.946 1126.82 404.592 1126.5 403 1126.5C399 1126.5 396.5 1128.5 396.5 1132.5C396.5 1136.5 399 1139 402.5 1139C406 1139 409.5 1138 409.5 1132.5C409.5 1130.09 408.594 1128.41 407 1127.45ZM407 1127.45C406.833 1128.13 406.786 1121.5 407 1115.5C407.4 1104.3 408.5 1052.83 409 1028.5C409.506 1011 406 997.5 394.5 963C384.892 934.175 381 908.167 381 898.5C381 856.5 382 802.5 383.5 775.5C384.632 755.131 384.5 714 384.5 689.5C384.5 665 395 644 395 619C395 598.422 399.5 566.5 399.5 566.5C402 528 402.5 525 405 497C406.288 482.574 410.187 473.687 416.658 465M115 404C115 408.5 115.1 410 113.5 414M115 404C115.167 398.5 112 387.6 98 388M84.5 417C87.5 420 88 420 91.5 422M84.5 417C81.5 414 80.5 413 80.5 405C80.5 397 84 388.4 98 388M84.5 417C75 425 71.3 427.9 66.5 449.5C61.7 471.1 48.5 511.5 42.5 529L-1 640M91.5 422C95 424 99.5 423.375 102.5 423M91.5 422C95.9186 424.525 100.305 434 93.5 449.5C84.939 469 66.5339 500 57.5 520.5C48.8333 540.167 31.5 580.5 24.5 593.5M102.5 423C105.167 422.667 110.9 420.5 113.5 414M102.5 423C104 437.5 109 447 125.5 474C134.236 488.295 138.071 495 143 506.5C146.056 513.63 149.515 528 141.905 538M113.5 414C115 419.5 117.5 425 117.5 425C131.5 457.5 162.5 451 243.5 444M98 388C98 388 96.1829 379.5 95.5 372.5C94.378 361 100.333 341.167 102.5 335L143 218M100 500C87 512 91.2174 528.5 93.5 536C99 554.071 127.5 549.157 133 546C138.5 542.843 140.002 540.5 141.905 538M18 626.5C21 618.667 28.8445 606.006 45.5 591.5C61 578 66.5227 573.992 92 565.5C114.5 558 136.228 550 141.905 538M276 448.5C294 446.667 338.3 445.1 371.5 453.5C404.7 461.9 415.439 464.667 416.658 465M1253 37C1223.67 69.6667 1155.4 141.4 1117 167" stroke="white" stroke-width="3"/>
</g>
<defs>
<clipPath id="clip0_95_94">
<rect width="1503" height="1651" fill="white"/>
</clipPath>
</defs>
</svg>
