<svg width="1503" height="1651" viewBox="0 0 1503 1651" fill="none" xmlns="http://www.w3.org/2000/svg">
<g clip-path="url(#clip0_95_94)">
<path d="M10 645C34 585.5 71 491 171 463C193 456.84 198 455.1 222 453.5C248.5 451.733 326 443.1 359 433.5C414 417.5 459.601 398.473 492.5 377.5C532.5 352 558.5 332.5 592 304C623.78 276.963 635 257 686.5 225C732.367 196.5 763.5 179.5 851.5 157.5C921.9 139.9 989.833 122.5 1015 116C1052.5 105 1088.6 91.2 1135 64C1181.4 36.8 1269 -16.3333 1307 -39.5M1304 -43.5L1164.5 40C1121.5 68 1058.5 99.0758 1015 110.5C965.5 123.5 881.333 144.5 837 155C788.5 166.487 744.424 183.929 709.5 204C666 229 643 244.5 616 271C591.772 294.78 595.5 296.5 537.5 339.5C479.5 382.5 463 389.5 407.5 410.5C352 431.5 298.5 438 246.5 444C194.5 450 164.5 449 114.5 481C60.5354 515.537 23.5 588 5 643" stroke="#F3F3F3" stroke-width="4"/>
</g>
<defs>
<clipPath id="clip0_95_94">
<rect width="1503" height="1651" fill="white"/>
</clipPath>
</defs>
</svg>
