<svg width="1503" height="1651" viewBox="0 0 1503 1651" fill="none" xmlns="http://www.w3.org/2000/svg">
<path d="M1117.5 166.5L1091.5 186.5C1074.5 199 1061.9 196.6 1051.5 205C1041.1 213.4 1025.17 226.833 1018.5 232.5L959.5 284M959.5 284C963.5 284 966.5 285.5 966.5 292C966.5 294.982 965.128 296.445 963.5 297.187M959.5 284C954.5 284 952.5 287.5 952.5 291C952.5 295 954 298 959.5 298C960.568 297.924 962.125 297.812 963.5 297.187M963.5 297.187C967.167 301.958 975.4 315.4 979 331C983.5 350.5 987 353 981 373.5C975 394 949.5 463.5 946.5 474.5M936.5 499.5C945 501 951.5 498 953 487.5C953.429 484.5 951 478.5 946 475.5C940.28 472.068 930 474.5 928 483C926.706 488.5 927.5 496.5 936.5 499.5ZM936.5 499.5L904 613C897.5 636.167 883.3 684.2 878.5 691M878.5 691C872.5 699.5 853.5 718.5 833.5 734C817.5 746.4 756.167 795.833 727.5 819L657.5 874C645 883 620.3 908.3 621.5 937.5C622.7 966.7 628 1010.67 630.5 1029L642 1111.5M878.5 691C864 685 855.5 682.5 841 666.5L741 551M642 1111.5C649 1110 655.5 1114 655.5 1121C655.5 1130.5 648.5 1134.17 642 1132M642 1111.5C636.5 1112.68 633.875 1119 635 1123.5C635.875 1127 637.5 1130.5 642 1132M642 1132C641.333 1141 642 1154.5 643.5 1178C644.844 1199.05 648.379 1235.5 652 1265.5C654.305 1284.6 664.333 1343.33 670 1372.5C674.5 1402.17 681 1449 685.5 1483C688.529 1505.89 696 1541 696 1572.5M688.707 1588.5C687.965 1587.2 687.5 1585.56 687.5 1583.5C687.5 1574 695 1573 697 1573C699 1573 707.5 1573 708 1583.5C708.4 1591.9 700.833 1593.33 697 1593C694.692 1593 690.701 1591.99 688.707 1588.5ZM688.707 1588.5C660.638 1598 593.638 1615.9 550.5 1618.5C492.5 1622 443.5 1623.67 417 1625.5" stroke="#43AAEA" stroke-width="3"/>
</svg>
