<svg width="1503" height="1651" viewBox="0 0 1503 1651" fill="none" xmlns="http://www.w3.org/2000/svg">
<g clip-path="url(#clip0_95_94)">
<path d="M420.5 1383C408.5 1383.17 381.9 1383.7 377.5 1384.5C377 1384.59 344.5 1385 317.5 1410.5C309.833 1416.5 291.8 1437.8 281 1475C277 1490.6 221 1470.17 193.5 1458C190.333 1456.83 180 1453.9 164 1451.5M709 1581.5L1159 1449.31M1270.5 1416.5C1269.67 1413.67 1269.5 1407.5 1275.5 1405.5C1278.67 1404.67 1285.5 1404.6 1287.5 1411M1270.5 1416.5C1273.3 1423.7 1280 1423.17 1283 1422C1289 1420 1288.5 1413.83 1287.5 1411M1270.5 1416.5L1159 1449.31M1287.5 1411L1350.5 1392M1350.5 1392C1349.67 1388.83 1349.6 1382.2 1356 1381C1359.33 1379.67 1366.7 1379 1369.5 1387M1350.5 1392C1350.87 1396 1357 1402 1365 1398.5C1371.4 1395.7 1370.67 1389.67 1369.5 1387M1369.5 1387L1473.5 1355L1493 1350M1493 1350C1488.33 1345.33 1481.6 1333.8 1492 1325M1493 1350C1493.67 1351.83 1498.2 1354.7 1511 1351.5M1492 1325C1498.17 1320.67 1512.5 1316.2 1520.5 1333M1492 1325L1468 1294M1520.5 1333C1522.67 1337.83 1523.8 1348.3 1511 1351.5M1520.5 1333L1631 1269.5M1511 1351.5L1520.5 1387L1511 1446M1631 1269.5C1628.83 1265.17 1627.1 1255.7 1637.5 1252.5C1641.67 1251 1650.7 1250.6 1653.5 1261M1631 1269.5C1633.34 1273.12 1636.54 1274.63 1639.5 1275.08M1653.5 1261C1654.5 1265.33 1654.4 1274.1 1646 1274.5C1644.52 1275.05 1642.1 1275.48 1639.5 1275.08M1653.5 1261L1681.5 1258L1735 1265.5M1639.5 1275.08L1593.5 1387L1618 1418.5M1159 1449.31C1165.83 1480.71 1178.7 1557 1175.5 1611C1173.83 1622.17 1168.9 1647.2 1162.5 1658M408.5 1635.5C411.167 1679.33 423.8 1773.6 441 1784M536 1981.5C515.667 1996.67 469 2028.1 455 2028.5C435.667 2029 397 2032.1 397 2040.5C397 2048.9 381.333 2060 373.5 2064.5" stroke="#A62418" stroke-width="3"/>
<path d="M656 1120L1528.5 905" stroke="#A62418" stroke-width="3"/>
<path d="M1161.5 423.5L1060.5 492.5C1054 496.5 1041.2 506.4 1042 514M1042 514L953.5 488M1042 514L1193.5 563.5M1193.5 563.5C1195.17 559.167 1200.9 550.9 1210.5 552.5M1193.5 563.5C1192.3 568.7 1194 572.833 1194.5 574C1196.43 577.405 1197.67 579.317 1200 580.987M1210.5 552.5C1214.33 552.667 1222.7 555.1 1225.5 563.5M1210.5 552.5L1216.5 491.5M1225.5 563.5C1226.5 567.503 1226.37 575.823 1219.5 581.138M1225.5 563.5L1248 555.5L1318.5 515.5M1200 580.987C1205.87 585.203 1212.28 584.694 1215.5 583.5C1217.04 582.817 1218.36 582.019 1219.5 581.138M1200 580.987L1170 627.5M1219.5 581.138L1253 619.5" stroke="#A62418" stroke-width="3"/>
<path d="M405.5 1189.5L383 1197.5L164.5 1218C149.333 1218 118 1226.7 114 1261.5C110 1296.3 104.333 1314 102 1318.5" stroke="#A62418" stroke-width="3"/>
<path d="M1175 625H1175.25V624.75V623.25V623H1175H1168H1167.75V623.25V624.75V625H1168H1175ZM1164.75 624C1164.75 620.272 1167.77 617.25 1171.5 617.25C1175.23 617.25 1178.25 620.272 1178.25 624C1178.25 627.728 1175.23 630.75 1171.5 630.75C1167.77 630.75 1164.75 627.728 1164.75 624Z" fill="#A62418" stroke="white" stroke-width="0.5"/>
<rect x="1167.5" y="623" width="8" height="2" fill="white"/>
<path d="M246 1212H246.25V1211.75V1210.25V1210H246H239H238.75V1210.25V1211.75V1212H239H246ZM235.75 1211C235.75 1207.27 238.772 1204.25 242.5 1204.25C246.228 1204.25 249.25 1207.27 249.25 1211C249.25 1214.73 246.228 1217.75 242.5 1217.75C238.772 1217.75 235.75 1214.73 235.75 1211Z" fill="#A62418" stroke="white" stroke-width="0.5"/>
<rect x="238.5" y="1210" width="8" height="2" fill="white"/>
<path d="M1174 1634H1174.25V1633.75V1632.25V1632H1174H1167H1166.75V1632.25V1633.75V1634H1167H1174ZM1163.75 1633C1163.75 1629.27 1166.77 1626.25 1170.5 1626.25C1174.23 1626.25 1177.25 1629.27 1177.25 1633C1177.25 1636.73 1174.23 1639.75 1170.5 1639.75C1166.77 1639.75 1163.75 1636.73 1163.75 1633Z" fill="#A62418" stroke="white" stroke-width="0.5"/>
<rect x="1166.5" y="1632" width="8" height="2" fill="white"/>
<path d="M702 1110H702.25V1109.75V1108.25V1108H702H695H694.75V1108.25V1109.75V1110H695H702ZM691.75 1109C691.75 1105.27 694.772 1102.25 698.5 1102.25C702.228 1102.25 705.25 1105.27 705.25 1109C705.25 1112.73 702.228 1115.75 698.5 1115.75C694.772 1115.75 691.75 1112.73 691.75 1109Z" fill="#A62418" stroke="white" stroke-width="0.5"/>
<rect x="694.5" y="1108" width="8" height="2" fill="white"/>
<path d="M1440 1368H1440.25V1367.75V1366.25V1366H1440H1433H1432.75V1366.25V1367.75V1368H1433H1440ZM1429.75 1367C1429.75 1363.27 1432.77 1360.25 1436.5 1360.25C1440.23 1360.25 1443.25 1363.27 1443.25 1367C1443.25 1370.73 1440.23 1373.75 1436.5 1373.75C1432.77 1373.75 1429.75 1370.73 1429.75 1367Z" fill="#A62418" stroke="white" stroke-width="0.5"/>
<rect x="1432.5" y="1366" width="8" height="2" fill="white"/>
<path d="M732 1577H732.25V1576.75V1575.25V1575H732H725H724.75V1575.25V1576.75V1577H725H732ZM721.75 1576C721.75 1572.27 724.772 1569.25 728.5 1569.25C732.228 1569.25 735.25 1572.27 735.25 1576C735.25 1579.73 732.228 1582.75 728.5 1582.75C724.772 1582.75 721.75 1579.73 721.75 1576Z" fill="#A62418" stroke="white" stroke-width="0.5"/>
<rect x="724.5" y="1575" width="8" height="2" fill="white"/>
<path d="M413 1652H413.25V1651.75V1650.25V1650H413H406H405.75V1650.25V1651.75V1652H406H413ZM402.75 1651C402.75 1647.27 405.772 1644.25 409.5 1644.25C413.228 1644.25 416.25 1647.27 416.25 1651C416.25 1654.73 413.228 1657.75 409.5 1657.75C405.772 1657.75 402.75 1654.73 402.75 1651Z" fill="#A62418" stroke="white" stroke-width="0.5"/>
<rect x="405.5" y="1650" width="8" height="2" fill="white"/>
<path d="M318 1414H318.25V1413.75V1412.25V1412H318H311H310.75V1412.25V1413.75V1414H311H318ZM307.75 1413C307.75 1409.27 310.772 1406.25 314.5 1406.25C318.228 1406.25 321.25 1409.27 321.25 1413C321.25 1416.73 318.228 1419.75 314.5 1419.75C310.772 1419.75 307.75 1416.73 307.75 1413Z" fill="#A62418" stroke="white" stroke-width="0.5"/>
<rect x="310.5" y="1412" width="8" height="2" fill="white"/>
<path d="M976 496H976.25V495.75V494.25V494H976H969H968.75V494.25V495.75V496H969H976ZM965.75 495C965.75 491.272 968.772 488.25 972.5 488.25C976.228 488.25 979.25 491.272 979.25 495C979.25 498.728 976.228 501.75 972.5 501.75C968.772 501.75 965.75 498.728 965.75 495Z" fill="#A62418" stroke="white" stroke-width="0.5"/>
<rect x="968.5" y="494" width="8" height="2" fill="white"/>
<path d="M1322 516H1322.25V515.75V514.25V514H1322H1315H1314.75V514.25V515.75V516H1315H1322ZM1311.75 515C1311.75 511.272 1314.77 508.25 1318.5 508.25C1322.23 508.25 1325.25 511.272 1325.25 515C1325.25 518.728 1322.23 521.75 1318.5 521.75C1314.77 521.75 1311.75 518.728 1311.75 515Z" fill="#A62418" stroke="white" stroke-width="0.5"/>
<rect x="1314.5" y="514" width="8" height="2" fill="white"/>
</g>
<defs>
<clipPath id="clip0_95_94">
<rect width="1503" height="1651" fill="white"/>
</clipPath>
</defs>
</svg>
