<svg width="1503" height="1651" viewBox="0 0 1503 1651" fill="none" xmlns="http://www.w3.org/2000/svg">
<path d="M971 485L1025.5 497.5C1036.5 499.5 1040 498.875 1052 491C1063.82 483.246 1135.74 432.104 1179 405.237M971 18C982.462 50.6233 1001.7 81.6917 1015 106.407M995 490.505V492.38M995 490.505V488.63M995 490.505L1010.75 494.091L1026.5 497.678M1026.5 497.678V499.928M1026.5 497.678V495.678M995 492.38V494.255L1026.49 502.175C1026.49 502.176 1026.5 502.172 1026.5 502.165V499.928M995 492.38L1026.5 499.928M1026.5 495.678V493.678L1010.75 490.032L995.001 486.386C995.001 486.385 995 486.386 995 486.387V488.63M1026.5 495.678L995 488.63M1192.84 396.5L1196 394.5L1301.5 330.5C1325 313.5 1330.99 295 1311.5 270C1294.5 248.191 1286 233.521 1258 227C1228.8 220.2 1176.82 207.065 1161.5 200.5C1130 187 1136.5 181.421 1111.5 163C1086.5 144.579 1087.5 142 1064.5 142C1042.26 142 1033.58 142 1021.28 118.5" stroke="#CEA623" stroke-width="3"/>
<path d="M1171.85 401L1175.28 401.096C1175.63 401.106 1175.95 401.303 1176.12 401.613L1180.44 409.451C1180.55 409.644 1180.59 409.867 1180.56 410.085L1180 413.733" stroke="#CEA623" stroke-width="2" stroke-linecap="round"/>
<path d="M1199.68 400.75L1196.26 400.642C1195.9 400.631 1195.58 400.433 1195.41 400.123L1191.12 392.27C1191.01 392.076 1190.97 391.853 1191.01 391.635L1191.58 387.989" stroke="#CEA623" stroke-width="2" stroke-linecap="round"/>
<path d="M1017.74 102.219L1017.61 104.055C1017.59 104.4 1017.39 104.709 1017.09 104.871L1012.88 107.107C1012.67 107.215 1012.44 107.25 1012.21 107.204L1010.32 106.823" stroke="#CEA623" stroke-linecap="round"/>
<path d="M1017.69 122.253L1017.93 120.176C1017.97 119.824 1018.2 119.52 1018.52 119.377L1023.7 117.095C1023.9 117.006 1024.12 116.986 1024.34 117.039L1026.61 117.598" stroke="#CEA623" stroke-linecap="round"/>
</svg>
